<?xml version="1.0" standalone="no"?>
<!DOCTYPE svg PUBLIC "-//W3C//DTD SVG 1.1//EN" "http://www.w3.org/Graphics/SVG/1.1/DTD/svg11.dtd" >
<svg>
<metadata>
Created by FontForge 20090914 at Fri Feb 10 09:22:21 2017
 By www-data
Copyright (c) 2012 by Stairsfor. All rights reserved.
</metadata>
<defs>
<font id="Arsenal-Regular" horiz-adv-x="516" >
  <font-face 
    font-family="Arsenal"
    font-weight="400"
    font-stretch="normal"
    units-per-em="1000"
    panose-1="2 1 5 4 6 2 0 2 0 4"
    ascent="750"
    descent="-250"
    x-height="500"
    cap-height="650"
    bbox="-59 -288 1804 946"
    underline-thickness="50"
    underline-position="-50"
    unicode-range="U+0020-U+FB06"
  />
<missing-glyph horiz-adv-x="632" 
d="M396 436v50h140v-147h-55v97h-85zM236 486v-50h-85v-97h-55v147h140zM151 186v-96h85v-51h-140v147h55zM396 39v51h85v96h55v-147h-140z" />
    <glyph glyph-name="arrowleft" unicode="&#x3c;&#x2d;&#x2d;" horiz-adv-x="631" 
d="M340 504l27 -27l-190 -179l408 3v-47l-408 2l190 -177l-27 -27l-273 226z" />
    <glyph glyph-name="arrowright" unicode="&#x2d;&#x2d;&#x3e;" horiz-adv-x="613" 
d="M48 254v47l408 -3l-191 179l26 32l274 -231l-274 -231l-26 32l190 177z" />
    <glyph glyph-name="uni263A" unicode="&#x3a;&#x2d;&#x29;" horiz-adv-x="729" 
d="M242 441c5.33301 5.33301 12.333 8 21 8c8 0 14.667 -2.66699 20 -8c6 -6 9 -13.667 9 -23s-3 -17 -9 -23c-5.33301 -4.66699 -12 -7 -20 -7c-8.66699 0 -15.667 2.33301 -21 7c-6 6 -9 13.667 -9 23s3 17 9 23zM441 441c5.33301 5.33301 12.333 8 21 8
c8 0 14.667 -2.66699 20 -8c6 -6 9 -13.667 9 -23s-3 -17 -9 -23c-5.33301 -4.66699 -12 -7 -20 -7c-8.66699 0 -15.667 2.33301 -21 7c-6 6 -9 13.667 -9 23s3 17 9 23zM362 200c21.333 0 39.8311 4.66797 55.498 14.001s25.834 18.666 30.501 27.999l8 14l27 -17
c-0.666992 -2 -1.66699 -4.83301 -3 -8.5s-5.16602 -10 -11.499 -19s-13.5 -17 -21.5 -24s-19.667 -13.333 -35 -19s-32 -8.5 -50 -8.5s-34.5 2.66699 -49.5 8s-26.667 12 -35 20s-15.333 15.833 -21 23.5s-9.5 14.167 -11.5 19.5l-3 8l26 17l3 -6
c1.33301 -2.66699 4.5 -7.16699 9.5 -13.5s10.667 -12 17 -17s15.333 -9.5 27 -13.5s24.167 -6 37.5 -6zM614.998 322.001c0 93.333 -22.834 166.666 -68.501 219.999s-107.167 80 -184.5 80c-76 0 -136.5 -26.667 -181.5 -80s-67.5 -126.666 -67.5 -219.999
c0 -92.667 22.333 -165 67 -217s105.334 -78 182.001 -78c77.333 0 138.833 26 184.5 78s68.5 124.333 68.5 217zM657.997 323.001c0 -104 -26.1689 -186.167 -78.502 -246.5s-124.5 -90.5 -216.5 -90.5c-91.333 0 -163.166 30.167 -215.499 90.5s-78.5 142.5 -78.5 246.5
s26.333 186.667 79 248s124.334 92 215.001 92s162.5 -30.667 215.5 -92s79.5 -144 79.5 -248z" />
    <glyph glyph-name="uni263B" unicode="&#x28;&#x2d;&#x3a;" horiz-adv-x="729" 
d="M227 463c-7.33301 -8.66699 -11 -17.667 -11 -27c0 -10.667 3.66699 -19.667 11 -27c6 -6 13.667 -9 23 -9c10 0 18 3 24 9c6.66699 6.66699 10 15.667 10 27c0 10.667 -3.33301 19.667 -10 27c-6 6 -14 9 -24 9c-9.33301 0 -17 -3 -23 -9zM450 463
c-7.33301 -8.66699 -11 -17.667 -11 -27c0 -10.667 3.66699 -19.667 11 -27c6 -6 14 -9 24 -9c9.33301 0 17.333 3 24 9c6.66699 6.66699 10 15.667 10 27c0 10.667 -3.33301 19.667 -10 27c-6.66699 6 -14.667 9 -24 9c-10 0 -18 -3 -24 -9zM362 192
c-24 0 -44.835 5.33008 -62.502 15.9971s-29.5 21.334 -35.5 32.001l-8 15l-30 -21c0.666992 -2.66699 1.83398 -6 3.50098 -10s5.83398 -11.167 12.501 -21.5s14.667 -19.5 24 -27.5s22.5 -15.167 39.5 -21.5s35.833 -9.5 56.5 -9.5s39.5 3.16699 56.5 9.5
s30.167 13.833 39.5 22.5s17.333 17.334 24 26.001s11 16 13 22l3 10l-30 21c-0.666992 -2 -1.66699 -4.33301 -3 -7s-4.83301 -7.66699 -10.5 -15s-12.167 -13.666 -19.5 -18.999s-17.5 -10.333 -30.5 -15s-27.167 -7 -42.5 -7zM657.998 322.997
c0 -104 -26.1689 -186.167 -78.502 -246.5s-124.5 -90.5 -216.5 -90.5c-91.333 0 -163.166 30.167 -215.499 90.5s-78.5 142.5 -78.5 246.5s26.333 186.667 79 248s124.334 92 215.001 92s162.5 -30.667 215.5 -92s79.5 -144 79.5 -248z" />
    <glyph glyph-name="uni2767" unicode="&#x2d;&#x2a;&#x2d;" horiz-adv-x="833" 
d="M394 413c-18 6.66699 -37.667 10 -59 10c-49.333 0 -90 -18 -122 -54c-4 -6 -6 -12.667 -6 -20c0 -10.667 4.66699 -19.5 14 -26.5s23.333 -10.5 42 -10.5c26.667 0 51.5 9.33301 74.5 28s41.833 43 56.5 73zM436 78l26.0039 2.00195
c0 -12.667 4.83301 -23.334 14.5 -32.001s22.167 -13 37.5 -13c13.333 0 24.5 3.5 33.5 10.5s13.5 17.167 13.5 30.5c0 8 -2 17.333 -6 28c-47.333 0.666992 -88 11 -122 31s-51 47 -51 81c0 23.333 8 42.666 24 57.999s34.667 23 56 23
c27.333 0 46.666 -5.66699 57.999 -17l2 1c-18.667 52.667 -49.334 91.334 -92.001 116.001c-19.333 -34.667 -43.666 -62.834 -72.999 -84.501s-61.333 -32.5 -96 -32.5c-40.667 0 -67 13.333 -79 40c-10 -24 -15 -52.333 -15 -85c0 -26 3.83301 -49.167 11.5 -69.5
s16.834 -35.833 27.501 -46.5s21.5 -19.5 32.5 -26.5s20.167 -11.5 27.5 -13.5l12 -3l-13 -34c-4 0.666992 -9.5 1.83398 -16.5 3.50098s-19.167 6.66699 -36.5 15s-32.666 18.666 -45.999 30.999s-25.5 30.666 -36.5 54.999s-16.5 52.166 -16.5 83.499
c0 72 21.667 128.167 65 168.5s94.666 60.5 153.999 60.5c27.333 0 53 -4.33301 77 -13c12 32 18 63.333 18 94c0 40 -11.333 71.167 -34 93.5s-53.334 33.5 -92.001 33.5c-25.333 0 -46 -7.5 -62 -22.5s-24 -31.833 -24 -50.5c0 -26 14.667 -42 44 -48l-4 -27
c-27.333 2.66699 -47.833 10.834 -61.5 24.501s-20.5 30.167 -20.5 49.5c0 26.667 11.667 51 35 73s53.333 33 90 33c54 0 96.167 -14.667 126.5 -44s45.5 -67.666 45.5 -114.999c0 -35.333 -8 -72.333 -24 -111c45.333 -26.667 77.333 -64 96 -112l2 1
c2 14 10 28.167 24 42.5s32 21.5 54 21.5c33.333 0 59.166 -10.833 77.499 -32.5s27.5 -50.167 27.5 -85.5c0 -62 -20.833 -119.667 -62.5 -173s-89.834 -80 -144.501 -80c-26.667 0 -47.334 6.5 -62.001 19.5s-22 28.833 -22 47.5z" />
    <glyph glyph-name="uniFB00" unicode="ff" horiz-adv-x="587" 
d="M167 563v-63h201v71c0 48 5.33301 86.667 16 116c-46 18 -83 27 -111 27c-42 0 -70.167 -10.5 -84.5 -31.5s-21.5 -60.833 -21.5 -119.5zM585 500l0.000976562 -49h-145v-451h-72v451h-201v-451h-72v451h-52v42l52 6v72c0 65.333 11.833 113 35.5 143s66.167 45 127.5 45
c37.333 0 85.666 -12.667 144.999 -38c21.333 25.333 53.333 38 96 38c16 0 31.833 -2.5 47.5 -7.5s27.5 -9.83301 35.5 -14.5l12 -7l-10 -39c-22.667 15.333 -46.667 23 -72 23c-26 0 -44.5 -10.667 -55.5 -32s-16.5 -61 -16.5 -119v-63h145z" />
    <glyph glyph-name="uniFB01" unicode="fi" horiz-adv-x="525" 
d="M450 500v-500h-73v500h73zM257 759c55.333 0 101.998 -25.001 139.998 -75.001c4.66699 2 10.334 3 17.001 3c12.667 0 22.667 -3.33301 30 -10c8 -8.66699 12 -19.667 12 -33c0 -12 -4 -22.667 -12 -32c-9.33301 -7.33301 -19.333 -11 -30 -11
c-12 0 -21.667 3.66699 -29 11c-8.66699 8.66699 -13 19.334 -13 32.001c0 6.66699 1 12.334 3 17.001c-29.333 34.667 -64 52 -104 52c-38.667 0 -65.667 -10.833 -81 -32.5s-23 -60.834 -23 -117.501v-63h145v-49h-145v-451h-72v451h-52v42l52 6v72
c0 64.667 12.333 112.167 37 142.5s66.334 45.5 125.001 45.5z" />
    <glyph glyph-name="uniFB02" unicode="fl" horiz-adv-x="523" 
d="M447 752v-752h-72v675c-52 26 -95.667 39 -131 39c-28 0 -47.833 -11 -59.5 -33s-17.5 -61.333 -17.5 -118v-63h145v-49h-145v-451h-72v451h-52v42l52 6v72c0 125.333 43.333 188 130 188c43.333 0 93.333 -13.333 150 -40v29z" />
    <glyph glyph-name="afii10056_afii10056" unicode="&#x407;&#x407;" horiz-adv-x="548" 
d="M464 650v-650h-76v650h76zM181 650v-650h-76v650h76zM334 809c8 6.66699 16.667 10.001 26 10.001c8.66699 0 17.334 -3.33301 26.001 -10c7.33301 -8.66699 11 -18.667 11 -30c0 -10.667 -3.66699 -20.334 -11 -29.001c-8.66699 -6.66699 -17.334 -10 -26.001 -10
c-9.33301 0 -18 3.33301 -26 10c-8 8 -12 17.667 -12 29c0 12 4 22 12 30zM478 809.001c8 6.66699 16.667 10.001 26 10.001c8.66699 0 17.334 -3.33301 26.001 -10c7.33301 -8.66699 11 -18.667 11 -30c0 -10.667 -3.66699 -20.334 -11 -29.001
c-8.66699 -6.66699 -17.334 -10 -26.001 -10c-9.33301 0 -18 3.33301 -26 10c-7.33301 7.33301 -11 17 -11 29c0 12.667 3.66699 22.667 11 30zM40 809.002c8 6.66699 16.667 10.001 26 10.001c8.66699 0 17.334 -3.33301 26.001 -10c7.33301 -8.66699 11 -18.667 11 -30
c0 -10.667 -3.66699 -20.334 -11 -29.001c-8.66699 -6.66699 -17.334 -10 -26.001 -10c-9.33301 0 -18 3.33301 -26 10c-7.33301 7.33301 -11 17 -11 29c0 12.667 3.66699 22.667 11 30zM184 809.003c8 6.66699 16.667 10 26 10s18.333 -3.33301 27 -10
c6.66699 -7.33301 10 -17.333 10 -30c0 -12 -3.33301 -21.667 -10 -29c-8.66699 -6.66699 -17.667 -10 -27 -10s-18 3.33301 -26 10c-7.33301 7.33301 -11 17 -11 29c0 12.667 3.66699 22.667 11 30z" />
    <glyph glyph-name="afii10104_afii10104" unicode="&#x457;&#x457;" horiz-adv-x="438" 
d="M362 500v-500h-73v500h73zM147 500v-500h-73v500h73zM251 674c8 6.66699 16.667 10.001 26 10.001c8.66699 0 17.334 -3.33301 26.001 -10c7.33301 -8.66699 11 -18.667 11 -30c0 -10.667 -3.66699 -20.334 -11 -29.001c-8.66699 -6.66699 -17.334 -10 -26.001 -10
c-9.33301 0 -18 3.33301 -26 10c-7.33301 7.33301 -11 17 -11 29c0 12.667 3.66699 22.667 11 30zM377 674.001c8 6.66699 16.667 10.001 26 10.001c8.66699 0 17.334 -3.33301 26.001 -10c7.33301 -8.66699 11 -18.667 11 -30c0 -10.667 -3.66699 -20.334 -11 -29.001
c-8.66699 -6.66699 -17.334 -10 -26.001 -10c-9.33301 0 -18 3.33301 -26 10c-7.33301 7.33301 -11 17 -11 29c0 12.667 3.66699 22.667 11 30zM8 674.002c8 6.66699 16.667 10.001 26 10.001c8.66699 0 17.334 -3.33301 26.001 -10c7.33301 -8.66699 11 -18.667 11 -30
c0 -10.667 -3.66699 -20.334 -11 -29.001c-8.66699 -6.66699 -17.334 -10 -26.001 -10c-9.33301 0 -18 3.33301 -26 10c-7.33301 7.33301 -11 17 -11 29c0 12.667 3.66699 22.667 11 30zM134 674.003c8 6.66699 16.667 10.001 26 10.001s18.333 -3.33301 27 -10
c7.33301 -8.66699 11 -18.667 11 -30c0 -10.667 -3.66699 -20.334 -11 -29.001c-8.66699 -6.66699 -17.667 -10 -27 -10s-18 3.33301 -26 10c-7.33301 7.33301 -11 17 -11 29c0 12.667 3.66699 22.667 11 30z" />
    <glyph glyph-name="afii10103_afii10104" unicode="&#x456;&#x457;" horiz-adv-x="438" 
d="M82 676c7.33301 7.33301 17 10.998 29 10.998c12.667 0 22.667 -3.33301 30 -10c8 -8.66699 12 -19.667 12 -33c0 -12 -4 -22.667 -12 -32c-9.33301 -7.33301 -19.333 -11 -30 -11c-12 0 -21.667 3.66699 -29 11c-8.66699 8.66699 -13 19.334 -13 32.001
s4.33301 23.334 13 32.001zM362 499.998v-500h-73v500h73zM147 499.998v-500h-73v500h73zM235 673.998c8 6.66699 16.667 10.001 26 10.001s18 -3.33301 26 -10c7.33301 -8.66699 11 -18.667 11 -30c0 -10.667 -3.66699 -20.334 -11 -29.001
c-8 -6.66699 -16.667 -10 -26 -10s-18 3.33301 -26 10c-7.33301 7.33301 -11 17 -11 29c0 12.667 3.66699 22.667 11 30zM377 673.999c8 6.66699 16.667 10.001 26 10.001c8.66699 0 17.334 -3.33301 26.001 -10c7.33301 -8.66699 11 -18.667 11 -30
c0 -10.667 -3.66699 -20.334 -11 -29.001c-8.66699 -6.66699 -17.334 -10 -26.001 -10c-9.33301 0 -18 3.33301 -26 10c-7.33301 7.33301 -11 17 -11 29c0 12.667 3.66699 22.667 11 30z" />
    <glyph glyph-name="ft" unicode="ft" horiz-adv-x="596" 
d="M562 500v-49h-128v-299c0 -43.333 4.16699 -73.166 12.5 -89.499s22.833 -24.5 43.5 -24.5c12 0 23.333 1 34 3s18.667 3.66699 24 5l7 3l5 -40c-18.667 -12.667 -49.667 -19 -93 -19c-36 0 -62.667 11.167 -80 33.5s-26 59.166 -26 110.499v317h-194v-451h-72v451h-52
v42l52 6v72c0 64.667 10 112.167 30 142.5s53.667 45.5 101 45.5c16 0 31.833 -2.5 47.5 -7.5s27.5 -9.83301 35.5 -14.5l12 -7l-10 -39c-22.667 15.333 -46.667 23 -72 23c-26 0 -44.5 -10.667 -55.5 -32s-16.5 -61 -16.5 -119v-63h194l27 158h46v-158h128z" />
    <glyph glyph-name="tt" unicode="tt" horiz-adv-x="586" 
d="M552 500l-0.000976562 -49h-128v-299c0 -43.333 4.16699 -73.166 12.5 -89.499s22.833 -24.5 43.5 -24.5c12 0 23.333 1 34 3s18.667 3.66699 24 5l7 3l5 -40c-18.667 -12.667 -49.667 -19 -93 -19c-36 0 -62.667 11.167 -80 33.5s-26 59.166 -26 110.499v317h-186v-299
c0 -43.333 4.16699 -73.166 12.5 -89.499s22.833 -24.5 43.5 -24.5c12 0 23.333 1 34 3s18.334 3.66699 23.001 5l8 3l5 -40c-18.667 -12.667 -49.667 -19 -93 -19c-36 0 -62.667 11.167 -80 33.5s-26 59.166 -26 110.499v317h-52v42l52 6l27 159h46v-158h186l27 158h46
v-158h128z" />
    <glyph glyph-name="quoteright_afii10104" unicode="&#x27;&#x457;" horiz-adv-x="277" 
d="M204 500v-500h-73v500h73zM216 674c8.66699 6.66699 17.334 9.99902 26.001 9.99902c9.33301 0 18.333 -3.33301 27 -10c6.66699 -7.33301 10 -17.333 10 -30c0 -12 -3.33301 -21.667 -10 -29c-8.66699 -6.66699 -17.667 -10 -27 -10
c-8.66699 0 -17.334 3.33301 -26.001 10c-7.33301 8.66699 -11 18.334 -11 29.001c0 11.333 3.66699 21.333 11 30zM60 742.999c7.33301 6.66699 16.666 9.99902 27.999 9.99902c10.667 0 19.667 -3.33301 27 -10c0.666992 -0.666992 3 -4 7 -10
c4.66699 -8.66699 7 -19.667 7 -33c0 -31.333 -10.667 -68.166 -32 -110.499s-46 -74.833 -74 -97.5l-22 23c22 20 41.5 45.333 58.5 76s26.5 58 28.5 82c-11.333 0 -20.666 3.33301 -27.999 10c-8 8 -12 18 -12 30s4 22 12 30z" />
    <glyph glyph-name="fleuron" unicode="&#x2d;&#x2d;&#x2a;" horiz-adv-x="655" 
d="M285 401c0 -18 5.83301 -33.832 17.5 -47.499s23.167 -22.834 34.5 -27.501l17 -8h178c-13.333 50 -34 88.5 -62 115.5s-62 40.5 -102 40.5c-24 0 -43.833 -6.33301 -59.5 -19s-23.5 -30.667 -23.5 -54zM578 237.001l-32.002 -8.99609c-2.66699 24.667 -5 44 -7 58h-57
c-3.33301 -51.333 -20.166 -91.166 -50.499 -119.499s-64.166 -42.5 -101.499 -42.5c-28.667 0 -52.5 7.66699 -71.5 23s-28.5 36.666 -28.5 63.999c0 34 15 60 45 78c-71.333 8 -119.333 29.333 -144 64c-3.33301 -24.667 -5 -48 -5 -70c0 -72.667 18 -133.334 54 -182.001
s91.667 -73 167 -73c30 0 57.167 3.83301 81.5 11.5s43.166 16.834 56.499 27.501s24.5 21.334 33.5 32.001s14.833 19.667 17.5 27l5 12l19 -26c-0.666992 -2 -1.5 -4.33301 -2.5 -7s-3.83301 -8.33398 -8.5 -17.001s-10 -16.834 -16 -24.501s-14.833 -16.167 -26.5 -25.5
s-24.667 -17.333 -39 -24s-32.166 -12.334 -53.499 -17.001s-44.666 -7 -69.999 -7c-48.667 0 -91.334 8.5 -128.001 25.5s-65 39.667 -85 68s-34.833 58.833 -44.5 91.5s-14.5 67 -14.5 103c0 34.667 3.5 68.5 10.5 101.5s13.667 57.167 20 72.5s11.5 25.666 15.5 30.999
l47 3c4 2 6.66699 3 8 3c-8.66699 -12.667 -17.334 -35 -26.001 -67c0 -26 8.5 -47.333 25.5 -64s47.5 -28.334 91.5 -35.001c-18.667 23.333 -28 49.333 -28 78c0 34 11 60.667 33 80s52 29 90 29c64 0 115.333 -24.5 154 -73.5s60.334 -115.5 65.001 -199.5z" />
    <glyph glyph-name="doubleline" unicode="&#x2d;&#x2d;&#x2d;" horiz-adv-x="1022" 
d="M369 442c-18.667 0 -34.167 -5.50098 -46.5 -16.501s-19.833 -23.5 -22.5 -37.5c29.333 -18.667 62.833 -44.5 100.5 -77.5s70.167 -63 97.5 -90s55.333 -50.667 84 -71s52.334 -30.5 71.001 -30.5s34 5.5 46 16.5s19.333 23.833 22 38.5
c-36 22.667 -79.167 57.334 -129.5 104.001s-94.333 85.667 -132 117s-67.834 47 -90.501 47zM58 280.999l-27.998 -0.000976562c0 42.667 12.667 78.334 38 107.001s61.666 43 108.999 43c28.667 0 60.667 -9.33301 96 -28c5.33301 26 17.666 49 36.999 69s44.333 30 75 30
c22.667 0 50 -11 82 -33s64.5 -48.5 97.5 -79.5l100 -93c33.667 -31 68 -57.5 103 -79.5s65.833 -33 92.5 -33c32 0 57.167 9.5 75.5 28.5s27.5 41.833 27.5 68.5h29c0 -42 -12.5 -77.5 -37.5 -106.5s-60.833 -43.5 -107.5 -43.5c-32 0 -65 9.33301 -99 28
c-4.66699 -26 -16.5 -49 -35.5 -69s-43.833 -30 -74.5 -30c-22.667 0 -50 10.833 -82 32.5s-64.667 48 -98 79l-100.5 93.5c-33.667 31.333 -68 57.833 -103 79.5s-65.833 32.5 -92.5 32.5c-32 0 -57.333 -9.5 -76 -28.5s-28 -41.5 -28 -67.5z" />
    <glyph glyph-name="fleuron.01.001" unicode="&#x2a;&#x2d;&#x2d;" horiz-adv-x="655" 
d="M301 182l-178 -0.000976562c13.333 -50 34 -88.5 62 -115.5s62 -40.5 102 -40.5c24 0 43.833 6.33301 59.5 19s23.5 30.667 23.5 54c0 18 -5.66699 33.833 -17 47.5s-23 22.834 -35 27.501zM77 263.999l32.001 7.99609c0.666992 -20 2.66699 -39 6 -57h57
c4 51.333 21.167 91 51.5 119s64.166 42 101.499 42c28.667 0 52.5 -7.66699 71.5 -23s28.5 -36.333 28.5 -63c0 -33.333 -14.667 -59.666 -44 -78.999c70.667 -8 118 -29.333 142 -64c4 22 6 45.667 6 71c0 72.667 -18 133.334 -54 182.001s-91.667 73 -167 73
c-30 0 -57.167 -3.83301 -81.5 -11.5s-43.166 -16.834 -56.499 -27.501s-24.5 -21.5 -33.5 -32.5s-15.167 -20.167 -18.5 -27.5l-4 -12l-19 26c0.666992 2 1.5 4.33301 2.5 7s3.83301 8.33398 8.5 17.001s10 16.834 16 24.501s14.833 16.167 26.5 25.5s24.667 17.333 39 24
s32.166 12.334 53.499 17.001s44.666 7 69.999 7c48.667 0 91.334 -8.33301 128.001 -25s65 -39.334 85 -68.001s34.833 -59.167 44.5 -91.5s14.5 -66.833 14.5 -103.5c0 -34.667 -3.5 -68.334 -10.5 -101.001s-13.667 -56.667 -20 -72s-11.5 -25.666 -15.5 -30.999l-46 -4
c-4 -2 -7 -3 -9 -3c6 8 14.667 30 26 66c0 26 -8.5 47.333 -25.5 64s-47.5 28.334 -91.5 35.001c18.667 -23.333 28 -49 28 -77c0 -33.333 -11.167 -59.833 -33.5 -79.5s-52.166 -29.5 -89.499 -29.5c-64 0 -115.333 24.667 -154 74s-60.334 116 -65.001 200z" />
    <glyph glyph-name=".notdef" horiz-adv-x="632" 
d="M396 436v50h140v-147h-55v97h-85zM236 486v-50h-85v-97h-55v147h140zM151 186v-96h85v-51h-140v147h55zM396 39v51h85v96h55v-147h-140z" />
    <glyph glyph-name="space" unicode=" " horiz-adv-x="233" 
 />
    <glyph glyph-name="exclam" unicode="!" horiz-adv-x="276" 
d="M108 71c9.33301 8 19.666 12 30.999 12c12.667 0 23.334 -4 32.001 -12c8.66699 -8.66699 13 -20 13 -34s-4.33301 -25.333 -13 -34c-8.66699 -8 -19.334 -12 -32.001 -12c-11.333 0 -21.666 4 -30.999 12c-9.33301 8.66699 -14 20 -14 34s4.66699 25.333 14 34zM180 750
v-83l-19 -455h-44l-18 455v83h81z" />
    <glyph glyph-name="quotedbl" unicode="&#x22;" horiz-adv-x="299" 
d="M242 748l-22 -230h-41l-4 232zM101 748l-22 -230h-41l-4 232z" />
    <glyph glyph-name="numbersign" unicode="#" horiz-adv-x="480" 
d="M200 389l-27 -130h105l27 130h-105zM374 547l-24 -116h80v-42h-89l-27 -130h116v-41h-125l-28 -138l-34 10l26 128h-105l-26 -127l-34 10l24 117h-79v41h88l27 130h-115v42h124l29 137l34 -10l-27 -127h104l27 126z" />
    <glyph glyph-name="dollar" unicode="$" horiz-adv-x="408" 
d="M36 130l25.0049 34.9932c3.33301 -4.66699 8 -10.667 14 -18s19.833 -17 41.5 -29s45.167 -18 70.5 -18c37.333 0 65.5 9.33301 84.5 28s28.5 41.334 28.5 68.001c0 24.667 -8.33301 44.334 -25 59.001s-37 26 -61 34s-47.833 16.667 -71.5 26s-43.834 24 -60.501 44
s-25 46 -25 78c0 36 11.167 65.833 33.5 89.5s52.5 38.834 90.5 45.501l5 128h42l6 -125c20 -0.666992 40.167 -4.16699 60.5 -10.5s35.5 -12.5 45.5 -18.5l15 -9l-12 -43c-35.333 26.667 -73.333 40 -114 40c-30.667 0 -55.5 -7.66699 -74.5 -23
s-28.5 -34.666 -28.5 -57.999c0 -24.667 8.66699 -44.667 26 -60s38.166 -27.166 62.499 -35.499s48.666 -17.166 72.999 -26.499s45.166 -24.166 62.499 -44.499s26 -46.5 26 -78.5c0 -38.667 -12 -71.834 -36 -99.501s-59.333 -44.5 -106 -50.5l-4 -108h-42l-6 106
c-20 1.33301 -38.667 4.83301 -56 10.5s-31.333 12 -42 19s-19.834 13.833 -27.501 20.5s-13.167 12.334 -16.5 17.001z" />
    <glyph glyph-name="percent" unicode="%" horiz-adv-x="802" 
d="M695 175c0 47.333 -8.50098 83.498 -25.501 108.498s-40.833 37.5 -71.5 37.5c-64.667 0 -97 -48.667 -97 -146c0 -47.333 8.33301 -83.666 25 -108.999s40.334 -38 71.001 -38c31.333 0 55.5 12.833 72.5 38.5s25.5 61.834 25.5 108.501zM754.999 173.998
c0 -57.333 -14 -102.998 -42 -136.998s-66.333 -51 -115 -51c-50 0 -88.667 17 -116 51s-41 79.667 -41 137s14 103.166 42 137.499s66.333 51.5 115 51.5c48 0 86.167 -17.333 114.5 -52s42.5 -80.334 42.5 -137.001zM301.999 475
c0 47.333 -8.50098 83.498 -25.501 108.498s-40.833 37.5 -71.5 37.5c-64.667 0 -97 -48.667 -97 -146c0 -47.333 8.33301 -83.666 25 -108.999s40.334 -38 71.001 -38c31.333 0 55.5 12.833 72.5 38.5s25.5 61.834 25.5 108.501zM361.998 473.998
c0 -57.333 -14 -102.998 -42 -136.998s-66.333 -51 -115 -51c-50 0 -88.667 17 -116 51s-41 79.667 -41 137s14 103.166 42 137.499s66.333 51.5 115 51.5c48 0 86.167 -17.333 114.5 -52s42.5 -80.334 42.5 -137.001zM559.998 631l-281 -629l-43 10l281 629z" />
    <glyph glyph-name="ampersand" unicode="&#x26;" horiz-adv-x="603" 
d="M374 103c-0.666992 6 -0.999023 16.333 -0.999023 31v179h-134c-30.667 -1.33301 -57.5 -14 -80.5 -38s-34.5 -57 -34.5 -99c0 -93.333 45 -140 135 -140c55.333 0 93.666 22.333 114.999 67zM570.001 356v-42.999h-129v-175c0 -40 5 -67 15 -81s26.667 -21 50 -21
c12 0 23.667 1 35 3s19.666 4.33301 24.999 7l8 3l2 -40c-18 -12.667 -48.667 -19 -92 -19c-52 0 -85 19.667 -99 59c-31.333 -39.333 -77 -59 -137 -59c-68 0 -118.333 17 -151 51s-49 78.667 -49 134c0 42 12.333 76.5 37 103.5s55 46.167 91 57.5
c-27.333 13.333 -50 32.666 -68 57.999s-27 57 -27 95c0 51.333 15.833 92.5 47.5 123.5s74.834 46.5 129.501 46.5c20.667 0 41.5 -2.5 62.5 -7.5s36.833 -10.167 47.5 -15.5l16 -8l-8 -43c-30 19.333 -64.333 29 -103 29c-38 0 -67.167 -11.5 -87.5 -34.5
s-30.5 -54.833 -30.5 -95.5c0 -42 9.83301 -73.833 29.5 -95.5s42.167 -32.5 67.5 -32.5h123l33 144h33v-144h129z" />
    <glyph glyph-name="quotesingle" unicode="'" horiz-adv-x="158" 
d="M101 748l-22 -230h-41l-4 232z" />
    <glyph glyph-name="parenleft" unicode="(" horiz-adv-x="307" 
d="M228 728l37.999 -20.999c-3.33301 -4 -7.33301 -9.83301 -12 -17.5s-13.5 -25 -26.5 -52s-24.333 -55.833 -34 -86.5s-18.5 -71.334 -26.5 -122.001s-12 -103 -12 -157c0 -54.667 3.83301 -106.834 11.5 -156.501s16.834 -90.334 27.501 -122.001s21.5 -59.5 32.5 -83.5
s20.167 -41.333 27.5 -52l12 -16l-36 -21c-4 4 -9.16699 9.83301 -15.5 17.5s-17.833 25.167 -34.5 52.5s-31.5 56.833 -44.5 88.5s-24.667 73.834 -35 126.501s-15.5 108 -15.5 166s4.83301 113.167 14.5 165.5s21.5 95.333 35.5 129s28.167 63.334 42.5 89.001
s26.5 44.167 36.5 55.5z" />
    <glyph glyph-name="parenright" unicode=")" horiz-adv-x="307" 
d="M77 -179l-37 21.002c3.33301 4 7.33301 9.83301 12 17.5s13.5 25.167 26.5 52.5s24.333 56.333 34 87s18.5 71.167 26.5 121.5s12 102.5 12 156.5s-3.83301 105.667 -11.5 155s-16.834 90 -27.501 122s-21.5 60 -32.5 84s-20.167 41.333 -27.5 52l-12 17l37 21
c4 -4 9.16699 -9.83301 15.5 -17.5s17.833 -25.167 34.5 -52.5s31.334 -56.833 44.001 -88.5s24.167 -73.834 34.5 -126.501s15.5 -108 15.5 -166s-5 -113.167 -15 -165.5s-22 -95.333 -36 -129s-28 -63.334 -42 -89.001s-26 -44.167 -36 -55.5z" />
    <glyph glyph-name="asterisk" unicode="*" horiz-adv-x="393" 
d="M40 597l143 -79l-20 186h67l-22 -186l145 79l20 -70l-157 -36l111 -137l-55 -44l-76 162l-76 -162l-54 44l110 136l-157 37z" />
    <glyph glyph-name="plus" unicode="+" horiz-adv-x="408" 
d="M227 475v-174h146v-47h-146v-174h-44v174h-149v47h149v174h44z" />
    <glyph glyph-name="comma" unicode="," horiz-adv-x="226" 
d="M81 89c7.33301 6.66699 16.667 10 28 10c12 0 21.667 -3.33301 29 -10l5 -7c7.33301 -10.667 11 -26.667 11 -48c0 -32 -8.33301 -67.333 -25 -106s-37.667 -68.334 -63 -89.001l-21 22c20.667 19.333 37.334 43.833 50.001 73.5s18.667 56.834 18 81.501h-3
c-10.667 0 -20.334 3.66699 -29.001 11c-8 8 -12 18.333 -12 31c0 12 4 22.333 12 31z" />
    <glyph glyph-name="hyphen" unicode="-" horiz-adv-x="297" 
d="M263 301v-47h-229v47h229z" />
    <glyph glyph-name="period" unicode="." horiz-adv-x="243" 
d="M89 71c8.66699 8 19 12 31 12s22.667 -4 32 -12c8.66699 -8.66699 13 -20 13 -34s-4.33301 -25.333 -13 -34c-9.33301 -8 -20 -12 -32 -12s-22.333 4 -31 12c-9.33301 8.66699 -14 20 -14 34s4.66699 25.333 14 34z" />
    <glyph glyph-name="slash" unicode="/" horiz-adv-x="417" 
d="M376 750h55l-374 -1000h-56z" />
    <glyph glyph-name="zero" unicode="0" horiz-adv-x="562" 
d="M281 613c-49.333 0 -85.833 -23.332 -109.5 -69.999s-35.5 -119.667 -35.5 -219c0 -100 11.833 -173 35.5 -219s60.167 -69 109.5 -69s85.833 23.167 109.5 69.5s35.5 119.166 35.5 218.499s-12 172.333 -36 219s-60.333 70 -109 70zM281 659.001
c74.667 0 130.834 -29.333 168.501 -88s56.5 -141 56.5 -247s-18.833 -188.167 -56.5 -246.5s-93.834 -87.5 -168.501 -87.5s-130.834 29.167 -168.501 87.5s-56.5 140.5 -56.5 246.5s18.833 188.333 56.5 247s93.834 88 168.501 88z" />
    <glyph glyph-name="one" unicode="1" horiz-adv-x="369" 
d="M199 650h60v-650h-72v592l-120 -67l-17 39z" />
    <glyph glyph-name="two" unicode="2" horiz-adv-x="475" 
d="M429 68l0.00195312 -68.0039h-386v60c7.33301 2.66699 21.166 12.334 41.499 29.001s44.666 39.334 72.999 68.001s55.333 59.5 81 92.5s47.5 69.5 65.5 109.5s27 77.667 27 113c0 47.333 -9.5 82.166 -28.5 104.499s-51.5 33.5 -97.5 33.5
c-22 0 -44.833 -4.66699 -68.5 -14s-41.834 -18.666 -54.501 -27.999l-19 -13l-8 45c5.33301 4.66699 12.833 10.167 22.5 16.5s28.5 15 56.5 26s55.333 16.5 82 16.5c66.667 0 115.834 -16.167 147.501 -48.5s47.5 -76.5 47.5 -132.5c0 -38.667 -10 -79 -30 -121
s-46.5 -81.667 -79.5 -119s-63.5 -69.166 -91.5 -95.499s-57.333 -51.166 -88 -74.499h307z" />
    <glyph glyph-name="three" unicode="3" horiz-adv-x="475" 
d="M172 306l-26.001 30l184 245h-261l4 69h327v-47l-180 -235c8 2 17 3 27 3c53.333 0 96.5 -16.5 129.5 -49.5s49.5 -76.833 49.5 -131.5c0 -62 -19.667 -110.833 -59 -146.5s-90.333 -53.5 -153 -53.5c-36 0 -68.5 6 -97.5 18s-49.167 24 -60.5 36l-17 17l24 39
c4 -4.66699 9.83301 -10.5 17.5 -17.5s23.834 -16.167 48.501 -27.5s50.334 -17 77.001 -17c47.333 0 83.166 13 107.499 39s36.5 63.667 36.5 113c0 44 -10.167 78 -30.5 102s-50.166 36 -89.499 36c-10 0 -19.833 -1.83301 -29.5 -5.5s-16.834 -7.16699 -21.501 -10.5z
" />
    <glyph glyph-name="four" unicode="4" horiz-adv-x="492" 
d="M193 659l69.001 -8.99902c-37.333 -142.667 -96 -289.667 -176 -441h229l17 346h57v-346h71v-40l-71 -5v-164h-74v164h-280l-5 38c61.333 121.333 115.666 273.666 162.999 456.999z" />
    <glyph glyph-name="five" unicode="5" horiz-adv-x="465" 
d="M390 650l-3 -70h-231l-17 -195c23.333 8.66699 47.333 13 72 13c62.667 0 113.167 -17.333 151.5 -52s57.5 -81.667 57.5 -141c0 -66 -22 -118.333 -66 -157s-98.333 -58 -163 -58c-21.333 0 -41.666 2.33301 -60.999 7s-35 10.5 -47 17.5s-22.5 14 -31.5 21
s-15.5 12.833 -19.5 17.5l-6 7l26 37c3.33301 -4.66699 8.33301 -10.167 15 -16.5s21.667 -15 45 -26s48.333 -16.5 75 -16.5c48.667 0 87 14.5 115 43.5s42 69.833 42 122.5c0 46.667 -12.667 83.667 -38 111s-59 41 -101 41c-20.667 0 -38.834 -3.16699 -54.501 -9.5
s-26.167 -12.5 -31.5 -18.5l-1 -3l-30 4l30 321h272z" />
    <glyph glyph-name="six" unicode="6" horiz-adv-x="517" 
d="M264 369c-53.333 0 -96.001 -24.332 -128.001 -72.999l1 -1c-3.33301 -16.667 -5 -39.334 -5 -68.001c0 -128.667 45.333 -193 136 -193c43.333 0 75 16.167 95 48.5s30 74.5 30 126.5c0 48 -10.667 86.667 -32 116s-53.666 44 -96.999 44zM404.999 625.001l-10 -44.001
c-35.333 21.333 -72.666 32 -111.999 32c-97.333 0 -149 -88.333 -155 -265c40 41.333 88.333 62 145 62c60.667 0 108.5 -18.333 143.5 -55s52.5 -85.667 52.5 -147c0 -62.667 -17.333 -114.667 -52 -156s-84.334 -62 -149.001 -62c-68 0 -120.333 22.333 -157 67
s-55 109 -55 193c0 26.667 1 51 3 73c6.66699 112.667 29 196.834 67 252.501s88.333 83.5 151 83.5c20.667 0 41.667 -2.83301 63 -8.5s37.333 -11.167 48 -16.5z" />
    <glyph glyph-name="seven" unicode="7" horiz-adv-x="421" 
d="M402 650v-60.001c-44 -82 -86.167 -178 -126.5 -288s-69.5 -210.667 -87.5 -302h-79c32.667 150.667 109.667 343.334 231 578.001h-299v72h361z" />
    <glyph glyph-name="eight" unicode="8" horiz-adv-x="502" 
d="M138 490c0 -26.667 4.00195 -49.668 12.002 -69.001s18.667 -33.666 32 -42.999s25.5 -16 36.5 -20s22.167 -6.66699 33.5 -8c10.667 0.666992 21.167 3 31.5 7s22.166 10.5 35.499 19.5s24.166 23.167 32.499 42.5s12.5 42.333 12.5 69c0 86.667 -37.667 130 -113 130
s-113 -42.667 -113 -128zM374.002 170.999c0 27.333 -4.66699 50.8311 -14 70.498s-21.5 34.167 -36.5 43.5s-28.333 16 -40 20s-23.5 6.66699 -35.5 8c-11.333 -1.33301 -22.5 -4 -33.5 -8s-23.667 -10.667 -38 -20s-26 -23.666 -35 -42.999s-13.5 -42.666 -13.5 -69.999
c0 -94 41 -141 123 -141s123 46.667 123 140zM442.002 489.997c0 -78 -40.667 -130.333 -122 -157c90 -24 135 -79 135 -165c0 -60.667 -18 -105.5 -54 -134.5s-86 -43.5 -150 -43.5s-113.833 14.667 -149.5 44s-53.5 74.666 -53.5 135.999c0 78.667 44 132.667 132 162
c-79.333 24.667 -119 78.334 -119 161.001c0 52 17 92.667 51 122s80.333 44 139 44s105.167 -14.833 139.5 -44.5s51.5 -71.167 51.5 -124.5z" />
    <glyph glyph-name="nine" unicode="9" horiz-adv-x="517" 
d="M253 268c36 0 64.8311 9.16699 86.498 27.5s35.5 37.5 41.5 57.5c2 18 3 41 3 69c0 64.667 -10.167 113 -30.5 145s-53.166 48 -98.499 48c-43.333 0 -76 -17.333 -98 -52s-33 -77.667 -33 -129c0 -48.667 10.833 -88.5 32.5 -119.5s53.834 -46.5 96.501 -46.5z
M94.998 38l18.999 43c2.66699 -3.33301 7 -7.5 13 -12.5s18.833 -11.667 38.5 -20s40.5 -12.5 62.5 -12.5c46.667 0 84.334 21.5 113.001 64.5s44.334 107.833 47.001 194.5c-34.667 -45.333 -82.667 -68 -144 -68c-60 0 -107.667 18.667 -143 56s-53 86.666 -53 147.999
c0 62.667 18.333 116.334 55 161.001s87.334 67 152.001 67c67.333 0 118.5 -22.333 153.5 -67s52.5 -109 52.5 -193c0 -32 -0.666992 -55.333 -2 -70c-4.66699 -110 -27.834 -194 -69.501 -252s-94.5 -87 -158.5 -87c-28.667 0 -54.334 4 -77.001 12s-38 16 -46 24z" />
    <glyph glyph-name="colon" unicode=":" horiz-adv-x="245" 
d="M89 71c8.66699 8 19 12 31 12s22.667 -4 32 -12c8.66699 -8.66699 13 -20 13 -34s-4.33301 -25.333 -13 -34c-9.33301 -8 -20 -12 -32 -12s-22.333 4 -31 12c-9.33301 8.66699 -14 20 -14 34s4.66699 25.333 14 34zM89 450c8.66699 8 19 12 31 12s22.667 -4 32 -12
c8.66699 -8.66699 13 -20 13 -34s-4.33301 -25.333 -13 -34c-9.33301 -8 -20 -12 -32 -12s-22.333 4 -31 12c-9.33301 8.66699 -14 20 -14 34s4.66699 25.333 14 34z" />
    <glyph glyph-name="semicolon" unicode=";" horiz-adv-x="243" 
d="M89 450c8.66699 8 19 12 31 12s22.667 -4 32 -12c8.66699 -8.66699 13 -20 13 -34s-4.33301 -25.333 -13 -34c-9.33301 -8 -20 -12 -32 -12s-22.333 4 -31 12c-9.33301 8.66699 -14 20 -14 34s4.66699 25.333 14 34zM91 89c7.33301 6.66699 16.667 10 28 10
c12 0 21.667 -3.33301 29 -10l5 -7c7.33301 -10.667 11 -26.667 11 -48c0 -32 -8.33301 -67.333 -25 -106s-37.667 -68.334 -63 -89.001l-21 22c20.667 19.333 37.334 43.833 50.001 73.5s18.667 56.834 18 81.501h-3c-10.667 0 -20.334 3.66699 -29.001 11
c-8 8 -12 18.333 -12 31c0 12 4 22.333 12 31z" />
    <glyph glyph-name="less" unicode="&#x3c;" horiz-adv-x="368" 
d="M327 147l-26 -29l-240 200l240 199l25 -29l-196 -170z" />
    <glyph glyph-name="equal" unicode="=" horiz-adv-x="470" 
d="M436 396v-47h-402v47h402zM436 206v-47h-402v47h402z" />
    <glyph glyph-name="greater" unicode="&#x3e;" horiz-adv-x="368" 
d="M42 488l25 29l241 -199l-241 -200l-25 29l194 171z" />
    <glyph glyph-name="question" unicode="?" horiz-adv-x="411" 
d="M115 71c8.66699 8 19 12 31 12s22.667 -4 32 -12c8.66699 -8.66699 13 -20 13 -34s-4.33301 -25.333 -13 -34c-9.33301 -8 -20 -12 -32 -12s-22.333 4 -31 12c-9.33301 8.66699 -14 20 -14 34s4.66699 25.333 14 34zM48 662l-8.00293 42.999c4 4 9.83301 9 17.5 15
s24.834 14 51.501 24s54.667 15 84 15c58 0 101.667 -16.333 131 -49s44 -72 44 -118c0 -31.333 -5.16699 -59 -15.5 -83s-23.333 -42.5 -39 -55.5l-51 -41.5l-51 -42c-15.667 -13.333 -28.667 -31.833 -39 -55.5s-15.5 -51.167 -15.5 -82.5
c0 -9.33301 0.333008 -16.666 1 -21.999l-31 -3c-3.33301 18.667 -5 38.667 -5 60c0 32 5.66699 59.5 17 82.5s25 41.5 41 55.5l48 41.5c16 13.667 29.667 31.834 41 54.501s17 49.667 17 81c0 39.333 -9 71 -27 95s-46 36 -84 36c-15.333 0 -30.166 -1.83301 -44.499 -5.5
s-26.166 -7.83398 -35.499 -12.501s-17.833 -9.5 -25.5 -14.5s-13.167 -9.16699 -16.5 -12.5z" />
    <glyph glyph-name="at" unicode="@" horiz-adv-x="831" 
d="M424 23c43.333 0 73.999 22.333 91.999 67v230c-15.333 34.667 -44.666 52 -87.999 52c-40 0 -70.167 -16 -90.5 -48s-30.5 -77 -30.5 -135c0 -110.667 39 -166 117 -166zM607.999 -13c-50 0 -79.3311 17.998 -87.998 53.998c-23.333 -36.667 -60 -55 -110 -55
s-90 17 -120 51s-45 84.667 -45 152c0 64.667 16.167 117.334 48.5 158.001s74.833 61 127.5 61c40 0 73.333 -13.333 100 -40l14 26h32v-304c0 -25.333 4 -42.833 12 -52.5s19.667 -14.5 35 -14.5c30.667 0 56.5 19.667 77.5 59s31.5 106 31.5 200
c0 102.667 -23.333 180.167 -70 232.5s-115.667 78.5 -207 78.5c-103.333 0 -183.333 -33.667 -240 -101s-85 -168.666 -85 -303.999c0 -122.667 27.667 -215.5 83 -278.5s132 -94.5 230 -94.5c30 0 58.167 3.33301 84.5 10s47.833 14.667 64.5 24
s31.167 18.666 43.5 27.999s21.166 17.333 26.499 24l8 10l19 -36l-8.5 -11c-3.66699 -4.66699 -12.5 -13.167 -26.5 -25.5s-29.5 -23 -46.5 -32s-40.333 -17.333 -70 -25s-61.167 -11.5 -94.5 -11.5c-122.667 0 -216.334 36.167 -281.001 108.5s-97 175.5 -97 309.5
c0 140 33.5 249.333 100.5 328s163.5 118 289.5 118c108 0 190.833 -30.667 248.5 -92s86.5 -147.333 86.5 -258c0 -101.333 -16.333 -176.166 -49 -224.499s-74 -72.5 -124 -72.5z" />
    <glyph glyph-name="A" unicode="A" horiz-adv-x="568" 
d="M273 592l-115 -351h228zM242 650h89l215 -650h-79l-68 200h-255l-68 -200h-53z" />
    <glyph glyph-name="B" unicode="B" horiz-adv-x="542" 
d="M170 356l118.002 -0.000976562c23.333 0 46.166 10 68.499 30s33.5 52.333 33.5 97c0 40.667 -12.333 71.334 -37 92.001s-57.334 31 -98.001 31h-85v-250zM292.002 314.999h-122v-271h86c108.667 0 163 47.667 163 143c0 42.667 -11.667 74.667 -35 96s-54 32 -92 32z
M94.002 -0.000976562v650.003h164c65.333 0 115.833 -14.833 151.5 -44.5s53.5 -68.834 53.5 -117.501c0 -65.333 -31.333 -114.333 -94 -147c38.667 -10.667 69.167 -29.334 91.5 -56.001s33.5 -60.334 33.5 -101.001c0 -58.667 -19.5 -104 -58.5 -136
s-97.833 -48 -176.5 -48h-165z" />
    <glyph glyph-name="C" unicode="C" horiz-adv-x="570" 
d="M510 556c-6.66699 4 -15.499 8.99512 -26.499 14.9951s-31.833 13.833 -62.5 23.5s-59 14.5 -85 14.5c-64.667 0 -115.334 -24.5 -152.001 -73.5s-55 -120.5 -55 -214.5c0 -92.667 18.667 -162.667 56 -210s89.666 -71 156.999 -71c22.667 0 44.167 3.33301 64.5 10
s37.333 14.834 51 24.501s25.5 19.334 35.5 29.001s17.333 17.834 22 24.501l7 10l28 -32c-2 -3.33301 -4.66699 -7.5 -8 -12.5s-11.333 -14.167 -24 -27.5s-26.667 -25.166 -42 -35.499s-35.833 -19.666 -61.5 -27.999s-52.834 -12.5 -81.501 -12.5
c-90 0 -160 29.167 -210 87.5s-75 138.833 -75 241.5c0 104 25.333 186.667 76 248s118.667 92 204 92c30.667 0 61.834 -4.5 93.501 -13.5s55.834 -18.167 72.501 -27.5l25 -14z" />
    <glyph glyph-name="D" unicode="D" horiz-adv-x="634" 
d="M292 602h-122v-554h123c141.333 0 212 91.667 212 275c0 186 -71 279 -213 279zM94 0v649.999h198c93.333 0 165.833 -28.167 217.5 -84.5s77.5 -137.166 77.5 -242.499c0 -104.667 -25.5 -184.667 -76.5 -240s-123.833 -83 -218.5 -83h-198z" />
    <glyph glyph-name="E" unicode="E" horiz-adv-x="507" 
d="M466 48v-48h-372v650h350v-48h-274v-250h251v-46h-251v-258h296z" />
    <glyph glyph-name="F" unicode="F" horiz-adv-x="464" 
d="M412 343v-46h-242v-297h-76v650h357v-48h-281v-259h242z" />
    <glyph glyph-name="G" unicode="G" horiz-adv-x="620" 
d="M543 338l-0.00292969 -338.001h-37l-19 71c-37.333 -54 -94.666 -81 -171.999 -81c-84.667 0 -150.334 29.333 -197.001 88s-70 140.334 -70 245.001c0 106 25.333 188.5 76 247.5s122.334 88.5 215.001 88.5c30.667 0 61.834 -4.5 93.501 -13.5
s55.834 -18.167 72.501 -27.5l25 -14l-9 -48c-6.66699 4 -15.5 9 -26.5 15s-31.833 13.833 -62.5 23.5s-59 14.5 -85 14.5c-74 0 -128.833 -23.833 -164.5 -71.5s-53.5 -119.167 -53.5 -214.5c0 -93.333 17.333 -163.833 52 -211.5s83 -71.5 145 -71.5
c27.333 0 51.333 4.33301 72 13s36.5 20 47.5 34s18.667 25.5 23 34.5s7.83301 17.833 10.5 26.5v147h-133v43h197z" />
    <glyph glyph-name="H" unicode="H" horiz-adv-x="638" 
d="M543 650v-650h-76v312h-297v-312h-76v650h76v-292h297v292h76z" />
    <glyph glyph-name="I" unicode="I" horiz-adv-x="265" 
d="M170 650v-650h-76v650h76z" />
    <glyph glyph-name="J" unicode="J" horiz-adv-x="362" 
d="M26 71c2 -2.66699 4.66699 -5.83203 8 -9.49902s12 -8.5 26 -14.5s29.667 -9 47 -9c62 0 93 51 93 153v459h75v-459c0 -74.667 -13.333 -126.834 -40 -156.501s-63.667 -44.5 -111 -44.5c-27.333 0 -50.833 3.5 -70.5 10.5s-32.5 14.167 -38.5 21.5l-9 10z" />
    <glyph glyph-name="K" unicode="K" horiz-adv-x="580" 
d="M94 0v650h76v-354l79 70l219 284h61l-228 -290l259 -360h-95l-220 302l-75 -63v-239h-76z" />
    <glyph glyph-name="L" unicode="L" horiz-adv-x="471" 
d="M459 48v-48h-365v650h76v-602h289z" />
    <glyph glyph-name="M" unicode="M" horiz-adv-x="835" 
d="M738 650l3 -650h-74l-3 557h-1l-225 -557h-61l-226 557l-2 -557h-55l3 650l2 -3l-1 3h93l229 -557h1l229 557h88z" />
    <glyph glyph-name="N" unicode="N" horiz-adv-x="651" 
d="M557 650v-650h-66l-346 554h-1l5 -31v-523h-55v650h79l332 -536l-3 24v512h55z" />
    <glyph glyph-name="O" unicode="O" horiz-adv-x="654" 
d="M525 324c0 92.667 -17.167 163.667 -51.5 213s-83.5 74 -147.5 74c-63.333 0 -112 -24.667 -146 -74s-51 -120.333 -51 -213c0 -93.333 16.833 -164.333 50.5 -213s82.5 -73 146.5 -73s113.167 24.333 147.5 73s51.5 119.667 51.5 213zM606 324
c0 -104 -24.667 -185.667 -74 -245s-118 -89 -206 -89c-87.333 0 -155.5 29.667 -204.5 89s-73.5 141 -73.5 245c0 103.333 24.5 185 73.5 245s117.167 90 204.5 90s155.833 -30 205.5 -90s74.5 -141.667 74.5 -245z" />
    <glyph glyph-name="P" unicode="P" horiz-adv-x="496" 
d="M242 606h-72v-336h71c93.333 0 140 57 140 171c0 110 -46.333 165 -139 165zM94 0v650.001h156c66.667 0 118.5 -17.333 155.5 -52s55.5 -86 55.5 -154c0 -74.667 -20.5 -129.334 -61.5 -164.001s-90.167 -52 -147.5 -52h-82v-228h-76z" />
    <glyph glyph-name="Q" unicode="Q" horiz-adv-x="654" 
d="M525 324c0 92 -17.333 162.833 -52 212.5s-83.667 74.5 -147 74.5s-112 -24.833 -146 -74.5s-51 -120.5 -51 -212.5c0 -92.667 17 -163.5 51 -212.5s82.667 -73.5 146 -73.5c64 0 113.167 24.5 147.5 73.5s51.5 119.833 51.5 212.5zM563 -149
c-16 -6.66699 -33.6689 -10 -53.002 -10c-39.333 0 -78.166 14 -116.499 42s-69.166 64 -92.499 108c-80 5.33301 -142.167 37.5 -186.5 96.5s-66.5 137.833 -66.5 236.5c0 103.333 24.5 185 73.5 245s117.167 90 204.5 90c88 0 156.667 -29.333 206 -88s74 -140 74 -244
c0 -92.667 -20 -168.5 -60 -227.5s-96 -94.167 -168 -105.5c48.667 -74 97.667 -111 147 -111c11.333 0 22.333 2 33 6z" />
    <glyph glyph-name="R" unicode="R" horiz-adv-x="539" 
d="M242 606l-72 -0.000976562v-320h81c43.333 0 76 12.333 98 37s33 66.334 33 125.001c0 105.333 -46.667 158 -140 158zM251 649.999c66 0 117.667 -17.167 155 -51.5s56 -83.5 56 -147.5c0 -51.333 -11 -93.333 -33 -126s-51 -56 -87 -70l163 -255h-87l-149 241h-99v-241
h-76v650h157z" />
    <glyph glyph-name="S" unicode="S" horiz-adv-x="490" 
d="M419 603l-10.002 -44.001c-4 4 -9.83301 9 -17.5 15s-23.667 14 -48 24s-49.166 15 -74.499 15c-37.333 0 -66.666 -10.333 -87.999 -31s-32 -48.667 -32 -84c0 -30.667 10.167 -56 30.5 -76s44.833 -35.667 73.5 -47s57.334 -23.5 86.001 -36.5
s53.167 -32.833 73.5 -59.5s30.5 -60.334 30.5 -101.001c0 -55.333 -18.833 -100.5 -56.5 -135.5s-87.834 -52.5 -150.501 -52.5c-27.333 0 -52.666 3 -75.999 9s-41.833 13 -55.5 21s-25.334 16.167 -35.001 24.5s-16.167 15.5 -19.5 21.5l-6 9l25 39l5.5 -8
c2.33301 -3.33301 8.16602 -9.33301 17.499 -18s19.666 -16.334 30.999 -23.001s26.833 -12.667 46.5 -18s40.834 -8 63.501 -8c42 0 75 12.167 99 36.5s36 54.5 36 90.5c0 30.667 -10.167 56 -30.5 76s-44.833 35.833 -73.5 47.5l-86 36.5
c-28.667 12.667 -53.167 31.834 -73.5 57.501s-30.5 57.834 -30.5 96.501c0 54.667 17.333 98.167 52 130.5s81 48.5 139 48.5c28.667 0 55.834 -4.66699 81.501 -14s44.167 -18.666 55.5 -27.999z" />
    <glyph glyph-name="T" unicode="T" horiz-adv-x="461" 
d="M454 650v-48h-186v-602h-76v602h-185v48h447z" />
    <glyph glyph-name="U" unicode="U" horiz-adv-x="620" 
d="M310 -10c-72.667 0 -128.167 20 -166.5 60s-57.5 94 -57.5 162v438h75v-421c0 -60.667 13.333 -107.167 40 -139.5s65.667 -48.5 117 -48.5c53.333 0 93.5 16.5 120.5 49.5s40.5 79.167 40.5 138.5v421h55v-438c0 -68 -18.667 -122 -56 -162s-93.333 -60 -168 -60z" />
    <glyph glyph-name="V" unicode="V" horiz-adv-x="548" 
d="M315 0h-88l-212 650h79l189 -594l192 594h56z" />
    <glyph glyph-name="W" unicode="W" horiz-adv-x="848" 
d="M775 650h56l-175 -650h-70l-162 554l-160 -554h-70l-179 650h80l148 -563l159 563h67l162 -562z" />
    <glyph glyph-name="X" unicode="X" horiz-adv-x="541" 
d="M18 0l208 323l-200 327h92l161 -272l168 272h63l-199 -315l212 -335h-93l-171 279h-1l-173 -279h-67z" />
    <glyph glyph-name="Y" unicode="Y" horiz-adv-x="507" 
d="M2 650h85l179 -320l178 320h61l-212 -376v-274h-76v269z" />
    <glyph glyph-name="Z" unicode="Z" horiz-adv-x="527" 
d="M485 650v-41l-353 -561h353v-48h-445v40l352 562h-343v48h436z" />
    <glyph glyph-name="bracketleft" unicode="[" horiz-adv-x="334" 
d="M323 -31v-45h-235v777h235v-44h-171v-688h171z" />
    <glyph glyph-name="backslash" unicode="\" horiz-adv-x="417" 
d="M-14 750h55l375 -1000h-55z" />
    <glyph glyph-name="bracketright" unicode="]" horiz-adv-x="334" 
d="M247 701v-777h-236v45h171v688h-171v44h236z" />
    <glyph glyph-name="asciicircum" unicode="^" horiz-adv-x="336" 
d="M167 687l135 -167l-25 -26l-109 129l-111 -129l-23 26z" />
    <glyph glyph-name="underscore" unicode="_" horiz-adv-x="624" 
d="M590 -99v-47h-556v47h556z" />
    <glyph glyph-name="grave" unicode="`" horiz-adv-x="207" 
d="M-10 708l62 16l83 -143l-40 -8z" />
    <glyph glyph-name="a" unicode="a" horiz-adv-x="477" 
d="M315 107l-0.000976562 146.001c-138.667 -15.333 -208 -59 -208 -131c0 -28.667 8.33301 -50.5 25 -65.5s39.334 -22.5 68.001 -22.5c15.333 0 29.833 2.5 43.5 7.5s24.667 11 33 18s15.5 14.167 21.5 21.5s10.333 13.666 13 18.999zM88.999 423.001l-8.00195 41.002
c45.333 30.667 92.333 46 141 46c57.333 0 99.333 -12 126 -36s40 -66.333 40 -127v-245c0 -45.333 8.66699 -68 26 -68c4.66699 0 10.167 0.666992 16.5 2s11.5 2.66602 15.5 3.99902l7 3l3 -34c-32.667 -12.667 -58.667 -19 -78 -19c-17.333 0 -30.666 5.5 -39.999 16.5
s-15 30.5 -17 58.5h-1c-0.666992 -2 -2.16699 -4.66699 -4.5 -8s-7.33301 -9.33301 -15 -18s-16.5 -16.334 -26.5 -23.001s-23.5 -12.667 -40.5 -18s-35.5 -8 -55.5 -8c-44 0 -79.333 10.833 -106 32.5s-40 51.834 -40 90.501c0 98 94.333 157 283 177v53
c0 47.333 -7.66699 79.666 -23 96.999s-42.333 26 -81 26c-17.333 0 -36.166 -3.66699 -56.499 -11s-36.5 -14.333 -48.5 -21z" />
    <glyph glyph-name="b" unicode="b" 
d="M261 463c-18 0 -34.665 -3.16797 -49.998 -9.50098s-27.333 -14.5 -36 -24.5s-14.834 -17.833 -18.501 -23.5s-6.5 -10.5 -8.5 -14.5v-309c2.66699 -4 7 -9 13 -15s17.667 -12.5 35 -19.5s36.666 -10.5 57.999 -10.5c51.333 0 88.833 18.833 112.5 56.5
s35.5 93.834 35.5 168.501c0 134 -47 201 -141 201zM75.002 -0.000976562v748l73 4v-309h1c0.666992 2 2 4.5 4 7.5s6.5 8.33301 13.5 16s15.167 14.5 24.5 20.5s22 11.5 38 16.5s33.667 7.5 53 7.5c59.333 0 107 -21.833 143 -65.5s54 -104.167 54 -181.5
c0 -84 -17.667 -150.833 -53 -200.5s-86.333 -74.5 -153 -74.5c-57.333 0 -101.333 16.667 -132 50l-14 -39h-52z" />
    <glyph glyph-name="c" unicode="c" horiz-adv-x="423" 
d="M386 426c-38 26.667 -79 40 -123 40c-51.333 0 -89 -17 -113 -51s-36 -90.333 -36 -169c0 -141.333 48.333 -212 145 -212c16 0 31.333 2.16699 46 6.5s26.5 9.5 35.5 15.5s16.833 12 23.5 18s11.334 11.333 14.001 16l5 6l32 -21c-1.33301 -2 -3 -5 -5 -9
s-7.5 -10.833 -16.5 -20.5s-19.167 -18.334 -30.5 -26.001s-26.833 -14.5 -46.5 -20.5s-40.834 -9 -63.501 -9c-69.333 0 -122.666 21.333 -159.999 64s-56 106.334 -56 191.001c0 85.333 18.5 150.833 55.5 196.5s91.167 68.5 162.5 68.5
c23.333 0 46.666 -3.66699 69.999 -11s41 -14.333 53 -21l17 -11z" />
    <glyph glyph-name="d" unicode="d" 
d="M254 39c15.333 0 29.832 2.33301 43.499 7s24.667 10.5 33 17.5s15.5 14 21.5 21s10.333 12.833 13 17.5l4 7v307c-2.66699 3.33301 -6.5 7.5 -11.5 12.5s-16.667 11.833 -35 20.5s-38.166 13 -59.499 13c-99.333 0 -149 -74.667 -149 -224
c0 -132.667 46.667 -199 140 -199zM440.999 752l-0.00195312 -751.999h-62l-8 59c-4 -8 -9.66699 -16.333 -17 -25s-21.666 -18.167 -42.999 -28.5s-45.666 -15.5 -72.999 -15.5c-60.667 0 -109.334 21.667 -146.001 65s-55 103.666 -55 180.999
c0 83.333 17.833 149.833 53.5 199.5s85.834 74.5 150.501 74.5c27.333 0 51.5 -4 72.5 -12s35.167 -16 42.5 -24l12 -12h1v286z" />
    <glyph glyph-name="e" unicode="e" horiz-adv-x="453" 
d="M242 467c-78.667 0 -121.333 -63 -128 -189h239c0.666992 6.66699 1 13 1 19c0 113.333 -37.333 170 -112 170zM388.001 99l29.0039 -23.998c-1.33301 -2 -3.16602 -5 -5.49902 -9s-8.33301 -10.833 -18 -20.5s-20.334 -18.334 -32.001 -26.001
s-27.334 -14.5 -47.001 -20.5s-40.834 -9 -63.501 -9c-66.667 0 -119 20.833 -157 62.5s-57 104.167 -57 187.5c0 84 18.333 150 55 198s86.667 72 150 72c57.333 0 101.5 -19.833 132.5 -59.5s46.5 -95.834 46.5 -168.501l-5 -46h-303c0 -134.667 48.667 -202 146 -202
c16.667 0 32.5 2.16699 47.5 6.5s27.167 9.83301 36.5 16.5s17.666 13.167 24.999 19.5s12.666 11.5 15.999 15.5z" />
    <glyph glyph-name="f" unicode="f" horiz-adv-x="313" 
d="M312 500v-49h-145v-451h-72v451h-52v42l52 6v72c0 64.667 10 112.167 30 142.5s53.667 45.5 101 45.5c16 0 31.833 -2.5 47.5 -7.5s27.5 -9.83301 35.5 -14.5l12 -7l-10 -39c-22.667 15.333 -46.667 23 -72 23c-26 0 -44.5 -10.667 -55.5 -32s-16.5 -61 -16.5 -119v-63
h145z" />
    <glyph glyph-name="g" unicode="g" horiz-adv-x="451" 
d="M334 334c0 88.667 -35.666 132.999 -106.999 132.999c-73.333 0 -110 -44.667 -110 -134c0 -45.333 9.66699 -79.666 29 -102.999s46.666 -35 81.999 -35c70.667 0 106 46.333 106 139zM219.001 0.999023c-31.333 0 -56.333 2.66699 -75 8
c-44.667 -18.667 -67 -53.667 -67 -105c0 -79.333 53 -119 159 -119c46.667 0 82.667 9.5 108 28.5s38 46.5 38 82.5c0 70 -54.333 105 -163 105zM231.001 509.999c26 0 48.999 -3.33496 68.999 -10.002h1l128 -1v-39l-64 -2c26.667 -30 40 -71.667 40 -125
c0 -57.333 -15.5 -101.333 -46.5 -132s-73.833 -46 -128.5 -46c-22.667 0 -43 2.33301 -61 7c-23.333 -15.333 -35 -32.666 -35 -51.999c0 -18 7.33301 -30.5 22 -37.5s38.334 -10.5 71.001 -10.5c146 0 219 -51.333 219 -154c0 -54.667 -18.167 -96.334 -54.5 -125.001
s-88.166 -43 -155.499 -43c-70.667 0 -124.334 13.833 -161.001 41.5s-55 68.167 -55 121.5c0 64.667 27.667 108.334 83 131.001c-12 14 -18 33.667 -18 59c0 32.667 15.333 60.667 46 84c-56 28.667 -84 80.667 -84 156c0 60.667 17.167 105.334 51.5 134.001
s78.5 43 132.5 43z" />
    <glyph glyph-name="h" unicode="h" horiz-adv-x="512" 
d="M74 0v748l73 4v-297h1l3 3c2 2 4.83301 4.66699 8.5 8s8.16699 6.83301 13.5 10.5s12 7.5 20 11.5s16.667 7.66699 26 11s20.333 6 33 8s25.667 3 39 3c48.667 0 86.167 -13.5 112.5 -40.5s39.5 -67.167 39.5 -120.5v-349h-72v340c0 78 -34.667 117 -104 117
c-24 0 -46 -4.16699 -66 -12.5s-34 -16.5 -42 -24.5l-12 -13v-407h-73z" />
    <glyph glyph-name="i" unicode="i" horiz-adv-x="222" 
d="M82 676c7.33301 7.33301 17 10.998 29 10.998c12.667 0 22.667 -3.33301 30 -10c8 -8.66699 12 -19.667 12 -33c0 -12 -4 -22.667 -12 -32c-9.33301 -7.33301 -19.333 -11 -30 -11c-12 0 -21.667 3.66699 -29 11c-8.66699 8.66699 -13 19.334 -13 32.001
s4.33301 23.334 13 32.001zM147 499.998v-500h-73v500h73z" />
    <glyph glyph-name="j" unicode="j" horiz-adv-x="240" 
d="M100 676c7.33301 7.33301 17 10.998 29 10.998c12.667 0 22.667 -3.33301 30 -10c8 -8.66699 12 -19.667 12 -33c0 -12 -4 -22.667 -12 -32c-9.33301 -7.33301 -19.333 -11 -30 -11c-12 0 -21.667 3.66699 -29 11c-8.66699 8.66699 -13 19.334 -13 32.001
s4.33301 23.334 13 32.001zM92 -41.002l-0.000976562 541h73v-541c0 -146 -47 -219 -141 -219c-16 0 -30 1.83301 -42 5.5s-20 7.16699 -24 10.5l-7 6l14 41c12.667 -10.667 29.334 -16 50.001 -16c26 0 45.333 13.333 58 40s19 70.667 19 132z" />
    <glyph glyph-name="k" unicode="k" horiz-adv-x="456" 
d="M74 0v748l73 4v-481l61 42l149 187h55l-165 -205l186 -295h-83l-159 252l-44 -27v-225h-73z" />
    <glyph glyph-name="l" unicode="l" horiz-adv-x="223" 
d="M147 752v-752h-72v748z" />
    <glyph glyph-name="m" unicode="m" horiz-adv-x="725" 
d="M75 0l-0.000976562 500h60l9 -53c36.667 42 83.667 63 141 63c54 0 89 -20.333 105 -61c6 6.66699 13.667 13.834 23 21.501s25.666 16.167 48.999 25.5s48 14 74 14c42 0 72.667 -11 92 -33s29 -58.667 29 -110v-367h-73v359c0 38.667 -6 64.834 -18 78.501
s-31 20.5 -57 20.5c-19.333 0 -37.666 -4.16699 -54.999 -12.5s-29.5 -15.833 -36.5 -22.5s-12.833 -13.334 -17.5 -20.001c1.33301 -14.667 2 -26.334 2 -35.001v-368h-73v359c0 38 -5.83301 64 -17.5 78s-30.167 21 -55.5 21c-19.333 0 -37.833 -4.16699 -55.5 -12.5
s-30.167 -16 -37.5 -23s-12.666 -13.167 -15.999 -18.5v-404h-72z" />
    <glyph glyph-name="n" unicode="n" horiz-adv-x="512" 
d="M75 0l0.000976562 500h60l9 -48c33.333 38.667 82.666 58 147.999 58c48 0 85.333 -13.5 112 -40.5s40 -67.167 40 -120.5v-349h-73v334c0 82 -34.333 123 -103 123c-24 0 -46.167 -4.16699 -66.5 -12.5s-34.5 -16.5 -42.5 -24.5l-12 -13v-407h-72z" />
    <glyph glyph-name="o" unicode="o" horiz-adv-x="501" 
d="M250 466c-46.667 0 -81 -17.8311 -103 -53.498s-33 -89.834 -33 -162.501s11 -126.834 33 -162.501s56.333 -53.5 103 -53.5c90.667 0 136 72 136 216s-45.333 216 -136 216zM463 250.002c0 -82 -18.499 -145.833 -55.499 -191.5s-89.5 -68.5 -157.5 -68.5
c-69.333 0 -122.166 22.667 -158.499 68s-54.5 109.333 -54.5 192s18.167 146.667 54.5 192s89.166 68 158.499 68s122.166 -22.667 158.499 -68s54.5 -109.333 54.5 -192z" />
    <glyph glyph-name="p" unicode="p" 
d="M262 461c-15.333 0 -29.833 -2.33008 -43.5 -6.99707s-24.667 -10.334 -33 -17.001s-15.5 -13.334 -21.5 -20.001s-10.333 -12.334 -13 -17.001l-4 -7v-311c24.667 -29.333 59.667 -44 105 -44c52 0 90 18.5 114 55.5s36 93.167 36 168.5c0 132.667 -46.667 199 -140 199
zM75 -251.997v751.999h60l9 -60c3.33301 5.33301 7.66602 10.833 12.999 16.5s13.666 13 24.999 22s26 16.5 44 22.5s38 9 60 9c58.667 0 105.5 -21.667 140.5 -65s52.5 -103.666 52.5 -180.999c0 -84 -17.667 -150.667 -53 -200s-85.333 -74 -150 -74
c-27.333 0 -51.666 4 -72.999 12s-35.666 16 -42.999 24l-12 12h-1v-288z" />
    <glyph glyph-name="q" unicode="q" 
d="M257 39c24.667 0 46.166 5.66797 64.499 17.001s30.5 22.666 36.5 33.999l10 17v312c-25.333 28.667 -59.666 43 -102.999 43c-100.667 0 -151 -74.667 -151 -224c0 -70.667 12.333 -121.5 37 -152.5s60 -46.5 106 -46.5zM440.999 500.001l0.000976562 -749.999l-73 -2
v312h-1c-0.666992 -2 -2 -4.5 -4 -7.5s-6.5 -8.5 -13.5 -16.5s-15 -15.167 -24 -21.5s-21.667 -12 -38 -17s-33.833 -7.5 -52.5 -7.5c-59.333 0 -107 21.667 -143 65s-54 103.666 -54 180.999c0 83.333 18.167 149.833 54.5 199.5s87.166 74.5 152.499 74.5
c54 0 96.333 -15.333 127 -46l17 36h52z" />
    <glyph glyph-name="r" unicode="r" horiz-adv-x="329" 
d="M322 494l-6.99707 -54.999c-29.333 10 -54.333 15 -75 15c-14.667 0 -28.334 -4.33301 -41.001 -13s-22.5 -19.167 -29.5 -31.5s-12.167 -22.5 -15.5 -30.5s-5.66602 -14.333 -6.99902 -19v-360h-73v500h54l11 -103c0.666992 3.33301 1.66699 7.5 3 12.5s5 14 11 27
s12.667 24.5 20 34.5s17.666 19 30.999 27s28 12 44 12c9.33301 0 20.166 -1.33301 32.499 -4s22.166 -5.33398 29.499 -8.00098z" />
    <glyph glyph-name="s" unicode="s" horiz-adv-x="408" 
d="M36 64l25.0049 34.9961c3.33301 -4.66699 8 -10.667 14 -18s19.833 -17 41.5 -29s45.167 -18 70.5 -18c37.333 0 65.5 9.33301 84.5 28s28.5 41.334 28.5 68.001c0 24.667 -8.33301 44.334 -25 59.001s-37 26 -61 34s-47.833 16.667 -71.5 26s-43.834 24 -60.501 44
s-25 46 -25 78c0 42.667 15.5 76.5 46.5 101.5s70.833 37.5 119.5 37.5c21.333 0 43 -3.33301 65 -10s38.667 -13.334 50 -20.001l17 -9l-12 -43c-35.333 26.667 -73.333 40 -114 40c-30.667 0 -55.5 -7.66699 -74.5 -23s-28.5 -34.666 -28.5 -57.999
c0 -24.667 8.66699 -44.667 26 -60s38.166 -27.166 62.499 -35.499s48.666 -17.166 72.999 -26.499s45.166 -24.166 62.499 -44.499s26 -46.5 26 -78.5c0 -43.333 -15 -79.5 -45 -108.5s-74 -43.5 -132 -43.5c-22.667 0 -43.667 2.5 -63 7.5s-34.833 11.167 -46.5 18.5
s-21.834 14.666 -30.501 21.999s-14.667 13.333 -18 18z" />
    <glyph glyph-name="t" unicode="t" horiz-adv-x="326" 
d="M293 500l-0.000976562 -49h-128v-299c0 -43.333 4.16699 -73.166 12.5 -89.499s22.833 -24.5 43.5 -24.5c12 0 23.333 1 34 3s18.334 3.66699 23.001 5l8 3l5 -40c-18.667 -12.667 -49.667 -19 -93 -19c-36 0 -62.667 11.167 -80 33.5s-26 59.166 -26 110.499v317h-52v42
l52 6l27 159h46v-158h128z" />
    <glyph glyph-name="u" unicode="u" horiz-adv-x="512" 
d="M437 500l0.00292969 -500h-61l-10 48c-4.66699 -6 -10.834 -12.5 -18.501 -19.5s-23.334 -15.167 -47.001 -24.5s-50.167 -14 -79.5 -14c-48.667 0 -86.334 13.5 -113.001 40.5s-40 67.167 -40 120.5v349h73v-334c0 -82 34.667 -123 104 -123
c24 0 45.833 4.16699 65.5 12.5s33.5 16.833 41.5 25.5l12 13v406h73z" />
    <glyph glyph-name="v" unicode="v" horiz-adv-x="435" 
d="M184 0l-171 500h86l130 -421l138 421h55l-172 -500h-66z" />
    <glyph glyph-name="w" unicode="w" horiz-adv-x="657" 
d="M588 500h56l-135 -500h-64l-117 403l-118 -403h-65l-131 500h81l94 -408l119 408h57l125 -408z" />
    <glyph glyph-name="x" unicode="x" horiz-adv-x="443" 
d="M417 500l-155 -239l168 -261h-85l-134 216l-139 -216h-60l166 249l-158 251h86l123 -209l129 209h59z" />
    <glyph glyph-name="y" unicode="y" horiz-adv-x="449" 
d="M24 -201c12.667 -6 26.3301 -8.99902 40.9971 -8.99902c30.667 0 56.334 16.5 77.001 49.5s43.667 84.5 69 154.5l-196 506h86l148 -418l134 418h53l-173 -508c-14 -39.333 -26.5 -72 -37.5 -98s-24.167 -51.833 -39.5 -77.5s-32.166 -44.834 -50.499 -57.501
s-38.166 -19 -59.499 -19c-12 0 -23 1 -33 3s-17 4.33301 -21 7l-6 3z" />
    <glyph glyph-name="z" unicode="z" horiz-adv-x="415" 
d="M375 500v-40l-254 -415h252l2 -45h-340v40l256 415h-234l-3 45h321z" />
    <glyph glyph-name="braceleft" unicode="{" horiz-adv-x="375" 
d="M98 268v47.998c20.667 0 41.334 8.66699 62.001 26s31 38.333 31 63c0 20 -4.5 52.667 -13.5 98s-13.5 80 -13.5 104c0 46.667 13 81.834 39 105.501s71.667 35.5 137 35.5v-43c-41.333 0 -70.666 -8.66699 -87.999 -26s-26 -43 -26 -77c0 -21.333 4.5 -55.333 13.5 -102
s13.5 -81 13.5 -103c0 -24 -7 -45 -21 -63s-33 -32 -57 -42c24 -10 43 -24 57 -42s21 -39 21 -63c0 -22 -4.5 -56.333 -13.5 -103s-13.5 -80.667 -13.5 -102c0 -34 8.66699 -59.667 26 -77s46.666 -26 87.999 -26v-43c-65.333 0 -111 11.833 -137 35.5
s-39 58.834 -39 105.501c0 24 4.5 58.667 13.5 104s13.5 78 13.5 98c0 24.667 -10.333 45.667 -31 63s-41.334 26 -62.001 26z" />
    <glyph glyph-name="bar" unicode="|" horiz-adv-x="292" 
d="M171 750v-1000h-50v1000h50z" />
    <glyph glyph-name="braceright" unicode="}" horiz-adv-x="375" 
d="M60 -121c40.667 0 69.667 8.66895 87 26.002s26 43 26 77c0 21.333 -4.5 55.333 -13.5 102s-13.5 81 -13.5 103c0 48 25.667 83 77 105c-51.333 22 -77 57 -77 105c0 22 4.5 56.333 13.5 103s13.5 80.667 13.5 102c0 34 -8.66699 59.667 -26 77s-46.333 26 -87 26v43
c65.333 0 111 -11.833 137 -35.5s39 -58.834 39 -105.501c0 -24 -4.66699 -58.667 -14 -104s-14 -78 -14 -98c0 -24.667 10.5 -45.667 31.5 -63s41.833 -26 62.5 -26v-48c-20.667 0 -41.5 -8.66699 -62.5 -26s-31.5 -38.333 -31.5 -63c0 -20 4.66699 -52.667 14 -98
s14 -80 14 -104c0 -46.667 -13 -81.834 -39 -105.501s-71.667 -35.5 -137 -35.5v43z" />
    <glyph glyph-name="asciitilde" unicode="~" horiz-adv-x="573" 
d="M515 374l28.001 -18.998c-0.666992 -2.66699 -1.66699 -6.33398 -3 -11.001s-5.33301 -12.834 -12 -24.501s-14.334 -21.834 -23.001 -30.501s-21 -16.667 -37 -24s-33.667 -11 -53 -11c-26 0 -51 5.33301 -75 16s-43.5 22.667 -58.5 36s-33.833 25.333 -56.5 36
s-46 16 -70 16c-13.333 0 -25.666 -2 -36.999 -6s-20.333 -8.66699 -27 -14s-12.334 -10.666 -17.001 -15.999s-8 -10 -10 -14l-3 -6l-30 21c0.666992 2.66699 1.83398 6.5 3.50098 11.5s6.16699 13.5 13.5 25.5s15.666 22.667 24.999 32s22.833 17.833 40.5 25.5
s37.167 11.5 58.5 11.5c28.667 0 55.5 -5.5 80.5 -16.5s45.167 -22.833 60.5 -35.5s33.833 -24.5 55.5 -35.5s43.834 -16.5 66.501 -16.5c19.333 0 35.666 4.16699 48.999 12.5s22 16.5 26 24.5z" />
    <glyph glyph-name="uni00A0" unicode="&#xa0;" horiz-adv-x="298" 
 />
    <glyph glyph-name="exclamdown" unicode="&#xa1;" horiz-adv-x="276" 
d="M105 496c9.33301 8 19.667 12 31 12c12 0 22.667 -4 32 -12c8.66699 -8.66699 13 -20 13 -34s-4.33301 -25.333 -13 -34c-9.33301 -8 -20 -12 -32 -12s-22.333 4 -31 12c-9.33301 8.66699 -14 20 -14 34s4.66699 25.333 14 34zM96.001 -250v83l19 455h44l18 -455v-83h-81
z" />
    <glyph glyph-name="cent" unicode="&#xa2;" horiz-adv-x="423" 
d="M386 493c-38 26.667 -79.002 39.999 -123.002 39.999c-51.333 0 -89 -17 -113 -51s-36 -90.333 -36 -169c0 -141.333 48.333 -212 145 -212c16 0 31.333 2.16699 46 6.5s26.5 9.5 35.5 15.5s16.833 12 23.5 18s11.334 11 14.001 15l5 7l32 -21
c-0.666992 -2 -2.16699 -4.66699 -4.5 -8s-7.5 -9.66602 -15.5 -18.999s-16.833 -17.5 -26.5 -24.5s-23.167 -13.833 -40.5 -20.5s-36 -11 -56 -13l-3 -107h-42l-6 109c-122.667 12.667 -184 97 -184 253c0 78 15.5 139.5 46.5 184.5s76.5 71.167 136.5 78.5l4 125h42
l6 -124c20.667 -1.33301 41.334 -5.5 62.001 -12.5s36 -13.5 46 -19.5l15 -10z" />
    <glyph glyph-name="sterling" unicode="&#xa3;" horiz-adv-x="508" 
d="M429 328l-0.000976562 -46.999h-223c-2 -102.667 -19 -174 -51 -214h331v-67h-440v67h38c38.667 26.667 58 76 58 148c0 22 -1 44.333 -3 67l-93 3v43h88c-7.33301 73.333 -11 125 -11 155c0 56.667 15.167 100.167 45.5 130.5s73.833 45.5 130.5 45.5
c18 0 37.5 -3.16699 58.5 -9.5s37.833 -12.5 50.5 -18.5l18 -9l-12 -43c-37.333 21.333 -70.666 32 -99.999 32c-37.333 0 -65 -10.333 -83 -31s-27 -54.334 -27 -101.001c0 -36.667 0.666992 -87 2 -151h223z" />
    <glyph glyph-name="currency" unicode="&#xa4;" horiz-adv-x="540" 
d="M380 314c0 42.667 -10 76.167 -30 100.5s-46.333 36.5 -79 36.5c-33.333 0 -60 -12.167 -80 -36.5s-30 -57.5 -30 -99.5s10 -75.5 30 -100.5s46.667 -37.5 80 -37.5c32.667 0 59 12.333 79 37s30 58 30 100zM423 314c0 -46 -11.333 -85.3311 -34 -117.998l101 -107
l-27 -37l-94 120c-27.333 -26 -60 -39 -98 -39s-70.667 12.667 -98 38l-94 -118l-28 37l101 106c-22 31.333 -33 70.666 -33 117.999c0 44.667 10.667 83.667 32 117l-101 108l28 37l94 -121c28 26.667 61 40 99 40c36 0 68 -12.333 96 -37l95 117l27 -37l-101 -105
c23.333 -32.667 35 -72.334 35 -119.001z" />
    <glyph glyph-name="yen" unicode="&#xa5;" horiz-adv-x="563" 
d="M29 650h85l179 -320l178 320h61l-186 -330h111v-40h-134l-3 -6v-89h137v-40h-137v-145h-76v145h-147v40h147v84l-6 11h-141v40h118z" />
    <glyph glyph-name="brokenbar" unicode="&#xa6;" horiz-adv-x="292" 
d="M171 750v-400h-50v400h50zM171 150v-400h-50v400h50z" />
    <glyph glyph-name="section" unicode="&#xa7;" horiz-adv-x="486" 
d="M118 322c0 -31.333 12.333 -55.668 37 -73.001s58.5 -33.333 101.5 -48s73.833 -28.667 92.5 -42c31.333 18.667 47 47.667 47 87c0 22.667 -8.66699 42.167 -26 58.5s-37 28.333 -59 36s-48.333 17.334 -79 29.001s-54.667 23.167 -72 34.5c-28 -16 -42 -43.333 -42 -82
zM67 307.998c0 54.667 21.3301 94.9971 63.9971 120.997c-20 21.333 -30 48.333 -30 81c0 42.667 14.833 78.167 44.5 106.5s72.5 42.5 128.5 42.5c22 0 44.333 -3.83301 67 -11.5s39.667 -15.5 51 -23.5l17 -12l-8 -40c-38 28.667 -77 43 -117 43
c-39.333 0 -67.833 -9.66699 -85.5 -29s-26.5 -42 -26.5 -68c0 -24.667 9.5 -45.167 28.5 -61.5s42 -29.166 69 -38.499s53.833 -19.166 80.5 -29.499s49.5 -26.333 68.5 -48s28.5 -49.167 28.5 -82.5c0 -54 -23.333 -95.333 -70 -124c18.667 -22 28 -48.333 28 -79
c0 -42 -15.333 -76.5 -46 -103.5s-76 -40.5 -136 -40.5c-31.333 0 -59.5 4.16699 -84.5 12.5s-42.167 16.5 -51.5 24.5l-14 12l17 40c2.66699 -3.33301 7 -7.5 13 -12.5s19.833 -11.667 41.5 -20s44.834 -12.5 69.501 -12.5c42.667 0 73.334 8.83301 92.001 26.5
s28 39.834 28 66.501c0 24 -9.16699 43.833 -27.5 59.5s-40.666 28 -66.999 37s-52.5 19 -78.5 30s-48.167 27.5 -66.5 49.5s-27.5 50 -27.5 84z" />
    <glyph glyph-name="dieresis" unicode="&#xa8;" horiz-adv-x="375" 
d="M49 674c8.66699 6.66699 17.667 10.001 27 10.001c8.66699 0 17.334 -3.33301 26.001 -10c7.33301 -8.66699 11 -18.667 11 -30c0 -10.667 -3.66699 -20.334 -11 -29.001c-8.66699 -6.66699 -17.334 -10 -26.001 -10c-9.33301 0 -18.333 3.33301 -27 10
c-7.33301 7.33301 -11 17 -11 29c0 12.667 3.66699 22.667 11 30zM203 674.001c8.66699 6.66699 17.334 10 26.001 10s17.334 -3.33301 26.001 -10c8 -8 12 -18 12 -30c0 -11.333 -4 -21 -12 -29c-8.66699 -6.66699 -17.334 -10 -26.001 -10s-17.334 3.33301 -26.001 10
c-7.33301 7.33301 -11 17 -11 29c0 12.667 3.66699 22.667 11 30z" />
    <glyph glyph-name="copyright" unicode="&#xa9;" horiz-adv-x="729" 
d="M472 462l-10 -31.002c-22 21.333 -48.667 32 -80 32c-34.667 0 -61.667 -12.333 -81 -37s-29 -61 -29 -109c0 -46 10.167 -81.167 30.5 -105.5s47.166 -36.5 80.499 -36.5c18.667 0 35.167 4.33301 49.5 13s24.166 17.334 29.499 26.001l8 13l19 -21
c-0.666992 -2 -1.66699 -4.5 -3 -7.5s-5.16602 -8.16699 -11.499 -15.5s-13.333 -14 -21 -20s-18.667 -11.333 -33 -16s-30.166 -7 -47.499 -7c-44 0 -80.667 15.833 -110 47.5s-44 74.834 -44 129.501c0 56 14.5 100 43.5 132s67.167 48 114.5 48
c17.333 0 34 -2.83301 50 -8.5s27.667 -11.5 35 -17.5zM615 321.998c0 95.333 -22.667 170 -68 224s-107 81 -185 81c-77.333 0 -138.166 -27 -182.499 -81s-66.5 -128.667 -66.5 -224c0 -94.667 22.167 -168.334 66.5 -221.001s105.166 -79 182.499 -79
c78.667 0 140.5 26.333 185.5 79s67.5 126.334 67.5 221.001zM654 322.998c0 -104.667 -25.6689 -187 -77.002 -247s-122.666 -90 -213.999 -90s-162.5 30 -213.5 90s-76.5 142.333 -76.5 247s25.833 187.5 77.5 248.5s122.5 91.5 212.5 91.5
c90.667 0 161.834 -30.5 213.501 -91.5s77.5 -143.833 77.5 -248.5z" />
    <glyph glyph-name="ordfeminine" unicode="&#xaa;" horiz-adv-x="389" 
d="M176 347c38.667 0 66.002 20.0029 82.002 60.0029v104c-23.333 -2 -43.333 -4.83301 -60 -8.5s-33.334 -8.83398 -50.001 -15.501s-29.334 -15.834 -38.001 -27.501s-13 -25.834 -13 -42.501c0 -46.667 26.333 -70 79 -70zM272.002 320.003l-12.9971 53.001
c-2.66699 -7.33301 -6.83398 -15 -12.501 -23s-17.167 -16.667 -34.5 -26s-38 -14 -62 -14c-38 0 -67 8.83301 -87 26.5s-30 42.5 -30 74.5c0 75.333 75 118.333 225 129v17c0 30.667 -6.33301 53.167 -19 67.5s-33.334 21.5 -62.001 21.5
c-18.667 0 -36.334 -3.33301 -53.001 -10s-28.667 -13.334 -36 -20.001l-11 -11l-16 24c2.66699 4 6.66699 8.83301 12 14.5s18.833 13.167 40.5 22.5s46.5 14 74.5 14c46 0 80 -10.333 102 -31s33 -53 33 -97v-232h-51z" />
    <glyph glyph-name="guillemotleft" unicode="&#xab;" horiz-adv-x="484" 
d="M422 395l-108 -146l108 -148l-23 -27l-154 176l155 171zM260 395l-108 -146l108 -148l-23 -27l-154 176l155 171z" />
    <glyph glyph-name="logicalnot" unicode="&#xac;" horiz-adv-x="447" 
d="M392 341v-213h-43v167h-296v46h339z" />
    <glyph glyph-name="uni00AD" unicode="&#xad;" horiz-adv-x="310" 
d="M269 301v-47h-229v47h229z" />
    <glyph glyph-name="registered" unicode="&#xae;" horiz-adv-x="617" 
d="M309 584h-44v-137h44c46.667 0 70 24.667 70 74c0 42 -23.333 63 -70 63zM226 294v317h83c75.333 0 113 -30 113 -90c0 -48.667 -23 -79.667 -69 -93l66 -134h-43l-63 128h-48v-128h-39zM526 452c0 83.333 -19.333 149.333 -58 198s-92 73 -160 73
s-121.167 -24.333 -159.5 -73s-57.5 -114.667 -57.5 -198s19 -148.5 57 -195.5s91.333 -70.5 160 -70.5c68 0 121.333 23.667 160 71s58 112.333 58 195zM565 453c0 -92.667 -22.667 -166.334 -68 -221.001s-108.333 -82 -189 -82s-143.5 27.333 -188.5 82
s-67.5 128.334 -67.5 221.001s23 166.5 69 221.5s108.333 82.5 187 82.5s141.167 -27.5 187.5 -82.5s69.5 -128.833 69.5 -221.5z" />
    <glyph glyph-name="macron" unicode="&#xaf;" horiz-adv-x="395" 
d="M290 672v-36h-186v36h186z" />
    <glyph glyph-name="degree" unicode="&#xb0;" horiz-adv-x="409" 
d="M302 574c0 47.333 -8.50098 83.498 -25.501 108.498s-40.833 37.5 -71.5 37.5c-64.667 0 -97 -48.667 -97 -146c0 -47.333 8.33301 -83.666 25 -108.999s40.334 -38 71.001 -38c31.333 0 55.5 12.833 72.5 38.5s25.5 61.834 25.5 108.501zM361.999 572.998
c0 -57.333 -14 -102.998 -42 -136.998s-66.333 -51 -115 -51c-50 0 -88.667 17 -116 51s-41 79.667 -41 137s14 103.166 42 137.499s66.333 51.5 115 51.5c48 0 86.167 -17.333 114.5 -52s42.5 -80.334 42.5 -137.001z" />
    <glyph glyph-name="plusminus" unicode="&#xb1;" horiz-adv-x="470" 
d="M436 198v-47h-402v47h402zM259 723v-174h146v-47h-146v-174h-44v174h-149v47h149v174h44z" />
    <glyph glyph-name="uni00B2" unicode="&#xb2;" horiz-adv-x="377" 
d="M333 293l-0.000976562 -63h-292v55c8.66699 3.33301 23.834 15.333 45.501 36s44.834 45.667 69.501 75s46.5 63.333 65.5 102s28.5 74 28.5 106c0 38 -7 66 -21 84s-37.667 27 -71 27c-12.667 0 -27.167 -3.5 -43.5 -10.5s-29.5 -13.833 -39.5 -20.5l-15 -11l-8 39
c40 30.667 81 46 123 46c49.333 0 86.166 -13.5 110.499 -40.5s36.5 -63.167 36.5 -108.5c0 -94 -70.333 -199.333 -211 -316h222z" />
    <glyph glyph-name="uni00B3" unicode="&#xb3;" horiz-adv-x="376" 
d="M315 750l-0.00195312 -42.999l-132 -181c1.33301 0 3.83301 0.166992 7.5 0.5s6.5 0.5 8.5 0.5c38.667 0 70.334 -13.333 95.001 -40s37 -62.334 37 -107.001c0 -50 -15.667 -89 -47 -117s-70.666 -42 -117.999 -42c-27.333 0 -51.5 3.83301 -72.5 11.5
s-35.167 15.5 -42.5 23.5l-11 12l19 35c1.33301 -2 5 -5.66699 11 -11s17.167 -11.333 33.5 -18s34.166 -10 53.499 -10c33.333 0 59.5 10.333 78.5 31s28.5 49.667 28.5 87c0 34.667 -6.66699 61.167 -20 79.5s-32.666 27.5 -57.999 27.5c-16 0 -30 -6 -42 -18l-1 -1
l-24 27l135 190h-190l4 63h247z" />
    <glyph glyph-name="acute" unicode="&#xb4;" horiz-adv-x="207" 
d="M133 721l63 -15l-102 -135l-38 5z" />
    <glyph glyph-name="uni00B5" unicode="&#xb5;" horiz-adv-x="518" 
d="M443 500l0.00292969 -500h-61l-10 48c-4.66699 -6 -10.834 -12.5 -18.501 -19.5s-23.334 -15.167 -47.001 -24.5s-50.167 -14 -79.5 -14c-32.667 0 -60.334 6 -83.001 18c3.33301 -95.333 5 -181.333 5 -258h-74v377c-0.666992 5.33301 -1 13.333 -1 24v349h73v-334
c0 -82 34.667 -123 104 -123c24 0 45.833 4.16699 65.5 12.5s33.5 16.833 41.5 25.5l12 13v406h73z" />
    <glyph glyph-name="paragraph" unicode="&#xb6;" horiz-adv-x="597" 
d="M550 650l-0.000976562 -55h-58v-595h-61v595h-95v-595h-60v244c-75.333 0 -132.166 16.167 -170.499 48.5s-57.5 84.833 -57.5 157.5c0 66.667 19.5 116.667 58.5 150s100.167 50 183.5 50h260z" />
    <glyph glyph-name="periodcentered" unicode="&#xb7;" horiz-adv-x="243" 
d="M89 371c8.66699 8 19 12 31 12s22.667 -4 32 -12c8.66699 -8.66699 13 -20 13 -34s-4.33301 -25.333 -13 -34c-9.33301 -8 -20 -12 -32 -12s-22.333 4 -31 12c-9.33301 8.66699 -14 20 -14 34s4.66699 25.333 14 34z" />
    <glyph glyph-name="cedilla" unicode="&#xb8;" horiz-adv-x="234" 
d="M104 -3l27.999 0.000976562l-7 -66l24 -6c16 -4 32 -12.667 48 -26s24 -31.333 24 -54c0 -30 -8.83301 -53.5 -26.5 -70.5s-43.5 -25.5 -77.5 -25.5c-20 0 -37.667 3.5 -53 10.5s-25.666 13.833 -30.999 20.5l-8 11l18 20c14.667 -21.333 37 -32 67 -32
c44 0 66 22.667 66 68c0 17.333 -7 30.666 -21 39.999s-28 15 -42 17s-21 3.33301 -21 4z" />
    <glyph glyph-name="uni00B9" unicode="&#xb9;" horiz-adv-x="376" 
d="M188 750h54v-520h-66v460l-89 -58l-17 42z" />
    <glyph glyph-name="ordmasculine" unicode="&#xba;" horiz-adv-x="419" 
d="M209 645c-69.333 0 -104 -50 -104 -150c0 -101.333 34.667 -152 104 -152s104 50.667 104 152c0 100 -34.667 150 -104 150zM381 495c0 -58 -14.833 -103.333 -44.5 -136s-72.167 -49 -127.5 -49c-56.667 0 -99.5 16.167 -128.5 48.5s-43.5 77.833 -43.5 136.5
s14.5 104.167 43.5 136.5s71.833 48.5 128.5 48.5s99.5 -16.167 128.5 -48.5s43.5 -77.833 43.5 -136.5z" />
    <glyph glyph-name="guillemotright" unicode="&#xbb;" horiz-adv-x="484" 
d="M224 394l23 27l153 -177l-154 -170l-23 26l108 145zM62 394l23 27l153 -177l-154 -170l-23 26l108 145z" />
    <glyph glyph-name="onequarter" unicode="&#xbc;" horiz-adv-x="727" 
d="M465 278l63 -8.00098c-26.667 -121.333 -67 -237 -121 -347h150v163l16 108h52v-271h49v-36l-49 -6v-131h-68v131h-195l-5 35c39.333 86.667 75.333 207.334 108 362.001zM557 560.999l-303 -561l-35 20l303 562zM188 749.999h54v-520h-66v460l-89 -58l-17 42z" />
    <glyph glyph-name="onehalf" unicode="&#xbd;" horiz-adv-x="786" 
d="M721 -187l-0.000976562 -62.999h-291v55c8.66699 3.33301 23.834 15.333 45.501 36s44.834 45.667 69.501 75s46.5 63.333 65.5 102s28.5 74 28.5 106c0 38 -7 65.833 -21 83.5s-38 26.5 -72 26.5c-12.667 0 -27 -3.33301 -43 -10s-29 -13.334 -39 -20.001l-15 -11l-9 39
c40.667 30.667 82 46 124 46c49.333 0 86.166 -13.667 110.499 -41s36.5 -63.333 36.5 -108c0 -94.667 -70 -200 -210 -316h220zM556.999 561.001l-303 -561l-35 20l303 562zM187.999 750.001h54v-520h-66v460l-89 -58l-17 42z" />
    <glyph glyph-name="threequarters" unicode="&#xbe;" horiz-adv-x="775" 
d="M513 278l63 -8.00098c-26.667 -121.333 -67 -237 -121 -347h150v163l16 108h52v-271h49v-36l-49 -6v-131h-68v131h-195l-5 35c39.333 86.667 75.333 207.334 108 362.001zM604 560.999l-303 -561l-35 20l303 562zM316 749.999l-0.00195312 -42.999l-132 -181
c1.33301 0 3.83301 0.166992 7.5 0.5s6.5 0.5 8.5 0.5c38.667 0 70.334 -13.333 95.001 -40s37 -62.334 37 -107.001c0 -50 -15.667 -89 -47 -117s-70.666 -42 -117.999 -42c-27.333 0 -51.5 3.83301 -72.5 11.5s-35.167 15.5 -42.5 23.5l-11 12l19 35
c1.33301 -2 5 -5.66699 11 -11s17.167 -11.333 33.5 -18s34.166 -10 53.499 -10c33.333 0 59.5 10.333 78.5 31s28.5 49.667 28.5 87c0 34.667 -6.66699 61.167 -20 79.5s-32.666 27.5 -57.999 27.5c-16 0 -30 -6 -42 -18l-1 -1l-24 27l135 190h-190l4 63h247z" />
    <glyph glyph-name="questiondown" unicode="&#xbf;" horiz-adv-x="411" 
d="M233 496c8.66699 8 19 12 31 12s22.667 -4 32 -12c8.66699 -8.66699 13 -20 13 -34s-4.33301 -25.333 -13 -34c-9.33301 -8 -20 -12 -32 -12s-22.333 4 -31 12c-9.33301 8.66699 -14 20 -14 34s4.66699 25.333 14 34zM337 -192l18.001 -41.0029
c-27.333 -18 -67.333 -27 -120 -27c-69.333 0 -119.666 16.333 -150.999 49s-47 72 -47 118c0 27.333 4 51.5 12 72.5s18.167 38.167 30.5 51.5s26.166 25.666 41.499 36.999l46 34c15.333 11.333 29.166 23.833 41.499 37.5s22.5 31 30.5 52s12 45.167 12 72.5
c0 2.66699 -0.166992 6.33398 -0.5 11.001s-0.5 8 -0.5 10l34 3c3.33301 -23.333 5 -41.666 5 -54.999c0 -28 -4.16699 -52.667 -12.5 -74s-18.833 -37.833 -31.5 -49.5l-41 -37l-41 -36.5c-12.667 -11.333 -23.167 -27.166 -31.5 -47.499s-12.5 -44.166 -12.5 -71.499
c0 -87.333 41 -131 123 -131c16.667 0 33 1.83301 49 5.5s27.667 7.16699 35 10.5z" />
    <glyph glyph-name="Agrave" unicode="&#xc0;" horiz-adv-x="568" 
d="M175 843l62 16l83 -143l-40 -8zM273 592l-115 -351h228zM242 650h89l215 -650h-79l-68 200h-255l-68 -200h-53z" />
    <glyph glyph-name="Aacute" unicode="&#xc1;" horiz-adv-x="568" 
d="M332 856l63 -15l-102 -135l-38 5zM273 592l-115 -351h228zM242 650h89l215 -650h-79l-68 200h-255l-68 -200h-53z" />
    <glyph glyph-name="Acircumflex" unicode="&#xc2;" horiz-adv-x="568" 
d="M304 878l108 -114l-18 -32l-110 97l-110 -97l-19 32l110 114h39zM273 592l-115 -351h228zM242 650h89l215 -650h-79l-68 200h-255l-68 -200h-53z" />
    <glyph glyph-name="Atilde" unicode="&#xc3;" horiz-adv-x="568" 
d="M429 806l22.9971 -24.998c-2 -4 -4.83301 -8.83301 -8.5 -14.5s-12.667 -13.167 -27 -22.5s-30.833 -14 -49.5 -14c-20 0 -46.333 7.66699 -79 23s-57.667 23 -75 23c-11.333 0 -22 -3.33301 -32 -10s-17 -13.334 -21 -20.001l-7 -9l-23 25
c0.666992 2 1.83398 4.33301 3.50098 7s5.5 7.66699 11.5 15s12.333 13.666 19 18.999s15.667 10.333 27 15s23 7 35 7c22 0 48.833 -7.66699 80.5 -23s55.5 -23 71.5 -23c10.667 0 20.334 2.16699 29.001 6.5s14.334 8.83301 17.001 13.5zM272.997 592.002l-115 -351h228z
M241.997 650.002h89l215 -650h-79l-68 200h-255l-68 -200h-53z" />
    <glyph glyph-name="Adieresis" unicode="&#xc4;" horiz-adv-x="568" 
d="M183 809c8.66699 6.66699 17.667 10.001 27 10.001c8.66699 0 17.334 -3.33301 26.001 -10c7.33301 -8.66699 11 -18.667 11 -30c0 -10.667 -3.66699 -20.334 -11 -29.001c-8.66699 -6.66699 -17.334 -10 -26.001 -10c-9.33301 0 -18.333 3.33301 -27 10
c-7.33301 7.33301 -11 17 -11 29c0 12.667 3.66699 22.667 11 30zM337 809.001c8.66699 6.66699 17.334 10 26.001 10s17.334 -3.33301 26.001 -10c8 -8 12 -18 12 -30c0 -11.333 -4 -21 -12 -29c-8.66699 -6.66699 -17.334 -10 -26.001 -10s-17.334 3.33301 -26.001 10
c-7.33301 7.33301 -11 17 -11 29c0 12.667 3.66699 22.667 11 30zM273 592.001l-115 -351h228zM242 650.001h89l215 -650h-79l-68 200h-255l-68 -200h-53z" />
    <glyph glyph-name="Aring" unicode="&#xc5;" horiz-adv-x="568" 
d="M344 779c0 22 -5.66797 38.667 -17.001 50s-25.666 17 -42.999 17c-18 0 -32.667 -5.66699 -44 -17s-17 -28 -17 -50c0 -22.667 5.66699 -39.5 17 -50.5s26 -16.5 44 -16.5s32.5 5.5 43.5 16.5s16.5 27.833 16.5 50.5zM372.999 779c0 -30 -8.16699 -53 -24.5 -69
s-37.833 -24 -64.5 -24s-48.167 8 -64.5 24s-24.5 39 -24.5 69c0 29.333 8.33301 52.333 25 69s38 25 64 25c25.333 0 46.5 -8.33301 63.5 -25s25.5 -39.667 25.5 -69zM272.999 592l-115 -351h228zM241.999 650h89l215 -650h-79l-68 200h-255l-68 -200h-53z" />
    <glyph glyph-name="AE" unicode="&#xc6;" horiz-adv-x="789" 
d="M377 602l-194 -356h198v356h-4zM359 650h373v-48h-275v-250h251v-46h-251v-258h296v-48h-372v205h-220l-116 -205h-57z" />
    <glyph glyph-name="Ccedilla" unicode="&#xc7;" horiz-adv-x="570" 
d="M510 556c-6.66699 4 -15.502 8.99805 -26.502 14.998s-31.833 13.833 -62.5 23.5s-59 14.5 -85 14.5c-64.667 0 -115.334 -24.5 -152.001 -73.5s-55 -120.5 -55 -214.5c0 -92.667 18.667 -162.667 56 -210s89.666 -71 156.999 -71c22.667 0 44.167 3.33301 64.5 10
s37.333 14.834 51 24.501s25.5 19.334 35.5 29.001s17.333 17.834 22 24.501l7 10l28 -32c-2 -3.33301 -4.66699 -7.5 -8 -12.5s-11.333 -14.167 -24 -27.5s-26.667 -25 -42 -35s-35.666 -19.333 -60.999 -28s-52.333 -13 -81 -13l-6 -59l24 -6c16 -4 32 -12.667 48 -26
s24 -31.333 24 -54c0 -30 -8.83301 -53.5 -26.5 -70.5s-43.5 -25.5 -77.5 -25.5c-20 0 -37.667 3.5 -53 10.5s-25.666 13.833 -30.999 20.5l-8 11l18 20c14.667 -21.333 37 -32 67 -32c44 0 66 22.667 66 68c0 17.333 -7 30.666 -21 39.999s-28 15 -42 17s-21 3.33301 -21 4
l11 83c-82 6 -145.5 37.667 -190.5 95s-67.5 135 -67.5 233c0 104 25.333 186.667 76 248s118.667 92 204 92c30.667 0 61.834 -4.5 93.501 -13.5s55.834 -18.167 72.501 -27.5l25 -14z" />
    <glyph glyph-name="Egrave" unicode="&#xc8;" horiz-adv-x="507" 
d="M168 843l62 16l83 -143l-40 -8zM466 48v-48h-372v650h350v-48h-274v-250h251v-46h-251v-258h296z" />
    <glyph glyph-name="Eacute" unicode="&#xc9;" horiz-adv-x="507" 
d="M325 856l63 -15l-102 -135l-38 5zM466 48v-48h-372v650h350v-48h-274v-250h251v-46h-251v-258h296z" />
    <glyph glyph-name="Ecircumflex" unicode="&#xca;" horiz-adv-x="507" 
d="M301 878l108 -114l-18 -32l-110 97l-110 -97l-19 32l110 114h39zM466 48v-48h-372v650h350v-48h-274v-250h251v-46h-251v-258h296z" />
    <glyph glyph-name="Edieresis" unicode="&#xcb;" horiz-adv-x="507" 
d="M164 809c8.66699 6.66699 17.334 10.001 26.001 10.001c9.33301 0 18.333 -3.33301 27 -10c7.33301 -8.66699 11 -18.667 11 -30c0 -10.667 -3.66699 -20.334 -11 -29.001c-8.66699 -6.66699 -17.667 -10 -27 -10c-8.66699 0 -17.334 3.33301 -26.001 10
c-7.33301 7.33301 -11 17 -11 29c0 12.667 3.66699 22.667 11 30zM318 809.001c8.66699 6.66699 17.334 10 26.001 10s17.334 -3.33301 26.001 -10c8 -8 12 -18 12 -30c0 -11.333 -4 -21 -12 -29c-8.66699 -6.66699 -17.334 -10 -26.001 -10s-17.334 3.33301 -26.001 10
c-7.33301 7.33301 -11 17 -11 29c0 12.667 3.66699 22.667 11 30zM466 48.001v-48h-372v650h350v-48h-274v-250h251v-46h-251v-258h296z" />
    <glyph glyph-name="Igrave" unicode="&#xcc;" horiz-adv-x="265" 
d="M19 843l62 16l83 -143l-40 -8zM170 650v-650h-76v650h76z" />
    <glyph glyph-name="Iacute" unicode="&#xcd;" horiz-adv-x="265" 
d="M176 856l63 -15l-102 -135l-38 5zM170 650v-650h-76v650h76z" />
    <glyph glyph-name="Icircumflex" unicode="&#xce;" horiz-adv-x="265" 
d="M151 878l108 -114l-18 -32l-110 97l-110 -97l-19 32l110 114h39zM170 650v-650h-76v650h76z" />
    <glyph glyph-name="Idieresis" unicode="&#xcf;" horiz-adv-x="265" 
d="M27 809c8.66699 6.66699 17.667 10.001 27 10.001c8.66699 0 17.334 -3.33301 26.001 -10c7.33301 -8.66699 11 -18.667 11 -30c0 -10.667 -3.66699 -20.334 -11 -29.001c-8.66699 -6.66699 -17.334 -10 -26.001 -10c-9.33301 0 -18.333 3.33301 -27 10
c-7.33301 7.33301 -11 17 -11 29c0 12.667 3.66699 22.667 11 30zM181 809.001c8.66699 6.66699 17.334 10 26.001 10s17.334 -3.33301 26.001 -10c8 -8 12 -18 12 -30c0 -11.333 -4 -21 -12 -29c-8.66699 -6.66699 -17.334 -10 -26.001 -10s-17.334 3.33301 -26.001 10
c-7.33301 7.33301 -11 17 -11 29c0 12.667 3.66699 22.667 11 30zM170 650.001v-650h-76v650h76z" />
    <glyph glyph-name="Eth" unicode="&#xd0;" horiz-adv-x="638" 
d="M292 602h-122v-258h189v-42h-189v-254h123c141.333 0 212 91.667 212 275c0 186 -71 279 -213 279zM94 0v301.999h-69v42h69v306h198c93.333 0 165.833 -28.167 217.5 -84.5s77.5 -137.166 77.5 -242.499c0 -104.667 -25.5 -184.667 -76.5 -240s-123.833 -83 -218.5 -83
h-198z" />
    <glyph glyph-name="Ntilde" unicode="&#xd1;" horiz-adv-x="651" 
d="M472 806l23 -24.998c-2 -4 -4.83301 -8.83301 -8.5 -14.5s-12.667 -13.167 -27 -22.5s-30.833 -14 -49.5 -14c-20 0 -46.333 7.66699 -79 23s-57.667 23 -75 23c-11.333 0 -22 -3.33301 -32 -10s-17.333 -13.334 -22 -20.001l-6 -9l-23 25
c0.666992 2 1.83398 4.33301 3.50098 7s5.5 7.66699 11.5 15s12.333 13.666 19 18.999s15.667 10.333 27 15s23 7 35 7c22 0 48.833 -7.66699 80.5 -23s55.5 -23 71.5 -23c10.667 0 20.167 2.16699 28.5 6.5s14.166 8.83301 17.499 13.5zM557 650.002v-650h-66l-346 554h-1
l5 -31v-523h-55v650h79l332 -536l-3 24v512h55z" />
    <glyph glyph-name="Ograve" unicode="&#xd2;" horiz-adv-x="654" 
d="M213 843l62 16l83 -143l-40 -8zM525 324c0 92.667 -17.167 163.667 -51.5 213s-83.5 74 -147.5 74c-63.333 0 -112 -24.667 -146 -74s-51 -120.333 -51 -213c0 -93.333 16.833 -164.333 50.5 -213s82.5 -73 146.5 -73s113.167 24.333 147.5 73s51.5 119.667 51.5 213z
M606 324c0 -104 -24.667 -185.667 -74 -245s-118 -89 -206 -89c-87.333 0 -155.5 29.667 -204.5 89s-73.5 141 -73.5 245c0 103.333 24.5 185 73.5 245s117.167 90 204.5 90s155.833 -30 205.5 -90s74.5 -141.667 74.5 -245z" />
    <glyph glyph-name="Oacute" unicode="&#xd3;" horiz-adv-x="654" 
d="M370 856l63 -15l-102 -135l-38 5zM525 324c0 92.667 -17.167 163.667 -51.5 213s-83.5 74 -147.5 74c-63.333 0 -112 -24.667 -146 -74s-51 -120.333 -51 -213c0 -93.333 16.833 -164.333 50.5 -213s82.5 -73 146.5 -73s113.167 24.333 147.5 73s51.5 119.667 51.5 213z
M606 324c0 -104 -24.667 -185.667 -74 -245s-118 -89 -206 -89c-87.333 0 -155.5 29.667 -204.5 89s-73.5 141 -73.5 245c0 103.333 24.5 185 73.5 245s117.167 90 204.5 90s155.833 -30 205.5 -90s74.5 -141.667 74.5 -245z" />
    <glyph glyph-name="Ocircumflex" unicode="&#xd4;" horiz-adv-x="654" 
d="M346 878l108 -114l-18 -32l-110 97l-110 -97l-19 32l110 114h39zM525 324c0 92.667 -17.167 163.667 -51.5 213s-83.5 74 -147.5 74c-63.333 0 -112 -24.667 -146 -74s-51 -120.333 -51 -213c0 -93.333 16.833 -164.333 50.5 -213s82.5 -73 146.5 -73
s113.167 24.333 147.5 73s51.5 119.667 51.5 213zM606 324c0 -104 -24.667 -185.667 -74 -245s-118 -89 -206 -89c-87.333 0 -155.5 29.667 -204.5 89s-73.5 141 -73.5 245c0 103.333 24.5 185 73.5 245s117.167 90 204.5 90s155.833 -30 205.5 -90s74.5 -141.667 74.5 -245
z" />
    <glyph glyph-name="Otilde" unicode="&#xd5;" horiz-adv-x="654" 
d="M467 806l22.9971 -24.998c-2 -4 -4.83301 -8.83301 -8.5 -14.5s-12.667 -13.167 -27 -22.5s-30.833 -14 -49.5 -14c-20 0 -46.333 7.66699 -79 23s-57.667 23 -75 23c-11.333 0 -22 -3.33301 -32 -10s-17 -13.334 -21 -20.001l-7 -9l-23 25
c0.666992 2 1.83398 4.33301 3.50098 7s5.5 7.66699 11.5 15s12.333 13.666 19 18.999s15.667 10.333 27 15s23 7 35 7c22 0 48.833 -7.66699 80.5 -23s55.5 -23 71.5 -23c10.667 0 20.334 2.16699 29.001 6.5s14.334 8.83301 17.001 13.5zM524.997 324.002
c0 92.667 -17.167 163.667 -51.5 213s-83.5 74 -147.5 74c-63.333 0 -112 -24.667 -146 -74s-51 -120.333 -51 -213c0 -93.333 16.833 -164.333 50.5 -213s82.5 -73 146.5 -73s113.167 24.333 147.5 73s51.5 119.667 51.5 213zM605.997 324.002
c0 -104 -24.667 -185.667 -74 -245s-118 -89 -206 -89c-87.333 0 -155.5 29.667 -204.5 89s-73.5 141 -73.5 245c0 103.333 24.5 185 73.5 245s117.167 90 204.5 90s155.833 -30 205.5 -90s74.5 -141.667 74.5 -245z" />
    <glyph glyph-name="Odieresis" unicode="&#xd6;" horiz-adv-x="654" 
d="M221 809c8.66699 6.66699 17.667 10.001 27 10.001c8.66699 0 17.334 -3.33301 26.001 -10c7.33301 -8.66699 11 -18.667 11 -30c0 -10.667 -3.66699 -20.334 -11 -29.001c-8.66699 -6.66699 -17.334 -10 -26.001 -10c-9.33301 0 -18.333 3.33301 -27 10
c-7.33301 7.33301 -11 17 -11 29c0 12.667 3.66699 22.667 11 30zM375 809.001c8.66699 6.66699 17.334 10 26.001 10s17.334 -3.33301 26.001 -10c8 -8 12 -18 12 -30c0 -11.333 -4 -21 -12 -29c-8.66699 -6.66699 -17.334 -10 -26.001 -10s-17.334 3.33301 -26.001 10
c-7.33301 7.33301 -11 17 -11 29c0 12.667 3.66699 22.667 11 30zM525 324.001c0 92.667 -17.167 163.667 -51.5 213s-83.5 74 -147.5 74c-63.333 0 -112 -24.667 -146 -74s-51 -120.333 -51 -213c0 -93.333 16.833 -164.333 50.5 -213s82.5 -73 146.5 -73
s113.167 24.333 147.5 73s51.5 119.667 51.5 213zM606 324.001c0 -104 -24.667 -185.667 -74 -245s-118 -89 -206 -89c-87.333 0 -155.5 29.667 -204.5 89s-73.5 141 -73.5 245c0 103.333 24.5 185 73.5 245s117.167 90 204.5 90s155.833 -30 205.5 -90
s74.5 -141.667 74.5 -245z" />
    <glyph glyph-name="multiply" unicode="&#xd7;" horiz-adv-x="353" 
d="M313 442l-105 -122l105 -122l-31 -37l-105 122l-105 -122l-31 37l104 122l-105 122l31 38l105 -123l106 123z" />
    <glyph glyph-name="Oslash" unicode="&#xd8;" horiz-adv-x="654" 
d="M525 324c0 112 -25 192 -75 240l-205 -510c23.333 -10.667 50.333 -16 81 -16c64 0 113.167 24.333 147.5 73s51.5 119.667 51.5 213zM129 324c0 -128 31.001 -213.333 93.001 -256l205 514c-28.667 19.333 -62.334 29 -101.001 29c-63.333 0 -112 -24.667 -146 -74
s-51 -120.333 -51 -213zM606.001 324c0 -104 -24.6689 -185.666 -74.002 -244.999s-118 -89 -206 -89c-34.667 0 -68 5.33301 -100 16l-43 -107l-26 6l44 111c-49.333 24 -87.166 62.333 -113.499 115s-39.5 117 -39.5 193c0 103.333 24.5 185 73.5 245s117.167 90 204.5 90
c44.667 0 85.334 -8.66699 122.001 -26l38 95l28 -6l-41 -102c42.667 -26.667 75.5 -65.334 98.5 -116.001s34.5 -110.667 34.5 -180z" />
    <glyph glyph-name="Ugrave" unicode="&#xd9;" horiz-adv-x="620" 
d="M213 843l62 16l83 -143l-40 -8zM310 -10c-72.667 0 -128.167 20 -166.5 60s-57.5 94 -57.5 162v438h75v-421c0 -60.667 13.333 -107.167 40 -139.5s65.667 -48.5 117 -48.5c53.333 0 93.5 16.5 120.5 49.5s40.5 79.167 40.5 138.5v421h55v-438
c0 -68 -18.667 -122 -56 -162s-93.333 -60 -168 -60z" />
    <glyph glyph-name="Uacute" unicode="&#xda;" horiz-adv-x="620" 
d="M351 856l63 -15l-102 -135l-38 5zM310 -10c-72.667 0 -128.167 20 -166.5 60s-57.5 94 -57.5 162v438h75v-421c0 -60.667 13.333 -107.167 40 -139.5s65.667 -48.5 117 -48.5c53.333 0 93.5 16.5 120.5 49.5s40.5 79.167 40.5 138.5v421h55v-438
c0 -68 -18.667 -122 -56 -162s-93.333 -60 -168 -60z" />
    <glyph glyph-name="Ucircumflex" unicode="&#xdb;" horiz-adv-x="620" 
d="M340 878l108 -114l-18 -32l-110 97l-110 -97l-19 32l110 114h39zM310 -10c-72.667 0 -128.167 20 -166.5 60s-57.5 94 -57.5 162v438h75v-421c0 -60.667 13.333 -107.167 40 -139.5s65.667 -48.5 117 -48.5c53.333 0 93.5 16.5 120.5 49.5s40.5 79.167 40.5 138.5v421h55
v-438c0 -68 -18.667 -122 -56 -162s-93.333 -60 -168 -60z" />
    <glyph glyph-name="Udieresis" unicode="&#xdc;" horiz-adv-x="620" 
d="M216 809c8.66699 6.66699 17.334 10.001 26.001 10.001c9.33301 0 18.333 -3.33301 27 -10c7.33301 -8.66699 11 -18.667 11 -30c0 -10.667 -3.66699 -20.334 -11 -29.001c-8.66699 -6.66699 -17.667 -10 -27 -10c-8.66699 0 -17.334 3.33301 -26.001 10
c-7.33301 7.33301 -11 17 -11 29c0 12.667 3.66699 22.667 11 30zM370 809.001c8.66699 6.66699 17.334 10 26.001 10s17.334 -3.33301 26.001 -10c8 -8 12 -18 12 -30c0 -11.333 -4 -21 -12 -29c-8.66699 -6.66699 -17.334 -10 -26.001 -10s-17.334 3.33301 -26.001 10
c-7.33301 7.33301 -11 17 -11 29c0 12.667 3.66699 22.667 11 30zM310 -9.99902c-72.667 0 -128.167 20 -166.5 60s-57.5 94 -57.5 162v438h75v-421c0 -60.667 13.333 -107.167 40 -139.5s65.667 -48.5 117 -48.5c53.333 0 93.5 16.5 120.5 49.5s40.5 79.167 40.5 138.5v421
h55v-438c0 -68 -18.667 -122 -56 -162s-93.333 -60 -168 -60z" />
    <glyph glyph-name="Yacute" unicode="&#xdd;" horiz-adv-x="507" 
d="M314 856l63 -15l-102 -135l-38 5zM2 650h85l179 -320l178 320h61l-212 -376v-274h-76v269z" />
    <glyph glyph-name="Thorn" unicode="&#xde;" horiz-adv-x="514" 
d="M257 495h-76v-341h76c92.667 0 139 58 139 174c0 111.333 -46.333 167 -139 167zM181 650l0.00195312 -109h81c66.667 0 118.5 -17.5 155.5 -52.5s55.5 -87.5 55.5 -157.5c0 -40 -6.16699 -74.833 -18.5 -104.5s-28.833 -52.667 -49.5 -69s-42.834 -28.5 -66.501 -36.5
s-48.834 -12 -75.501 -12h-82v-109h-75v650h75z" />
    <glyph glyph-name="germandbls" unicode="&#xdf;" horiz-adv-x="530" 
d="M147 547l0.00195312 -547h-72v547c0 70.667 15.833 123.667 47.5 159s76.5 53 134.5 53c51.333 0 91.666 -12.333 120.999 -37s44 -59 44 -103c0 -62 -33 -106.667 -99 -134c114 -24.667 171 -107 171 -247c0 -165.333 -64.333 -248 -193 -248
c-25.333 0 -47.166 2.16699 -65.499 6.5s-30.166 8.83301 -35.499 13.5l-9 6l10 42c14.667 -14.667 42 -22 82 -22c88.667 0 133 67 133 201c0 78 -14.167 133.333 -42.5 166s-75.5 49 -141.5 49v48c3.33301 0 7.66602 0.333008 12.999 1s14.666 3.33398 27.999 8.00098
s25.166 10.667 35.499 18s19.833 18.5 28.5 33.5s13 32.167 13 51.5c0 33.333 -8.33301 58.666 -25 75.999s-40.667 26 -72 26c-70.667 0 -106 -55.667 -106 -167z" />
    <glyph glyph-name="agrave" unicode="&#xe0;" horiz-adv-x="477" 
d="M121 708l62 16l83 -143l-40 -8zM315 107l-0.000976562 146.001c-138.667 -15.333 -208 -59 -208 -131c0 -28.667 8.33301 -50.5 25 -65.5s39.334 -22.5 68.001 -22.5c15.333 0 29.833 2.5 43.5 7.5s24.667 11 33 18s15.5 14.167 21.5 21.5s10.333 13.666 13 18.999z
M88.999 423.001l-8.00195 41.002c45.333 30.667 92.333 46 141 46c57.333 0 99.333 -12 126 -36s40 -66.333 40 -127v-245c0 -45.333 8.66699 -68 26 -68c4.66699 0 10.167 0.666992 16.5 2s11.5 2.66602 15.5 3.99902l7 3l3 -34c-32.667 -12.667 -58.667 -19 -78 -19
c-17.333 0 -30.666 5.5 -39.999 16.5s-15 30.5 -17 58.5h-1c-0.666992 -2 -2.16699 -4.66699 -4.5 -8s-7.33301 -9.33301 -15 -18s-16.5 -16.334 -26.5 -23.001s-23.5 -12.667 -40.5 -18s-35.5 -8 -55.5 -8c-44 0 -79.333 10.833 -106 32.5s-40 51.834 -40 90.501
c0 98 94.333 157 283 177v53c0 47.333 -7.66699 79.666 -23 96.999s-42.333 26 -81 26c-17.333 0 -36.166 -3.66699 -56.499 -11s-36.5 -14.333 -48.5 -21z" />
    <glyph glyph-name="aacute" unicode="&#xe1;" horiz-adv-x="477" 
d="M277 721l63 -15l-102 -135l-38 5zM315 107l-0.000976562 146.001c-138.667 -15.333 -208 -59 -208 -131c0 -28.667 8.33301 -50.5 25 -65.5s39.334 -22.5 68.001 -22.5c15.333 0 29.833 2.5 43.5 7.5s24.667 11 33 18s15.5 14.167 21.5 21.5s10.333 13.666 13 18.999z
M88.999 423.001l-8.00195 41.002c45.333 30.667 92.333 46 141 46c57.333 0 99.333 -12 126 -36s40 -66.333 40 -127v-245c0 -45.333 8.66699 -68 26 -68c4.66699 0 10.167 0.666992 16.5 2s11.5 2.66602 15.5 3.99902l7 3l3 -34c-32.667 -12.667 -58.667 -19 -78 -19
c-17.333 0 -30.666 5.5 -39.999 16.5s-15 30.5 -17 58.5h-1c-0.666992 -2 -2.16699 -4.66699 -4.5 -8s-7.33301 -9.33301 -15 -18s-16.5 -16.334 -26.5 -23.001s-23.5 -12.667 -40.5 -18s-35.5 -8 -55.5 -8c-44 0 -79.333 10.833 -106 32.5s-40 51.834 -40 90.501
c0 98 94.333 157 283 177v53c0 47.333 -7.66699 79.666 -23 96.999s-42.333 26 -81 26c-17.333 0 -36.166 -3.66699 -56.499 -11s-36.5 -14.333 -48.5 -21z" />
    <glyph glyph-name="acircumflex" unicode="&#xe2;" horiz-adv-x="477" 
d="M253 743l108 -114l-18 -32l-110 97l-110 -97l-19 32l110 114h39zM315 107l-0.000976562 146.001c-138.667 -15.333 -208 -59 -208 -131c0 -28.667 8.33301 -50.5 25 -65.5s39.334 -22.5 68.001 -22.5c15.333 0 29.833 2.5 43.5 7.5s24.667 11 33 18
s15.5 14.167 21.5 21.5s10.333 13.666 13 18.999zM88.999 423.001l-8.00195 41.002c45.333 30.667 92.333 46 141 46c57.333 0 99.333 -12 126 -36s40 -66.333 40 -127v-245c0 -45.333 8.66699 -68 26 -68c4.66699 0 10.167 0.666992 16.5 2s11.5 2.66602 15.5 3.99902l7 3
l3 -34c-32.667 -12.667 -58.667 -19 -78 -19c-17.333 0 -30.666 5.5 -39.999 16.5s-15 30.5 -17 58.5h-1c-0.666992 -2 -2.16699 -4.66699 -4.5 -8s-7.33301 -9.33301 -15 -18s-16.5 -16.334 -26.5 -23.001s-23.5 -12.667 -40.5 -18s-35.5 -8 -55.5 -8
c-44 0 -79.333 10.833 -106 32.5s-40 51.834 -40 90.501c0 98 94.333 157 283 177v53c0 47.333 -7.66699 79.666 -23 96.999s-42.333 26 -81 26c-17.333 0 -36.166 -3.66699 -56.499 -11s-36.5 -14.333 -48.5 -21z" />
    <glyph glyph-name="atilde" unicode="&#xe3;" horiz-adv-x="477" 
d="M375 671l22.9971 -24.999c-2 -4 -4.83301 -8.83301 -8.5 -14.5s-12.667 -13.167 -27 -22.5s-30.833 -14 -49.5 -14c-20 0 -46.333 7.66699 -79 23s-57.667 23 -75 23c-11.333 0 -22 -3.16699 -32 -9.5s-17 -12.833 -21 -19.5l-7 -10l-23 25
c0.666992 2 1.83398 4.33301 3.50098 7s5.5 7.66699 11.5 15s12.333 13.666 19 18.999s15.667 10.333 27 15s23 7 35 7c22 0 48.833 -7.66699 80.5 -23s55.5 -23 71.5 -23c10.667 0 20.334 2.33301 29.001 7s14.334 9 17.001 13zM314.997 107.001l-0.000976562 146.001
c-138.667 -15.333 -208 -59 -208 -131c0 -28.667 8.33301 -50.5 25 -65.5s39.334 -22.5 68.001 -22.5c15.333 0 29.833 2.5 43.5 7.5s24.667 11 33 18s15.5 14.167 21.5 21.5s10.333 13.666 13 18.999zM88.9961 423.002l-8.00195 41.002c45.333 30.667 92.333 46 141 46
c57.333 0 99.333 -12 126 -36s40 -66.333 40 -127v-245c0 -45.333 8.66699 -68 26 -68c4.66699 0 10.167 0.666992 16.5 2s11.5 2.66602 15.5 3.99902l7 3l3 -34c-32.667 -12.667 -58.667 -19 -78 -19c-17.333 0 -30.666 5.5 -39.999 16.5s-15 30.5 -17 58.5h-1
c-0.666992 -2 -2.16699 -4.66699 -4.5 -8s-7.33301 -9.33301 -15 -18s-16.5 -16.334 -26.5 -23.001s-23.5 -12.667 -40.5 -18s-35.5 -8 -55.5 -8c-44 0 -79.333 10.833 -106 32.5s-40 51.834 -40 90.501c0 98 94.333 157 283 177v53c0 47.333 -7.66699 79.666 -23 96.999
s-42.333 26 -81 26c-17.333 0 -36.166 -3.66699 -56.499 -11s-36.5 -14.333 -48.5 -21z" />
    <glyph glyph-name="adieresis" unicode="&#xe4;" horiz-adv-x="477" 
d="M128 674c8.66699 6.66699 17.334 10.001 26.001 10.001c9.33301 0 18.333 -3.33301 27 -10c7.33301 -8.66699 11 -18.667 11 -30c0 -10.667 -3.66699 -20.334 -11 -29.001c-8.66699 -6.66699 -17.667 -10 -27 -10c-8.66699 0 -17.334 3.33301 -26.001 10
c-7.33301 7.33301 -11 17 -11 29c0 12.667 3.66699 22.667 11 30zM282 674.001c8.66699 6.66699 17.334 10 26.001 10s17.334 -3.33301 26.001 -10c8 -8 12 -18 12 -30c0 -11.333 -4 -21 -12 -29c-8.66699 -6.66699 -17.334 -10 -26.001 -10s-17.334 3.33301 -26.001 10
c-7.33301 7.33301 -11 17 -11 29c0 12.667 3.66699 22.667 11 30zM315 107.001l-0.000976562 146.001c-138.667 -15.333 -208 -59 -208 -131c0 -28.667 8.33301 -50.5 25 -65.5s39.334 -22.5 68.001 -22.5c15.333 0 29.833 2.5 43.5 7.5s24.667 11 33 18
s15.5 14.167 21.5 21.5s10.333 13.666 13 18.999zM88.999 423.002l-8.00195 41.002c45.333 30.667 92.333 46 141 46c57.333 0 99.333 -12 126 -36s40 -66.333 40 -127v-245c0 -45.333 8.66699 -68 26 -68c4.66699 0 10.167 0.666992 16.5 2s11.5 2.66602 15.5 3.99902l7 3
l3 -34c-32.667 -12.667 -58.667 -19 -78 -19c-17.333 0 -30.666 5.5 -39.999 16.5s-15 30.5 -17 58.5h-1c-0.666992 -2 -2.16699 -4.66699 -4.5 -8s-7.33301 -9.33301 -15 -18s-16.5 -16.334 -26.5 -23.001s-23.5 -12.667 -40.5 -18s-35.5 -8 -55.5 -8
c-44 0 -79.333 10.833 -106 32.5s-40 51.834 -40 90.501c0 98 94.333 157 283 177v53c0 47.333 -7.66699 79.666 -23 96.999s-42.333 26 -81 26c-17.333 0 -36.166 -3.66699 -56.499 -11s-36.5 -14.333 -48.5 -21z" />
    <glyph glyph-name="aring" unicode="&#xe5;" horiz-adv-x="477" 
d="M293 644c0 22.667 -5.5 39.5 -16.5 50.5s-25.5 16.5 -43.5 16.5s-32.667 -5.66699 -44 -17s-17 -28 -17 -50c0 -22.667 5.66699 -39.5 17 -50.5s26 -16.5 44 -16.5s32.5 5.5 43.5 16.5s16.5 27.833 16.5 50.5zM322 644c0 -30 -8.16699 -53 -24.5 -69
s-37.833 -24 -64.5 -24s-48.167 8 -64.5 24s-24.5 39 -24.5 69c0 29.333 8.33301 52.333 25 69s38 25 64 25c25.333 0 46.5 -8.33301 63.5 -25s25.5 -39.667 25.5 -69zM315 107l-0.000976562 146.001c-138.667 -15.333 -208 -59 -208 -131c0 -28.667 8.33301 -50.5 25 -65.5
s39.334 -22.5 68.001 -22.5c15.333 0 29.833 2.5 43.5 7.5s24.667 11 33 18s15.5 14.167 21.5 21.5s10.333 13.666 13 18.999zM88.999 423.001l-8.00195 41.002c45.333 30.667 92.333 46 141 46c57.333 0 99.333 -12 126 -36s40 -66.333 40 -127v-245
c0 -45.333 8.66699 -68 26 -68c4.66699 0 10.167 0.666992 16.5 2s11.5 2.66602 15.5 3.99902l7 3l3 -34c-32.667 -12.667 -58.667 -19 -78 -19c-17.333 0 -30.666 5.5 -39.999 16.5s-15 30.5 -17 58.5h-1c-0.666992 -2 -2.16699 -4.66699 -4.5 -8
s-7.33301 -9.33301 -15 -18s-16.5 -16.334 -26.5 -23.001s-23.5 -12.667 -40.5 -18s-35.5 -8 -55.5 -8c-44 0 -79.333 10.833 -106 32.5s-40 51.834 -40 90.501c0 98 94.333 157 283 177v53c0 47.333 -7.66699 79.666 -23 96.999s-42.333 26 -81 26
c-17.333 0 -36.166 -3.66699 -56.499 -11s-36.5 -14.333 -48.5 -21z" />
    <glyph glyph-name="ae" unicode="&#xe6;" horiz-adv-x="727" 
d="M200 34c17.333 0 32.668 4.00195 46.001 12.002s23.833 17.833 31.5 29.5s14.167 25.667 19.5 42s9.16602 30.666 11.499 42.999s3.83301 25.166 4.5 38.499c-1.33301 17.333 -2 31 -2 41v15c-136 -15.333 -204 -59.333 -204 -132c0 -28.667 8.5 -50.667 25.5 -66
s39.5 -23 67.5 -23zM516.002 467.002c-78.667 0 -121.333 -63 -128 -189h239c0.666992 6.66699 1 13 1 19c0 113.333 -37.333 170 -112 170zM662.003 99.002l29.0049 -23.999c-1.33301 -2 -3.16602 -5 -5.49902 -9s-8.33301 -10.833 -18 -20.5
s-20.334 -18.334 -32.001 -26.001s-27.334 -14.5 -47.001 -20.5s-40.834 -9 -63.501 -9c-98 0 -162.667 41.667 -194 125c-24.667 -83.333 -75.667 -125 -153 -125c-43.333 0 -78.5 11 -105.5 33s-40.5 52.333 -40.5 91c0 100 93 159 279 177v40
c0 50.667 -6.5 85.834 -19.5 105.501s-37.5 29.5 -73.5 29.5c-17.333 0 -36 -3.66699 -56 -11s-36 -14.333 -48 -21l-17 -11l-9 41c45.333 30.667 92.666 46 141.999 46c36.667 0 65.167 -6.5 85.5 -19.5s34.5 -33.833 42.5 -62.5c36 54.667 88.667 82 158 82
c57.333 0 101.5 -19.833 132.5 -59.5s46.5 -95.834 46.5 -168.501l-5 -46h-303c0 -134.667 48.667 -202 146 -202c16.667 0 32.5 2.16699 47.5 6.5s27.167 9.83301 36.5 16.5s17.666 13.167 24.999 19.5s12.666 11.5 15.999 15.5z" />
    <glyph glyph-name="ccedilla" unicode="&#xe7;" horiz-adv-x="423" 
d="M386 426c-38 26.667 -78.999 40.001 -122.999 40.001c-51.333 0 -89 -17 -113 -51s-36 -90.333 -36 -169c0 -141.333 48.333 -212 145 -212c16 0 31.333 2.16699 46 6.5s26.5 9.5 35.5 15.5s16.833 12 23.5 18s11.334 11.333 14.001 16l5 6l32 -21
c-1.33301 -2 -3 -4.83301 -5 -8.5s-7.33301 -10.334 -16 -20.001s-18.334 -18.167 -29.001 -25.5s-25.5 -14.166 -44.5 -20.499s-39.167 -9.83301 -60.5 -10.5l-6 -59l24 -6c16 -4 32 -12.667 48 -26s24 -31.333 24 -54c0 -30 -8.83301 -53.5 -26.5 -70.5
s-43.5 -25.5 -77.5 -25.5c-20 0 -37.667 3.5 -53 10.5s-25.666 13.833 -30.999 20.5l-8 11l18 20c14.667 -21.333 37 -32 67 -32c44 0 66 22.667 66 68c0 17.333 -7 30.666 -21 39.999s-28 15 -42 17s-21 3.33301 -21 4l11 83c-62.667 4 -110.834 27.167 -144.501 69.5
s-50.5 103.833 -50.5 184.5c0 85.333 18.5 150.833 55.5 196.5s91.167 68.5 162.5 68.5c23.333 0 46.666 -3.66699 69.999 -11s41 -14.333 53 -21l17 -11z" />
    <glyph glyph-name="egrave" unicode="&#xe8;" horiz-adv-x="453" 
d="M130 708l62 16l83 -143l-40 -8zM242 467c-78.667 0 -121.333 -63 -128 -189h239c0.666992 6.66699 1 13 1 19c0 113.333 -37.333 170 -112 170zM388.001 99l29.0039 -23.998c-1.33301 -2 -3.16602 -5 -5.49902 -9s-8.33301 -10.833 -18 -20.5
s-20.334 -18.334 -32.001 -26.001s-27.334 -14.5 -47.001 -20.5s-40.834 -9 -63.501 -9c-66.667 0 -119 20.833 -157 62.5s-57 104.167 -57 187.5c0 84 18.333 150 55 198s86.667 72 150 72c57.333 0 101.5 -19.833 132.5 -59.5s46.5 -95.834 46.5 -168.501l-5 -46h-303
c0 -134.667 48.667 -202 146 -202c16.667 0 32.5 2.16699 47.5 6.5s27.167 9.83301 36.5 16.5s17.666 13.167 24.999 19.5s12.666 11.5 15.999 15.5z" />
    <glyph glyph-name="eacute" unicode="&#xe9;" horiz-adv-x="453" 
d="M287 721l63 -15l-102 -135l-38 5zM242 467c-78.667 0 -121.333 -63 -128 -189h239c0.666992 6.66699 1 13 1 19c0 113.333 -37.333 170 -112 170zM388.001 99l29.0039 -23.998c-1.33301 -2 -3.16602 -5 -5.49902 -9s-8.33301 -10.833 -18 -20.5
s-20.334 -18.334 -32.001 -26.001s-27.334 -14.5 -47.001 -20.5s-40.834 -9 -63.501 -9c-66.667 0 -119 20.833 -157 62.5s-57 104.167 -57 187.5c0 84 18.333 150 55 198s86.667 72 150 72c57.333 0 101.5 -19.833 132.5 -59.5s46.5 -95.834 46.5 -168.501l-5 -46h-303
c0 -134.667 48.667 -202 146 -202c16.667 0 32.5 2.16699 47.5 6.5s27.167 9.83301 36.5 16.5s17.666 13.167 24.999 19.5s12.666 11.5 15.999 15.5z" />
    <glyph glyph-name="ecircumflex" unicode="&#xea;" horiz-adv-x="453" 
d="M262 743l108 -114l-18 -32l-110 97l-110 -97l-19 32l110 114h39zM242 467c-78.667 0 -121.333 -63 -128 -189h239c0.666992 6.66699 1 13 1 19c0 113.333 -37.333 170 -112 170zM388.001 99l29.0039 -23.998c-1.33301 -2 -3.16602 -5 -5.49902 -9
s-8.33301 -10.833 -18 -20.5s-20.334 -18.334 -32.001 -26.001s-27.334 -14.5 -47.001 -20.5s-40.834 -9 -63.501 -9c-66.667 0 -119 20.833 -157 62.5s-57 104.167 -57 187.5c0 84 18.333 150 55 198s86.667 72 150 72c57.333 0 101.5 -19.833 132.5 -59.5
s46.5 -95.834 46.5 -168.501l-5 -46h-303c0 -134.667 48.667 -202 146 -202c16.667 0 32.5 2.16699 47.5 6.5s27.167 9.83301 36.5 16.5s17.666 13.167 24.999 19.5s12.666 11.5 15.999 15.5z" />
    <glyph glyph-name="edieresis" unicode="&#xeb;" horiz-adv-x="453" 
d="M138 674c8.66699 6.66699 17.334 10.001 26.001 10.001c9.33301 0 18.333 -3.33301 27 -10c7.33301 -8.66699 11 -18.667 11 -30c0 -10.667 -3.66699 -20.334 -11 -29.001c-8.66699 -6.66699 -17.667 -10 -27 -10c-8.66699 0 -17.334 3.33301 -26.001 10
c-7.33301 7.33301 -11 17 -11 29c0 12.667 3.66699 22.667 11 30zM292 674.001c8.66699 6.66699 17.334 10 26.001 10s17.334 -3.33301 26.001 -10c8 -8 12 -18 12 -30c0 -11.333 -4 -21 -12 -29c-8.66699 -6.66699 -17.334 -10 -26.001 -10s-17.334 3.33301 -26.001 10
c-7.33301 7.33301 -11 17 -11 29c0 12.667 3.66699 22.667 11 30zM242 467.001c-78.667 0 -121.333 -63 -128 -189h239c0.666992 6.66699 1 13 1 19c0 113.333 -37.333 170 -112 170zM388.001 99.001l29.0039 -23.998c-1.33301 -2 -3.16602 -5 -5.49902 -9
s-8.33301 -10.833 -18 -20.5s-20.334 -18.334 -32.001 -26.001s-27.334 -14.5 -47.001 -20.5s-40.834 -9 -63.501 -9c-66.667 0 -119 20.833 -157 62.5s-57 104.167 -57 187.5c0 84 18.333 150 55 198s86.667 72 150 72c57.333 0 101.5 -19.833 132.5 -59.5
s46.5 -95.834 46.5 -168.501l-5 -46h-303c0 -134.667 48.667 -202 146 -202c16.667 0 32.5 2.16699 47.5 6.5s27.167 9.83301 36.5 16.5s17.666 13.167 24.999 19.5s12.666 11.5 15.999 15.5z" />
    <glyph glyph-name="igrave" unicode="&#xec;" horiz-adv-x="222" 
d="M-3 708l62 16l83 -143l-40 -8zM147 500v-500h-73v500h73z" />
    <glyph glyph-name="iacute" unicode="&#xed;" horiz-adv-x="222" 
d="M154 721l63 -15l-102 -135l-38 5zM147 500v-500h-73v500h73z" />
    <glyph glyph-name="icircumflex" unicode="&#xee;" horiz-adv-x="222" 
d="M131 743l108 -114l-18 -32l-110 97l-110 -97l-19 32l110 114h39zM147 500v-500h-73v500h73z" />
    <glyph glyph-name="idieresis" unicode="&#xef;" horiz-adv-x="222" 
d="M7 674c8.66699 6.66699 17.667 10.001 27 10.001c8.66699 0 17.334 -3.33301 26.001 -10c7.33301 -8.66699 11 -18.667 11 -30c0 -10.667 -3.66699 -20.334 -11 -29.001c-8.66699 -6.66699 -17.334 -10 -26.001 -10c-9.33301 0 -18.333 3.33301 -27 10
c-7.33301 7.33301 -11 17 -11 29c0 12.667 3.66699 22.667 11 30zM161 674.001c8.66699 6.66699 17.334 10 26.001 10s17.334 -3.33301 26.001 -10c8 -8 12 -18 12 -30c0 -11.333 -4 -21 -12 -29c-8.66699 -6.66699 -17.334 -10 -26.001 -10s-17.334 3.33301 -26.001 10
c-7.33301 7.33301 -11 17 -11 29c0 12.667 3.66699 22.667 11 30zM147 500.001v-500h-73v500h73z" />
    <glyph glyph-name="eth" unicode="&#xf0;" horiz-adv-x="508" 
d="M250 467c-90.667 0 -136 -72.333 -136 -217c0 -72.667 11 -127 33 -163s56.333 -54 103 -54s81 18 103 54s33 90.333 33 163c0 144.667 -45.333 217 -136 217zM38 250c0 82 17.666 145.831 52.999 191.498s86 68.5 152 68.5c56 0 103.333 -22 142 -66
c-15.333 84.667 -45.666 153.334 -90.999 206.001l-108 -62l-12 26l100 57c-16.667 16.667 -36 32.334 -58 47.001l38 22c22 -12 43 -27 63 -45l83 48l12 -26l-74 -42c84 -89.333 126 -227 126 -413c0 -88 -18.167 -155.333 -54.5 -202s-89.5 -70 -159.5 -70
c-67.333 0 -119.5 22.833 -156.5 68.5s-55.5 109.5 -55.5 191.5z" />
    <glyph glyph-name="ntilde" unicode="&#xf1;" horiz-adv-x="512" 
d="M384 671l23 -24.999c-2 -4 -4.83301 -8.83301 -8.5 -14.5s-12.667 -13.167 -27 -22.5s-30.833 -14 -49.5 -14c-20 0 -46.333 7.66699 -79 23s-57.667 23 -75 23c-11.333 0 -22 -3.16699 -32 -9.5s-17.333 -12.833 -22 -19.5l-6 -10l-23 25
c0.666992 2 1.83398 4.33301 3.50098 7s5.5 7.66699 11.5 15s12.333 13.666 19 18.999s15.667 10.333 27 15s23 7 35 7c22 0 48.833 -7.66699 80.5 -23s55.5 -23 71.5 -23c10.667 0 20.167 2.33301 28.5 7s14.166 9 17.499 13zM75 0.000976562l0.000976562 500h60l9 -48
c33.333 38.667 82.666 58 147.999 58c48 0 85.333 -13.5 112 -40.5s40 -67.167 40 -120.5v-349h-73v334c0 82 -34.333 123 -103 123c-24 0 -46.167 -4.16699 -66.5 -12.5s-34.5 -16.5 -42.5 -24.5l-12 -13v-407h-72z" />
    <glyph glyph-name="ograve" unicode="&#xf2;" horiz-adv-x="501" 
d="M132 708l62 16l83 -143l-40 -8zM250 466c-46.667 0 -81 -17.8311 -103 -53.498s-33 -89.834 -33 -162.501s11 -126.834 33 -162.501s56.333 -53.5 103 -53.5c90.667 0 136 72 136 216s-45.333 216 -136 216zM463 250.002c0 -82 -18.499 -145.833 -55.499 -191.5
s-89.5 -68.5 -157.5 -68.5c-69.333 0 -122.166 22.667 -158.499 68s-54.5 109.333 -54.5 192s18.167 146.667 54.5 192s89.166 68 158.499 68s122.166 -22.667 158.499 -68s54.5 -109.333 54.5 -192z" />
    <glyph glyph-name="oacute" unicode="&#xf3;" horiz-adv-x="501" 
d="M289 721l63 -15l-102 -135l-38 5zM250 466c-46.667 0 -81 -17.8311 -103 -53.498s-33 -89.834 -33 -162.501s11 -126.834 33 -162.501s56.333 -53.5 103 -53.5c90.667 0 136 72 136 216s-45.333 216 -136 216zM463 250.002c0 -82 -18.499 -145.833 -55.499 -191.5
s-89.5 -68.5 -157.5 -68.5c-69.333 0 -122.166 22.667 -158.499 68s-54.5 109.333 -54.5 192s18.167 146.667 54.5 192s89.166 68 158.499 68s122.166 -22.667 158.499 -68s54.5 -109.333 54.5 -192z" />
    <glyph glyph-name="ocircumflex" unicode="&#xf4;" horiz-adv-x="501" 
d="M264 743l108 -114l-18 -32l-110 97l-110 -97l-19 32l110 114h39zM250 466c-46.667 0 -81 -17.8311 -103 -53.498s-33 -89.834 -33 -162.501s11 -126.834 33 -162.501s56.333 -53.5 103 -53.5c90.667 0 136 72 136 216s-45.333 216 -136 216zM463 250.002
c0 -82 -18.499 -145.833 -55.499 -191.5s-89.5 -68.5 -157.5 -68.5c-69.333 0 -122.166 22.667 -158.499 68s-54.5 109.333 -54.5 192s18.167 146.667 54.5 192s89.166 68 158.499 68s122.166 -22.667 158.499 -68s54.5 -109.333 54.5 -192z" />
    <glyph glyph-name="otilde" unicode="&#xf5;" horiz-adv-x="501" 
d="M386 671l23 -24.999c-2 -4 -4.83301 -8.83301 -8.5 -14.5s-12.667 -13.167 -27 -22.5s-30.833 -14 -49.5 -14c-20 0 -46.333 7.66699 -79 23s-57.667 23 -75 23c-11.333 0 -22 -3.16699 -32 -9.5s-17.333 -12.833 -22 -19.5l-6 -10l-23 25
c0.666992 2 1.83398 4.33301 3.50098 7s5.5 7.66699 11.5 15s12.333 13.666 19 18.999s15.667 10.333 27 15s23 7 35 7c22 0 48.833 -7.66699 80.5 -23s55.5 -23 71.5 -23c10.667 0 20.167 2.33301 28.5 7s14.166 9 17.499 13zM250 466.001
c-46.667 0 -81 -17.8311 -103 -53.498s-33 -89.834 -33 -162.501s11 -126.834 33 -162.501s56.333 -53.5 103 -53.5c90.667 0 136 72 136 216s-45.333 216 -136 216zM463 250.003c0 -82 -18.499 -145.833 -55.499 -191.5s-89.5 -68.5 -157.5 -68.5
c-69.333 0 -122.166 22.667 -158.499 68s-54.5 109.333 -54.5 192s18.167 146.667 54.5 192s89.166 68 158.499 68s122.166 -22.667 158.499 -68s54.5 -109.333 54.5 -192z" />
    <glyph glyph-name="odieresis" unicode="&#xf6;" horiz-adv-x="501" 
d="M140 674c8.66699 6.66699 17.334 10.001 26.001 10.001c9.33301 0 18.333 -3.33301 27 -10c7.33301 -8.66699 11 -18.667 11 -30c0 -10.667 -3.66699 -20.334 -11 -29.001c-8.66699 -6.66699 -17.667 -10 -27 -10c-8.66699 0 -17.334 3.33301 -26.001 10
c-7.33301 7.33301 -11 17 -11 29c0 12.667 3.66699 22.667 11 30zM294 674.001c8.66699 6.66699 17.334 10 26.001 10s17.334 -3.33301 26.001 -10c8 -8 12 -18 12 -30c0 -11.333 -4 -21 -12 -29c-8.66699 -6.66699 -17.334 -10 -26.001 -10s-17.334 3.33301 -26.001 10
c-7.33301 7.33301 -11 17 -11 29c0 12.667 3.66699 22.667 11 30zM250 466.001c-46.667 0 -81 -17.8311 -103 -53.498s-33 -89.834 -33 -162.501s11 -126.834 33 -162.501s56.333 -53.5 103 -53.5c90.667 0 136 72 136 216s-45.333 216 -136 216zM463 250.003
c0 -82 -18.499 -145.833 -55.499 -191.5s-89.5 -68.5 -157.5 -68.5c-69.333 0 -122.166 22.667 -158.499 68s-54.5 109.333 -54.5 192s18.167 146.667 54.5 192s89.166 68 158.499 68s122.166 -22.667 158.499 -68s54.5 -109.333 54.5 -192z" />
    <glyph glyph-name="divide" unicode="&#xf7;" horiz-adv-x="469" 
d="M436 277v-47h-402v47h402zM204 475c8.66699 8 18.999 12 30.999 12c12.667 0 23.334 -4 32.001 -12c8.66699 -8.66699 13 -20 13 -34s-4.33301 -25.333 -13 -34c-8.66699 -8 -19.334 -12 -32.001 -12c-11.333 0 -21.666 4 -30.999 12c-9.33301 8.66699 -14 20 -14 34
s4.66699 25.333 14 34zM201.999 100c9.33301 8 19.666 12 30.999 12c12.667 0 23.334 -4 32.001 -12c8.66699 -8.66699 13 -20 13 -34s-4.33301 -25.333 -13 -34c-8.66699 -8 -19.334 -12 -32.001 -12c-11.333 0 -21.666 4 -30.999 12c-9.33301 8.66699 -14 20 -14 34
s4.66699 25.333 14 34z" />
    <glyph glyph-name="oslash" unicode="&#xf8;" horiz-adv-x="510" 
d="M386 250c0 81.333 -13.666 139 -40.999 173l-147 -380c15.333 -6 32.666 -9 51.999 -9c90.667 0 136 72 136 216zM250.001 466c-46.667 0 -80.999 -17.832 -102.999 -53.499s-33 -89.834 -33 -162.501c0 -92.667 17.333 -155 52 -187l149 386
c-18.667 11.333 -40.334 17 -65.001 17zM463.002 250.001c0 -82 -18.5 -145.833 -55.5 -191.5s-89.5 -68.5 -157.5 -68.5c-25.333 0 -48.333 3 -69 9l-69 -178l-36 6l71 186c-73.333 38 -110 117 -110 237c0 82.667 18.167 146.667 54.5 192s89.166 68 158.499 68
c30.667 0 58.334 -4.66699 83.001 -14l60 154l37 -6l-64 -165c64.667 -40.667 97 -117 97 -229z" />
    <glyph glyph-name="ugrave" unicode="&#xf9;" horiz-adv-x="512" 
d="M140 708l62 16l83 -143l-40 -8zM437 500l0.00292969 -500h-61l-10 48c-4.66699 -6 -10.834 -12.5 -18.501 -19.5s-23.334 -15.167 -47.001 -24.5s-50.167 -14 -79.5 -14c-48.667 0 -86.334 13.5 -113.001 40.5s-40 67.167 -40 120.5v349h73v-334
c0 -82 34.667 -123 104 -123c24 0 45.833 4.16699 65.5 12.5s33.5 16.833 41.5 25.5l12 13v406h73z" />
    <glyph glyph-name="uacute" unicode="&#xfa;" horiz-adv-x="512" 
d="M297 721l63 -15l-102 -135l-38 5zM437 500l0.00292969 -500h-61l-10 48c-4.66699 -6 -10.834 -12.5 -18.501 -19.5s-23.334 -15.167 -47.001 -24.5s-50.167 -14 -79.5 -14c-48.667 0 -86.334 13.5 -113.001 40.5s-40 67.167 -40 120.5v349h73v-334
c0 -82 34.667 -123 104 -123c24 0 45.833 4.16699 65.5 12.5s33.5 16.833 41.5 25.5l12 13v406h73z" />
    <glyph glyph-name="ucircumflex" unicode="&#xfb;" horiz-adv-x="512" 
d="M273 743l108 -114l-18 -32l-110 97l-110 -97l-19 32l110 114h39zM437 500l0.00292969 -500h-61l-10 48c-4.66699 -6 -10.834 -12.5 -18.501 -19.5s-23.334 -15.167 -47.001 -24.5s-50.167 -14 -79.5 -14c-48.667 0 -86.334 13.5 -113.001 40.5s-40 67.167 -40 120.5v349
h73v-334c0 -82 34.667 -123 104 -123c24 0 45.833 4.16699 65.5 12.5s33.5 16.833 41.5 25.5l12 13v406h73z" />
    <glyph glyph-name="udieresis" unicode="&#xfc;" horiz-adv-x="512" 
d="M149 674c8.66699 6.66699 17.667 10.001 27 10.001c8.66699 0 17.334 -3.33301 26.001 -10c7.33301 -8.66699 11 -18.667 11 -30c0 -10.667 -3.66699 -20.334 -11 -29.001c-8.66699 -6.66699 -17.334 -10 -26.001 -10c-9.33301 0 -18.333 3.33301 -27 10
c-7.33301 7.33301 -11 17 -11 29c0 12.667 3.66699 22.667 11 30zM303 674.001c8.66699 6.66699 17.334 10 26.001 10s17.334 -3.33301 26.001 -10c8 -8 12 -18 12 -30c0 -11.333 -4 -21 -12 -29c-8.66699 -6.66699 -17.334 -10 -26.001 -10s-17.334 3.33301 -26.001 10
c-7.33301 7.33301 -11 17 -11 29c0 12.667 3.66699 22.667 11 30zM437 500.001l0.00292969 -500h-61l-10 48c-4.66699 -6 -10.834 -12.5 -18.501 -19.5s-23.334 -15.167 -47.001 -24.5s-50.167 -14 -79.5 -14c-48.667 0 -86.334 13.5 -113.001 40.5s-40 67.167 -40 120.5
v349h73v-334c0 -82 34.667 -123 104 -123c24 0 45.833 4.16699 65.5 12.5s33.5 16.833 41.5 25.5l12 13v406h73z" />
    <glyph glyph-name="yacute" unicode="&#xfd;" horiz-adv-x="449" 
d="M281 721l63 -15l-102 -135l-38 5zM24 -201c12.667 -6 26.3301 -8.99902 40.9971 -8.99902c30.667 0 56.334 16.5 77.001 49.5s43.667 84.5 69 154.5l-196 506h86l148 -418l134 418h53l-173 -508c-14 -39.333 -26.5 -72 -37.5 -98s-24.167 -51.833 -39.5 -77.5
s-32.166 -44.834 -50.499 -57.501s-38.166 -19 -59.499 -19c-12 0 -23 1 -33 3s-17 4.33301 -21 7l-6 3z" />
    <glyph glyph-name="thorn" unicode="&#xfe;" horiz-adv-x="514" 
d="M260 463c-18 0 -34.665 -3.16797 -49.998 -9.50098s-27.333 -14.5 -36 -24.5s-14.834 -17.833 -18.501 -23.5s-6.5 -10.5 -8.5 -14.5v-309c2.66699 -4 7 -9 13 -15s17.667 -12.5 35 -19.5s36.666 -10.5 57.999 -10.5c51.333 0 88.833 18.833 112.5 56.5
s35.5 93.834 35.5 168.501c0 134 -47 201 -141 201zM73.002 -252.001v752h1v248l73 4v-309h1c0.666992 2 2 4.5 4 7.5s6.5 8.33301 13.5 16s15.167 14.5 24.5 20.5s22 11.5 38 16.5s33.667 7.5 53 7.5c59.333 0 107 -21.833 143 -65.5s54 -104.167 54 -181.5
c0 -84 -17.667 -150.833 -53 -200.5s-86.333 -74.5 -153 -74.5c-53.333 0 -95.333 14.333 -126 43v-282z" />
    <glyph glyph-name="ydieresis" unicode="&#xff;" horiz-adv-x="449" 
d="M132 674c8.66699 6.66699 17.334 10.001 26.001 10.001c9.33301 0 18.333 -3.33301 27 -10c7.33301 -8.66699 11 -18.667 11 -30c0 -10.667 -3.66699 -20.334 -11 -29.001c-8.66699 -6.66699 -17.667 -10 -27 -10c-8.66699 0 -17.334 3.33301 -26.001 10
c-7.33301 7.33301 -11 17 -11 29c0 12.667 3.66699 22.667 11 30zM286 674.001c8.66699 6.66699 17.334 10 26.001 10s17.334 -3.33301 26.001 -10c8 -8 12 -18 12 -30c0 -11.333 -4 -21 -12 -29c-8.66699 -6.66699 -17.334 -10 -26.001 -10s-17.334 3.33301 -26.001 10
c-7.33301 7.33301 -11 17 -11 29c0 12.667 3.66699 22.667 11 30zM24 -200.999c12.667 -6 26.3301 -8.99902 40.9971 -8.99902c30.667 0 56.334 16.5 77.001 49.5s43.667 84.5 69 154.5l-196 506h86l148 -418l134 418h53l-173 -508c-14 -39.333 -26.5 -72 -37.5 -98
s-24.167 -51.833 -39.5 -77.5s-32.166 -44.834 -50.499 -57.501s-38.166 -19 -59.499 -19c-12 0 -23 1 -33 3s-17 4.33301 -21 7l-6 3z" />
    <glyph glyph-name="Amacron" unicode="&#x100;" horiz-adv-x="568" 
d="M378 807v-36h-186v36h186zM273 592l-115 -351h228zM242 650h89l215 -650h-79l-68 200h-255l-68 -200h-53z" />
    <glyph glyph-name="amacron" unicode="&#x101;" horiz-adv-x="477" 
d="M330 672v-36h-186v36h186zM315 107l-0.000976562 146.001c-138.667 -15.333 -208 -59 -208 -131c0 -28.667 8.33301 -50.5 25 -65.5s39.334 -22.5 68.001 -22.5c15.333 0 29.833 2.5 43.5 7.5s24.667 11 33 18s15.5 14.167 21.5 21.5s10.333 13.666 13 18.999z
M88.999 423.001l-8.00195 41.002c45.333 30.667 92.333 46 141 46c57.333 0 99.333 -12 126 -36s40 -66.333 40 -127v-245c0 -45.333 8.66699 -68 26 -68c4.66699 0 10.167 0.666992 16.5 2s11.5 2.66602 15.5 3.99902l7 3l3 -34c-32.667 -12.667 -58.667 -19 -78 -19
c-17.333 0 -30.666 5.5 -39.999 16.5s-15 30.5 -17 58.5h-1c-0.666992 -2 -2.16699 -4.66699 -4.5 -8s-7.33301 -9.33301 -15 -18s-16.5 -16.334 -26.5 -23.001s-23.5 -12.667 -40.5 -18s-35.5 -8 -55.5 -8c-44 0 -79.333 10.833 -106 32.5s-40 51.834 -40 90.501
c0 98 94.333 157 283 177v53c0 47.333 -7.66699 79.666 -23 96.999s-42.333 26 -81 26c-17.333 0 -36.166 -3.66699 -56.499 -11s-36.5 -14.333 -48.5 -21z" />
    <glyph glyph-name="Abreve" unicode="&#x102;" horiz-adv-x="568" 
d="M284 755c15.333 0 28.999 2 40.999 6s21.167 8.83301 27.5 14.5s11.5 11.5 15.5 17.5s6.66699 11 8 15l2 6v2l45 -6c0 -2.66699 -0.666992 -6.16699 -2 -10.5s-4.83301 -12.333 -10.5 -24s-13.167 -21.834 -22.5 -30.501s-23 -16.5 -41 -23.5s-39 -10.5 -63 -10.5
s-45 3.33301 -63 10s-31.5 14.834 -40.5 24.501s-16.167 19.5 -21.5 29.5s-8.66602 18.333 -9.99902 25l-2 10l45 6v-2c0 -1.33301 0.5 -3.33301 1.5 -6s3.66699 -7.5 8 -14.5s9.5 -13 15.5 -18s15 -9.66699 27 -14s25.333 -6.5 40 -6.5zM272.999 592l-115 -351h228z
M241.999 650h89l215 -650h-79l-68 200h-255l-68 -200h-53z" />
    <glyph glyph-name="abreve" unicode="&#x103;" horiz-adv-x="477" 
d="M233 620c24 0 43.832 5 59.499 15s25.5 19.667 29.5 29l5 15v2l45 -6c0 -2.66699 -0.666992 -6.16699 -2 -10.5s-4.83301 -12.333 -10.5 -24s-13.167 -21.834 -22.5 -30.501s-23 -16.5 -41 -23.5s-39 -10.5 -63 -10.5s-45 3.33301 -63 10s-31.5 15 -40.5 25
s-16.167 19.833 -21.5 29.5s-8.66602 17.834 -9.99902 24.501l-2 10l45 6v-2c0 -1.33301 0.5 -3.33301 1.5 -6s3.66699 -7.5 8 -14.5s9.5 -13 15.5 -18s15 -9.66699 27 -14s25.333 -6.5 40 -6.5zM314.999 107l-0.000976562 146.001c-138.667 -15.333 -208 -59 -208 -131
c0 -28.667 8.33301 -50.5 25 -65.5s39.334 -22.5 68.001 -22.5c15.333 0 29.833 2.5 43.5 7.5s24.667 11 33 18s15.5 14.167 21.5 21.5s10.333 13.666 13 18.999zM88.998 423.001l-8.00195 41.002c45.333 30.667 92.333 46 141 46c57.333 0 99.333 -12 126 -36
s40 -66.333 40 -127v-245c0 -45.333 8.66699 -68 26 -68c4.66699 0 10.167 0.666992 16.5 2s11.5 2.66602 15.5 3.99902l7 3l3 -34c-32.667 -12.667 -58.667 -19 -78 -19c-17.333 0 -30.666 5.5 -39.999 16.5s-15 30.5 -17 58.5h-1c-0.666992 -2 -2.16699 -4.66699 -4.5 -8
s-7.33301 -9.33301 -15 -18s-16.5 -16.334 -26.5 -23.001s-23.5 -12.667 -40.5 -18s-35.5 -8 -55.5 -8c-44 0 -79.333 10.833 -106 32.5s-40 51.834 -40 90.501c0 98 94.333 157 283 177v53c0 47.333 -7.66699 79.666 -23 96.999s-42.333 26 -81 26
c-17.333 0 -36.166 -3.66699 -56.499 -11s-36.5 -14.333 -48.5 -21z" />
    <glyph glyph-name="Aogonek" unicode="&#x104;" horiz-adv-x="568" 
d="M273 592l-115 -351h228zM242 650h89l215 -650h-41c-10 -6.66699 -20 -14.334 -30 -23.001s-21 -23.667 -33 -45s-18 -43.666 -18 -66.999c0 -55.333 35 -83 105 -83v-32c-103.333 0 -155 37 -155 111c0 52.667 30.667 99.667 92 141l-67 198h-255l-68 -200h-53z" />
    <glyph glyph-name="aogonek" unicode="&#x105;" horiz-adv-x="477" 
d="M315 107l-0.000976562 146.001c-138.667 -15.333 -208 -59 -208 -131c0 -28.667 8.33301 -50.5 25 -65.5s39.334 -22.5 68.001 -22.5c15.333 0 29.833 2.5 43.5 7.5s24.667 11 33 18s15.5 14.167 21.5 21.5s10.333 13.666 13 18.999zM88.999 423.001l-8.00098 41.002
c45.333 30.667 92.333 46 141 46c57.333 0 99.333 -12 126 -36s40 -66.333 40 -127v-245c0 -45.333 8.66699 -68 26 -68c4.66699 0 10.167 0.666992 16.5 2s11.5 2.66602 15.5 3.99902l7 3l3 -34c-8 -3.33301 -16.667 -6.33301 -26 -9c-10 -6.66699 -20 -14.334 -30 -23.001
s-21 -23.667 -33 -45s-18 -43.666 -18 -66.999c0 -55.333 35 -83 105 -83v-32c-103.333 0 -155 37 -155 111c0 47.333 25 90.333 75 129c-16.667 1.33301 -29.167 7.33301 -37.5 18s-13.5 29.667 -15.5 57h-1c-0.666992 -2 -2.16699 -4.66699 -4.5 -8
s-7.33301 -9.33301 -15 -18s-16.5 -16.334 -26.5 -23.001s-23.5 -12.667 -40.5 -18s-35.5 -8 -55.5 -8c-44 0 -79.333 10.833 -106 32.5s-40 51.834 -40 90.501c0 98 94.333 157 283 177v53c0 47.333 -7.66699 79.666 -23 96.999s-42.333 26 -81 26
c-17.333 0 -36.166 -3.66699 -56.499 -11s-36.5 -14.333 -48.5 -21z" />
    <glyph glyph-name="Cacute" unicode="&#x106;" horiz-adv-x="570" 
d="M372 856l63 -15l-102 -135l-38 5zM510 556c-6.66699 4 -15.499 8.99512 -26.499 14.9951s-31.833 13.833 -62.5 23.5s-59 14.5 -85 14.5c-64.667 0 -115.334 -24.5 -152.001 -73.5s-55 -120.5 -55 -214.5c0 -92.667 18.667 -162.667 56 -210s89.666 -71 156.999 -71
c22.667 0 44.167 3.33301 64.5 10s37.333 14.834 51 24.501s25.5 19.334 35.5 29.001s17.333 17.834 22 24.501l7 10l28 -32c-2 -3.33301 -4.66699 -7.5 -8 -12.5s-11.333 -14.167 -24 -27.5s-26.667 -25.166 -42 -35.499s-35.833 -19.666 -61.5 -27.999
s-52.834 -12.5 -81.501 -12.5c-90 0 -160 29.167 -210 87.5s-75 138.833 -75 241.5c0 104 25.333 186.667 76 248s118.667 92 204 92c30.667 0 61.834 -4.5 93.501 -13.5s55.834 -18.167 72.501 -27.5l25 -14z" />
    <glyph glyph-name="cacute" unicode="&#x107;" horiz-adv-x="423" 
d="M284 721l63 -15l-102 -135l-38 5zM386 426c-38 26.667 -79 40 -123 40c-51.333 0 -89 -17 -113 -51s-36 -90.333 -36 -169c0 -141.333 48.333 -212 145 -212c16 0 31.333 2.16699 46 6.5s26.5 9.5 35.5 15.5s16.833 12 23.5 18s11.334 11.333 14.001 16l5 6l32 -21
c-1.33301 -2 -3 -5 -5 -9s-7.5 -10.833 -16.5 -20.5s-19.167 -18.334 -30.5 -26.001s-26.833 -14.5 -46.5 -20.5s-40.834 -9 -63.501 -9c-69.333 0 -122.666 21.333 -159.999 64s-56 106.334 -56 191.001c0 85.333 18.5 150.833 55.5 196.5s91.167 68.5 162.5 68.5
c23.333 0 46.666 -3.66699 69.999 -11s41 -14.333 53 -21l17 -11z" />
    <glyph glyph-name="Ccaron" unicode="&#x10c;" horiz-adv-x="570" 
d="M300 708l-119 123l29 24l109 -101l111 101l28 -26l-119 -121h-39zM510 556c-6.66699 4 -15.499 8.99512 -26.499 14.9951s-31.833 13.833 -62.5 23.5s-59 14.5 -85 14.5c-64.667 0 -115.334 -24.5 -152.001 -73.5s-55 -120.5 -55 -214.5
c0 -92.667 18.667 -162.667 56 -210s89.666 -71 156.999 -71c22.667 0 44.167 3.33301 64.5 10s37.333 14.834 51 24.501s25.5 19.334 35.5 29.001s17.333 17.834 22 24.501l7 10l28 -32c-2 -3.33301 -4.66699 -7.5 -8 -12.5s-11.333 -14.167 -24 -27.5
s-26.667 -25.166 -42 -35.499s-35.833 -19.666 -61.5 -27.999s-52.834 -12.5 -81.501 -12.5c-90 0 -160 29.167 -210 87.5s-75 138.833 -75 241.5c0 104 25.333 186.667 76 248s118.667 92 204 92c30.667 0 61.834 -4.5 93.501 -13.5s55.834 -18.167 72.501 -27.5l25 -14z
" />
    <glyph glyph-name="ccaron" unicode="&#x10d;" horiz-adv-x="423" 
d="M233 573l-119 123l29 24l109 -101l111 101l28 -26l-119 -121h-39zM386 426c-38 26.667 -79 40 -123 40c-51.333 0 -89 -17 -113 -51s-36 -90.333 -36 -169c0 -141.333 48.333 -212 145 -212c16 0 31.333 2.16699 46 6.5s26.5 9.5 35.5 15.5s16.833 12 23.5 18
s11.334 11.333 14.001 16l5 6l32 -21c-1.33301 -2 -3 -5 -5 -9s-7.5 -10.833 -16.5 -20.5s-19.167 -18.334 -30.5 -26.001s-26.833 -14.5 -46.5 -20.5s-40.834 -9 -63.501 -9c-69.333 0 -122.666 21.333 -159.999 64s-56 106.334 -56 191.001
c0 85.333 18.5 150.833 55.5 196.5s91.167 68.5 162.5 68.5c23.333 0 46.666 -3.66699 69.999 -11s41 -14.333 53 -21l17 -11z" />
    <glyph glyph-name="Dcaron" unicode="&#x10e;" horiz-adv-x="638" 
d="M257 708l-119 123l29 24l109 -101l111 101l28 -26l-119 -121h-39zM292 602h-122v-554h123c141.333 0 212 91.667 212 275c0 186 -71 279 -213 279zM94 0v649.999h198c93.333 0 165.833 -28.167 217.5 -84.5s77.5 -137.166 77.5 -242.499
c0 -104.667 -25.5 -184.667 -76.5 -240s-123.833 -83 -218.5 -83h-198z" />
    <glyph glyph-name="dcaron" unicode="&#x10f;" 
d="M531 769l50 -7l-52 -212l-31 3zM254 39c15.333 0 29.832 2.33301 43.499 7s24.667 10.5 33 17.5s15.5 14 21.5 21s10.333 12.833 13 17.5l4 7v307c-2.66699 3.33301 -6.5 7.5 -11.5 12.5s-16.667 11.833 -35 20.5s-38.166 13 -59.499 13
c-99.333 0 -149 -74.667 -149 -224c0 -132.667 46.667 -199 140 -199zM440.999 752l-0.00195312 -751.999h-62l-8 59c-4 -8 -9.66699 -16.333 -17 -25s-21.666 -18.167 -42.999 -28.5s-45.666 -15.5 -72.999 -15.5c-60.667 0 -109.334 21.667 -146.001 65
s-55 103.666 -55 180.999c0 83.333 17.833 149.833 53.5 199.5s85.834 74.5 150.501 74.5c27.333 0 51.5 -4 72.5 -12s35.167 -16 42.5 -24l12 -12h1v286z" />
    <glyph glyph-name="Dcroat" unicode="&#x110;" horiz-adv-x="638" 
d="M292 602h-122v-258h189v-42h-189v-254h123c141.333 0 212 91.667 212 275c0 186 -71 279 -213 279zM94 0v301.999h-69v42h69v306h198c93.333 0 165.833 -28.167 217.5 -84.5s77.5 -137.166 77.5 -242.499c0 -104.667 -25.5 -184.667 -76.5 -240s-123.833 -83 -218.5 -83
h-198z" />
    <glyph glyph-name="dcroat" unicode="&#x111;" horiz-adv-x="519" 
d="M251 35c52 0 90 24 114 72v308c-24 34 -59.333 51 -106 51c-98.667 0 -148 -76 -148 -228c0 -135.333 46.667 -203 140 -203zM437 750l-0.000976562 -82.999h62v-36l-60 -7h-2v-624h-64l-7 57c-28 -47.333 -74 -71 -138 -71c-59.333 0 -106.666 22.333 -141.999 67
s-53 105.667 -53 183c0 84.667 17.167 152.167 51.5 202.5s83.833 75.5 148.5 75.5c27.333 0 52 -4.33301 74 -13s37 -17.334 45 -26.001l12 -13h1v162h-119v43h119v83h72z" />
    <glyph glyph-name="Emacron" unicode="&#x112;" horiz-adv-x="507" 
d="M373 807v-36h-186v36h186zM466 48v-48h-372v650h350v-48h-274v-250h251v-46h-251v-258h296z" />
    <glyph glyph-name="emacron" unicode="&#x113;" horiz-adv-x="453" 
d="M336 672v-36h-186v36h186zM242 467c-78.667 0 -121.333 -63 -128 -189h239c0.666992 6.66699 1 13 1 19c0 113.333 -37.333 170 -112 170zM388.001 99l29.0039 -23.998c-1.33301 -2 -3.16602 -5 -5.49902 -9s-8.33301 -10.833 -18 -20.5s-20.334 -18.334 -32.001 -26.001
s-27.334 -14.5 -47.001 -20.5s-40.834 -9 -63.501 -9c-66.667 0 -119 20.833 -157 62.5s-57 104.167 -57 187.5c0 84 18.333 150 55 198s86.667 72 150 72c57.333 0 101.5 -19.833 132.5 -59.5s46.5 -95.834 46.5 -168.501l-5 -46h-303c0 -134.667 48.667 -202 146 -202
c16.667 0 32.5 2.16699 47.5 6.5s27.167 9.83301 36.5 16.5s17.666 13.167 24.999 19.5s12.666 11.5 15.999 15.5z" />
    <glyph glyph-name="Edotaccent" unicode="&#x116;" horiz-adv-x="507" 
d="M247 811c7.33301 7.33301 17 10.999 29 10.999c12.667 0 22.667 -3.33301 30 -10c8 -8.66699 12 -19.667 12 -33c0 -12.667 -4 -23.334 -12 -32.001c-9.33301 -7.33301 -19.333 -11 -30 -11c-12 0 -21.667 3.66699 -29 11c-8.66699 8.66699 -13 19.334 -13 32.001
s4.33301 23.334 13 32.001zM466 47.999v-48h-372v650h350v-48h-274v-250h251v-46h-251v-258h296z" />
    <glyph glyph-name="edotaccent" unicode="&#x117;" horiz-adv-x="453" 
d="M214 676c7.33301 7.33301 17 10.998 29 10.998c12.667 0 22.667 -3.33301 30 -10c8 -8.66699 12 -19.667 12 -33c0 -12 -4 -22.667 -12 -32c-9.33301 -7.33301 -19.333 -11 -30 -11c-12 0 -21.667 3.66699 -29 11c-8.66699 8.66699 -13 19.334 -13 32.001
s4.33301 23.334 13 32.001zM242 466.998c-78.667 0 -121.333 -63 -128 -189h239c0.666992 6.66699 1 13 1 19c0 113.333 -37.333 170 -112 170zM388.001 98.998l29.0039 -23.998c-1.33301 -2 -3.16602 -5 -5.49902 -9s-8.33301 -10.833 -18 -20.5
s-20.334 -18.334 -32.001 -26.001s-27.334 -14.5 -47.001 -20.5s-40.834 -9 -63.501 -9c-66.667 0 -119 20.833 -157 62.5s-57 104.167 -57 187.5c0 84 18.333 150 55 198s86.667 72 150 72c57.333 0 101.5 -19.833 132.5 -59.5s46.5 -95.834 46.5 -168.501l-5 -46h-303
c0 -134.667 48.667 -202 146 -202c16.667 0 32.5 2.16699 47.5 6.5s27.167 9.83301 36.5 16.5s17.666 13.167 24.999 19.5s12.666 11.5 15.999 15.5z" />
    <glyph glyph-name="Eogonek" unicode="&#x118;" horiz-adv-x="507" 
d="M466 48v-47.999h-9c-10 -6.66699 -20 -14.334 -30 -23.001s-21 -23.667 -33 -45s-18 -43.666 -18 -66.999c0 -55.333 35 -83 105 -83v-32c-103.333 0 -155 37 -155 111c0 51.333 29.333 97.666 88 138.999h-320v650h350v-48h-274v-250h251v-46h-251v-258h296z" />
    <glyph glyph-name="eogonek" unicode="&#x119;" horiz-adv-x="453" 
d="M242 467c-78.667 0 -121.333 -63 -128 -189h239c0.666992 6.66699 1 13 1 19c0 113.333 -37.333 170 -112 170zM388.001 99l29.002 -23.9971c-2 -4 -5.5 -9.33301 -10.5 -16s-16.5 -16.834 -34.5 -30.501s-37.667 -23.5 -59 -29.5c-10.667 -6.66699 -21 -14.667 -31 -24
s-20.5 -24.333 -31.5 -45s-16.5 -42.334 -16.5 -65.001c0 -55.333 35 -83 105 -83v-32c-103.333 0 -155 37 -155 111c0 47.333 25 90.333 75 129h-8c-66.667 0 -119 20.833 -157 62.5s-57 104.167 -57 187.5c0 84 18.333 150 55 198s86.667 72 150 72
c57.333 0 101.5 -19.833 132.5 -59.5s46.5 -95.834 46.5 -168.501l-5 -46h-303c0 -134.667 48.667 -202 146 -202c16.667 0 32.5 2.16699 47.5 6.5s27.167 9.83301 36.5 16.5s17.666 13.167 24.999 19.5s12.666 11.5 15.999 15.5z" />
    <glyph glyph-name="Ecaron" unicode="&#x11a;" horiz-adv-x="507" 
d="M252 708l-119 123l29 24l109 -101l111 101l28 -26l-119 -121h-39zM466 48v-48h-372v650h350v-48h-274v-250h251v-46h-251v-258h296z" />
    <glyph glyph-name="ecaron" unicode="&#x11b;" horiz-adv-x="453" 
d="M223 573l-119 123l29 24l109 -101l111 101l28 -26l-119 -121h-39zM242 467c-78.667 0 -121.333 -63 -128 -189h239c0.666992 6.66699 1 13 1 19c0 113.333 -37.333 170 -112 170zM388.001 99l29.0039 -23.998c-1.33301 -2 -3.16602 -5 -5.49902 -9
s-8.33301 -10.833 -18 -20.5s-20.334 -18.334 -32.001 -26.001s-27.334 -14.5 -47.001 -20.5s-40.834 -9 -63.501 -9c-66.667 0 -119 20.833 -157 62.5s-57 104.167 -57 187.5c0 84 18.333 150 55 198s86.667 72 150 72c57.333 0 101.5 -19.833 132.5 -59.5
s46.5 -95.834 46.5 -168.501l-5 -46h-303c0 -134.667 48.667 -202 146 -202c16.667 0 32.5 2.16699 47.5 6.5s27.167 9.83301 36.5 16.5s17.666 13.167 24.999 19.5s12.666 11.5 15.999 15.5z" />
    <glyph glyph-name="Gbreve" unicode="&#x11e;" horiz-adv-x="620" 
d="M335 755c15.333 0 28.999 2 40.999 6s21.167 8.83301 27.5 14.5s11.5 11.5 15.5 17.5s6.66699 11 8 15l2 6v2l45 -6c0 -2.66699 -0.666992 -6.16699 -2 -10.5s-4.83301 -12.333 -10.5 -24s-13.167 -21.834 -22.5 -30.501s-23 -16.5 -41 -23.5s-39 -10.5 -63 -10.5
s-45 3.33301 -63 10s-31.5 14.834 -40.5 24.501s-16.167 19.5 -21.5 29.5s-8.66602 18.333 -9.99902 25l-2 10l45 6v-2c0 -1.33301 0.5 -3.33301 1.5 -6s3.66699 -7.5 8 -14.5s9.5 -13 15.5 -18s15 -9.66699 27 -14s25.333 -6.5 40 -6.5zM542.999 338l-0.00292969 -338.001
h-37l-19 71c-37.333 -54 -94.666 -81 -171.999 -81c-84.667 0 -150.334 29.333 -197.001 88s-70 140.334 -70 245.001c0 106 25.333 188.5 76 247.5s122.334 88.5 215.001 88.5c30.667 0 61.834 -4.5 93.501 -13.5s55.834 -18.167 72.501 -27.5l25 -14l-9 -48
c-6.66699 4 -15.5 9 -26.5 15s-31.833 13.833 -62.5 23.5s-59 14.5 -85 14.5c-74 0 -128.833 -23.833 -164.5 -71.5s-53.5 -119.167 -53.5 -214.5c0 -93.333 17.333 -163.833 52 -211.5s83 -71.5 145 -71.5c27.333 0 51.333 4.33301 72 13s36.5 20 47.5 34
s18.667 25.5 23 34.5s7.83301 17.833 10.5 26.5v147h-133v43h197z" />
    <glyph glyph-name="gbreve" unicode="&#x11f;" horiz-adv-x="451" 
d="M227 619c15.333 0 28.999 2 40.999 6s21.167 8.83301 27.5 14.5s11.5 11.5 15.5 17.5s6.66699 11 8 15l2 6v2l45 -6c0 -2.66699 -0.666992 -6.16699 -2 -10.5s-4.83301 -12.333 -10.5 -24s-13.167 -21.834 -22.5 -30.501s-23 -16.5 -41 -23.5s-39 -10.5 -63 -10.5
s-45 3.33301 -63 10s-31.5 14.834 -40.5 24.501s-16.167 19.5 -21.5 29.5s-8.66602 18.333 -9.99902 25l-2 10l45 6v-2c0 -1.33301 0.5 -3.33301 1.5 -6s3.66699 -7.5 8 -14.5s9.5 -13 15.5 -18s15 -9.66699 27 -14s25.333 -6.5 40 -6.5zM333.999 334
c0 88.667 -35.666 132.999 -106.999 132.999c-73.333 0 -110 -44.667 -110 -134c0 -45.333 9.66699 -79.666 29 -102.999s46.666 -35 81.999 -35c70.667 0 106 46.333 106 139zM219 0.999023c-31.333 0 -56.333 2.66699 -75 8c-44.667 -18.667 -67 -53.667 -67 -105
c0 -79.333 53 -119 159 -119c46.667 0 82.667 9.5 108 28.5s38 46.5 38 82.5c0 70 -54.333 105 -163 105zM231 509.999c26 0 48.999 -3.33496 68.999 -10.002h1l128 -1v-39l-64 -2c26.667 -30 40 -71.667 40 -125c0 -57.333 -15.5 -101.333 -46.5 -132
s-73.833 -46 -128.5 -46c-22.667 0 -43 2.33301 -61 7c-23.333 -15.333 -35 -32.666 -35 -51.999c0 -18 7.33301 -30.5 22 -37.5s38.334 -10.5 71.001 -10.5c146 0 219 -51.333 219 -154c0 -54.667 -18.167 -96.334 -54.5 -125.001s-88.166 -43 -155.499 -43
c-70.667 0 -124.334 13.833 -161.001 41.5s-55 68.167 -55 121.5c0 64.667 27.667 108.334 83 131.001c-12 14 -18 33.667 -18 59c0 32.667 15.333 60.667 46 84c-56 28.667 -84 80.667 -84 156c0 60.667 17.167 105.334 51.5 134.001s78.5 43 132.5 43z" />
    <glyph glyph-name="Gcommaaccent" unicode="&#x122;" horiz-adv-x="620" 
d="M349 -54l2.00293 -2c11.333 -12 17 -30.333 17 -55c0 -30 -7.83301 -62 -23.5 -96s-35.834 -61 -60.501 -81l-18 19c40 37.333 60 82 60 134c0 8 -0.333008 14 -1 18c-10 0 -18.667 3 -26 9c-7.33301 7.33301 -11 16.333 -11 27s3.66699 19.667 11 27
c7.33301 6 15.666 9 24.999 9s17.666 -3 24.999 -9zM543.003 338l-0.00292969 -338.001h-37l-19 71c-37.333 -54 -94.666 -81 -171.999 -81c-84.667 0 -150.334 29.333 -197.001 88s-70 140.334 -70 245.001c0 106 25.333 188.5 76 247.5s122.334 88.5 215.001 88.5
c30.667 0 61.834 -4.5 93.501 -13.5s55.834 -18.167 72.501 -27.5l25 -14l-9 -48c-6.66699 4 -15.5 9 -26.5 15s-31.833 13.833 -62.5 23.5s-59 14.5 -85 14.5c-74 0 -128.833 -23.833 -164.5 -71.5s-53.5 -119.167 -53.5 -214.5c0 -93.333 17.333 -163.833 52 -211.5
s83 -71.5 145 -71.5c27.333 0 51.333 4.33301 72 13s36.5 20 47.5 34s18.667 25.5 23 34.5s7.83301 17.833 10.5 26.5v147h-133v43h197z" />
    <glyph glyph-name="gcommaaccent" unicode="&#x123;" horiz-adv-x="451" 
d="M252 579c-6.66699 -6 -15.002 -9 -25.002 -9s-18.333 3 -25 9c-12.667 12 -19 31 -19 57c0 30 7.83301 62 23.5 96s35.834 61 60.501 81l18 -19c-40 -37.333 -60 -82 -60 -134c0 -8 0.333008 -14 1 -18c10.667 0 19.334 -3 26.001 -9c7.33301 -7.33301 11 -16.333 11 -27
s-3.66699 -19.667 -11 -27zM333.998 334c0 88.667 -35.666 132.999 -106.999 132.999c-73.333 0 -110 -44.667 -110 -134c0 -45.333 9.66699 -79.666 29 -102.999s46.666 -35 81.999 -35c70.667 0 106 46.333 106 139zM218.999 0.999023c-31.333 0 -56.333 2.66699 -75 8
c-44.667 -18.667 -67 -53.667 -67 -105c0 -79.333 53 -119 159 -119c46.667 0 82.667 9.5 108 28.5s38 46.5 38 82.5c0 70 -54.333 105 -163 105zM230.999 509.999c26 0 48.999 -3.33496 68.999 -10.002h1l128 -1v-39l-64 -2c26.667 -30 40 -71.667 40 -125
c0 -57.333 -15.5 -101.333 -46.5 -132s-73.833 -46 -128.5 -46c-22.667 0 -43 2.33301 -61 7c-23.333 -15.333 -35 -32.666 -35 -51.999c0 -18 7.33301 -30.5 22 -37.5s38.334 -10.5 71.001 -10.5c146 0 219 -51.333 219 -154c0 -54.667 -18.167 -96.334 -54.5 -125.001
s-88.166 -43 -155.499 -43c-70.667 0 -124.334 13.833 -161.001 41.5s-55 68.167 -55 121.5c0 64.667 27.667 108.334 83 131.001c-12 14 -18 33.667 -18 59c0 32.667 15.333 60.667 46 84c-56 28.667 -84 80.667 -84 156c0 60.667 17.167 105.334 51.5 134.001
s78.5 43 132.5 43z" />
    <glyph glyph-name="Imacron" unicode="&#x12a;" horiz-adv-x="265" 
d="M226 807v-36h-186v36h186zM170 650v-650h-76v650h76z" />
    <glyph glyph-name="imacron" unicode="&#x12b;" horiz-adv-x="222" 
d="M204 672v-36h-186v36h186zM147 500v-500h-73v500h73z" />
    <glyph glyph-name="Iogonek" unicode="&#x12e;" horiz-adv-x="265" 
d="M170 650v-650.001h-44c-10 -6.66699 -20 -14.334 -30 -23.001s-21 -23.667 -33 -45s-18 -43.666 -18 -66.999c0 -55.333 35 -83 105 -83v-32c-103.333 0 -155 37 -155 111c0 54.667 33 103.334 99 146.001v643h76z" />
    <glyph glyph-name="iogonek" unicode="&#x12f;" horiz-adv-x="222" 
d="M80 676c7.33301 7.33301 17 10.998 29 10.998c12.667 0 22.667 -3.33301 30 -10c8 -8.66699 12 -19.667 12 -33c0 -12 -4 -22.667 -12 -32c-9.33301 -7.33301 -19.333 -11 -30 -11c-12 0 -21.667 3.66699 -29 11c-8.66699 8.66699 -13 19.334 -13 32.001
s4.33301 23.334 13 32.001zM147 499.998v-500h-35c-10 -6.66699 -20 -14.334 -30 -23.001s-21 -23.667 -33 -45s-18 -43.666 -18 -66.999c0 -55.333 35 -83 105 -83v-32c-103.333 0 -155 37 -155 111c0 52.667 31 100 93 142v497h73z" />
    <glyph glyph-name="Idotaccent" unicode="&#x130;" horiz-adv-x="265" 
d="M103 811c7.33301 7.33301 17 10.999 29 10.999c12.667 0 22.667 -3.33301 30 -10c8 -9.33301 12 -20.333 12 -33s-4 -23.334 -12 -32.001c-9.33301 -7.33301 -19.333 -11 -30 -11c-12 0 -21.667 3.66699 -29 11c-8.66699 8.66699 -13 19.334 -13 32.001
s4.33301 23.334 13 32.001zM170 649.999v-650h-76v650h76z" />
    <glyph glyph-name="dotlessi" unicode="&#x131;" horiz-adv-x="222" 
d="M147 500v-500h-73v500h73z" />
    <glyph glyph-name="Kcommaaccent" unicode="&#x136;" horiz-adv-x="600" 
d="M273 -54c7.33301 6 15.6689 9 25.002 9s17.666 -3 24.999 -9c12.667 -12 19 -31 19 -57c0 -30 -7.83301 -62 -23.5 -96s-35.834 -61 -60.501 -81l-18 19c40 37.333 60 82 60 134c0 8 -0.333008 14 -1 18c-10 0 -18.667 3 -26 9c-7.33301 7.33301 -11 16.333 -11 27
s3.66699 19.667 11 27zM94.0029 0v650h76v-354l79 70l219 284h61l-228 -290l259 -360h-95l-220 302l-75 -63v-239h-76z" />
    <glyph glyph-name="kcommaaccent" unicode="&#x137;" horiz-adv-x="456" 
d="M220 -54c6.66699 6 15.002 9 25.002 9s18.333 -3 25 -9c12.667 -12 19 -31 19 -57c0 -30 -7.83301 -62 -23.5 -96s-35.834 -61 -60.501 -81l-18 19c40 37.333 60 82 60 134c0 8 -0.333008 14 -1 18c-10.667 0 -19.334 3 -26.001 9c-7.33301 7.33301 -11 16.333 -11 27
s3.66699 19.667 11 27zM74.002 0v748l73 4v-481l61 42l149 187h55l-165 -205l186 -295h-83l-159 252l-44 -27v-225h-73z" />
    <glyph glyph-name="Lacute" unicode="&#x139;" horiz-adv-x="475" 
d="M184 856l63 -15l-102 -135l-38 5zM459 48v-48h-365v650h76v-602h289z" />
    <glyph glyph-name="lacute" unicode="&#x13a;" horiz-adv-x="223" 
d="M169 946l63 -15l-102 -135l-38 5zM147 752v-752h-72v748z" />
    <glyph glyph-name="Lcommaaccent" unicode="&#x13b;" horiz-adv-x="475" 
d="M240 -54c7.33301 6 15.668 9 25.001 9c10 0 18.333 -3 25 -9c12.667 -12 19 -31 19 -57c0 -30 -7.83301 -62 -23.5 -96s-35.834 -61 -60.501 -81l-18 19c40 37.333 60 82 60 134c0 8 -0.333008 14 -1 18c-10 0 -18.667 3 -26 9c-7.33301 7.33301 -11 16.333 -11 27
s3.66699 19.667 11 27zM459.002 48v-48h-365v650h76v-602h289z" />
    <glyph glyph-name="lcommaaccent" unicode="&#x13c;" horiz-adv-x="223" 
d="M87 -54c7.33301 6 15.6689 9 25.002 9s17.666 -3 24.999 -9c12.667 -12 19 -31 19 -57c0 -30 -7.83301 -62 -23.5 -96s-35.834 -61 -60.501 -81l-18 19c40 37.333 60 82 60 134c0 8 -0.333008 14 -1 18c-10 0 -18.667 3 -26 9c-7.33301 7.33301 -11 16.333 -11 27
s3.66699 19.667 11 27zM147.003 752v-752h-72v748z" />
    <glyph glyph-name="Lcaron" unicode="&#x13d;" horiz-adv-x="475" 
d="M113 708l-119 123l29 24l109 -101l111 101l28 -26l-119 -121h-39zM459 48v-48h-365v650h76v-602h289z" />
    <glyph glyph-name="lcaron" unicode="&#x13e;" horiz-adv-x="223" 
d="M239 769l50 -7l-52 -212l-31 3zM147 752v-752h-72v748z" />
    <glyph glyph-name="Lslash" unicode="&#x141;" horiz-adv-x="496" 
d="M485 48v-48h-365v257l-66 -48l-20 27l86 63v351h76v-296l122 90l20 -27l-142 -104v-265h289z" />
    <glyph glyph-name="lslash" unicode="&#x142;" horiz-adv-x="259" 
d="M165 752v-333l98 77l19 -24l-117 -91v-381h-72v325l-68 -53l-19 24l87 67v385z" />
    <glyph glyph-name="Nacute" unicode="&#x143;" horiz-adv-x="651" 
d="M391 856l63 -15l-102 -135l-38 5zM557 650v-650h-66l-346 554h-1l5 -31v-523h-55v650h79l332 -536l-3 24v512h55z" />
    <glyph glyph-name="nacute" unicode="&#x144;" horiz-adv-x="512" 
d="M287 721l63 -15l-102 -135l-38 5zM75 0l0.000976562 500h60l9 -48c33.333 38.667 82.666 58 147.999 58c48 0 85.333 -13.5 112 -40.5s40 -67.167 40 -120.5v-349h-73v334c0 82 -34.333 123 -103 123c-24 0 -46.167 -4.16699 -66.5 -12.5s-34.5 -16.5 -42.5 -24.5
l-12 -13v-407h-72z" />
    <glyph glyph-name="Ncommaaccent" unicode="&#x145;" horiz-adv-x="651" 
d="M299 -54c7.33301 6 15.6689 9 25.002 9s17.666 -3 24.999 -9c12.667 -12 19 -31 19 -57c0 -30 -7.83301 -62 -23.5 -96s-35.834 -61 -60.501 -81l-18 19c40 37.333 60 82 60 134c0 8 -0.333008 14 -1 18c-10 0 -18.667 3 -26 9c-7.33301 7.33301 -11 16.333 -11 27
s3.66699 19.667 11 27zM557.003 650v-650h-66l-346 554h-1l5 -31v-523h-55v650h79l332 -536l-3 24v512h55z" />
    <glyph glyph-name="ncommaaccent" unicode="&#x146;" horiz-adv-x="512" 
d="M238 -54c6.66699 6 15.002 9 25.002 9s18.333 -3 25 -9c12.667 -12 19 -31 19 -57c0 -30 -7.83301 -62 -23.5 -96s-35.834 -61 -60.501 -81l-18 19c40 37.333 60 82 60 134c0 8 -0.333008 14 -1 18c-10.667 0 -19.334 3 -26.001 9c-7.33301 7.33301 -11 16.333 -11 27
s3.66699 19.667 11 27zM75.002 0l0.000976562 500h60l9 -48c33.333 38.667 82.666 58 147.999 58c48 0 85.333 -13.5 112 -40.5s40 -67.167 40 -120.5v-349h-73v334c0 82 -34.333 123 -103 123c-24 0 -46.167 -4.16699 -66.5 -12.5s-34.5 -16.5 -42.5 -24.5l-12 -13v-407
h-72z" />
    <glyph glyph-name="Ncaron" unicode="&#x147;" horiz-adv-x="651" 
d="M330 708l-119 123l29 24l109 -101l111 101l28 -26l-119 -121h-39zM557 650v-650h-66l-346 554h-1l5 -31v-523h-55v650h79l332 -536l-3 24v512h55z" />
    <glyph glyph-name="ncaron" unicode="&#x148;" horiz-adv-x="512" 
d="M241 573l-119 123l29 24l109 -101l111 101l28 -26l-119 -121h-39zM75 0l0.000976562 500h60l9 -48c33.333 38.667 82.666 58 147.999 58c48 0 85.333 -13.5 112 -40.5s40 -67.167 40 -120.5v-349h-73v334c0 82 -34.333 123 -103 123c-24 0 -46.167 -4.16699 -66.5 -12.5
s-34.5 -16.5 -42.5 -24.5l-12 -13v-407h-72z" />
    <glyph glyph-name="Omacron" unicode="&#x14c;" horiz-adv-x="654" 
d="M419 807v-36h-186v36h186zM525 324c0 92.667 -17.167 163.667 -51.5 213s-83.5 74 -147.5 74c-63.333 0 -112 -24.667 -146 -74s-51 -120.333 -51 -213c0 -93.333 16.833 -164.333 50.5 -213s82.5 -73 146.5 -73s113.167 24.333 147.5 73s51.5 119.667 51.5 213zM606 324
c0 -104 -24.667 -185.667 -74 -245s-118 -89 -206 -89c-87.333 0 -155.5 29.667 -204.5 89s-73.5 141 -73.5 245c0 103.333 24.5 185 73.5 245s117.167 90 204.5 90s155.833 -30 205.5 -90s74.5 -141.667 74.5 -245z" />
    <glyph glyph-name="omacron" unicode="&#x14d;" horiz-adv-x="501" 
d="M343 672v-36h-186v36h186zM250 466c-46.667 0 -81 -17.8311 -103 -53.498s-33 -89.834 -33 -162.501s11 -126.834 33 -162.501s56.333 -53.5 103 -53.5c90.667 0 136 72 136 216s-45.333 216 -136 216zM463 250.002c0 -82 -18.499 -145.833 -55.499 -191.5
s-89.5 -68.5 -157.5 -68.5c-69.333 0 -122.166 22.667 -158.499 68s-54.5 109.333 -54.5 192s18.167 146.667 54.5 192s89.166 68 158.499 68s122.166 -22.667 158.499 -68s54.5 -109.333 54.5 -192z" />
    <glyph glyph-name="Ohungarumlaut" unicode="&#x150;" horiz-adv-x="654" 
d="M232 725l45 128l52 -13l-63 -129zM361 725l46 128l51 -13l-63 -129zM525 324c0 92.667 -17.167 163.667 -51.5 213s-83.5 74 -147.5 74c-63.333 0 -112 -24.667 -146 -74s-51 -120.333 -51 -213c0 -93.333 16.833 -164.333 50.5 -213s82.5 -73 146.5 -73
s113.167 24.333 147.5 73s51.5 119.667 51.5 213zM606 324c0 -104 -24.667 -185.667 -74 -245s-118 -89 -206 -89c-87.333 0 -155.5 29.667 -204.5 89s-73.5 141 -73.5 245c0 103.333 24.5 185 73.5 245s117.167 90 204.5 90s155.833 -30 205.5 -90s74.5 -141.667 74.5 -245
z" />
    <glyph glyph-name="ohungarumlaut" unicode="&#x151;" horiz-adv-x="501" 
d="M151 590l45 128l52 -13l-63 -129zM280 590l46 128l51 -13l-63 -129zM250 466c-46.667 0 -81 -17.8311 -103 -53.498s-33 -89.834 -33 -162.501s11 -126.834 33 -162.501s56.333 -53.5 103 -53.5c90.667 0 136 72 136 216s-45.333 216 -136 216zM463 250.002
c0 -82 -18.499 -145.833 -55.499 -191.5s-89.5 -68.5 -157.5 -68.5c-69.333 0 -122.166 22.667 -158.499 68s-54.5 109.333 -54.5 192s18.167 146.667 54.5 192s89.166 68 158.499 68s122.166 -22.667 158.499 -68s54.5 -109.333 54.5 -192z" />
    <glyph glyph-name="OE" unicode="&#x152;" horiz-adv-x="940" 
d="M525 324c0 92.667 -17.167 163.667 -51.5 213s-83.5 74 -147.5 74c-63.333 0 -112 -24.667 -146 -74s-51 -120.333 -51 -213c0 -93.333 16.833 -164.333 50.5 -213s82.5 -73 146.5 -73s113.167 24.333 147.5 73s51.5 119.667 51.5 213zM900 48v-48.001h-373v74
c-50 -56 -117 -84 -201 -84c-87.333 0 -155.5 29.667 -204.5 89s-73.5 141 -73.5 245c0 103.333 24.5 185 73.5 245s117.167 90 204.5 90c84.667 0 151.667 -28.333 201 -85v76h351v-48h-275v-219c1.33301 -13.333 2 -23.666 2 -30.999h249v-46h-248l-3 -42v-216h297z" />
    <glyph glyph-name="oe" unicode="&#x153;" horiz-adv-x="803" 
d="M592 467c-78.667 0 -121.333 -63 -128 -189h239c0.666992 6.66699 1 13 1 19c0 113.333 -37.333 170 -112 170zM250.001 466c-46.667 0 -81 -17.8311 -103 -53.498s-33 -89.834 -33 -162.501s11 -126.834 33 -162.501s56.333 -53.5 103 -53.5c90.667 0 136 72 136 216
s-45.333 216 -136 216zM738.001 99.002l29.0029 -23.998c-1.33301 -2 -3.16602 -5 -5.49902 -9s-8.33301 -10.833 -18 -20.5s-20.334 -18.334 -32.001 -26.001s-27.334 -14.5 -47.001 -20.5s-40.834 -9 -63.501 -9c-83.333 0 -142.666 30.333 -177.999 91
c-37.333 -60.667 -95 -91 -173 -91c-69.333 0 -122.166 22.667 -158.499 68s-54.5 109.333 -54.5 192s18.167 146.667 54.5 192s89.166 68 158.499 68c82 0 140.667 -31.667 176 -95c36.667 63.333 92 95 166 95c57.333 0 101.5 -19.833 132.5 -59.5
s46.5 -95.834 46.5 -168.501l-5 -46h-303c0 -134.667 48.667 -202 146 -202c16.667 0 32.5 2.16699 47.5 6.5s27.167 9.83301 36.5 16.5s17.666 13.167 24.999 19.5s12.666 11.5 15.999 15.5z" />
    <glyph glyph-name="Racute" unicode="&#x154;" horiz-adv-x="539" 
d="M299 856l63 -15l-102 -135l-38 5zM242 606l-72 -0.000976562v-320h81c43.333 0 76 12.333 98 37s33 66.334 33 125.001c0 105.333 -46.667 158 -140 158zM251 649.999c66 0 117.667 -17.167 155 -51.5s56 -83.5 56 -147.5c0 -51.333 -11 -93.333 -33 -126
s-51 -56 -87 -70l163 -255h-87l-149 241h-99v-241h-76v650h157z" />
    <glyph glyph-name="racute" unicode="&#x155;" horiz-adv-x="329" 
d="M231 721l63 -15l-102 -135l-38 5zM322 494l-6.99707 -54.999c-29.333 10 -54.333 15 -75 15c-14.667 0 -28.334 -4.33301 -41.001 -13s-22.5 -19.167 -29.5 -31.5s-12.167 -22.5 -15.5 -30.5s-5.66602 -14.333 -6.99902 -19v-360h-73v500h54l11 -103
c0.666992 3.33301 1.66699 7.5 3 12.5s5 14 11 27s12.667 24.5 20 34.5s17.666 19 30.999 27s28 12 44 12c9.33301 0 20.166 -1.33301 32.499 -4s22.166 -5.33398 29.499 -8.00098z" />
    <glyph glyph-name="Rcommaaccent" unicode="&#x156;" horiz-adv-x="539" 
d="M248 -54c6.66699 6 15.002 9 25.002 9s18.333 -3 25 -9c12.667 -12 19 -31 19 -57c0 -30 -7.83301 -62 -23.5 -96s-35.834 -61 -60.501 -81l-18 19c40 37.333 60 82 60 134c0 8 -0.333008 14 -1 18c-10.667 0 -19.334 3 -26.001 9c-7.33301 7.33301 -11 16.333 -11 27
s3.66699 19.667 11 27zM242.002 606l-72 -0.000976562v-320h81c43.333 0 76 12.333 98 37s33 66.334 33 125.001c0 105.333 -46.667 158 -140 158zM251.002 649.999c66 0 117.667 -17.167 155 -51.5s56 -83.5 56 -147.5c0 -51.333 -11 -93.333 -33 -126s-51 -56 -87 -70
l163 -255h-87l-149 241h-99v-241h-76v650h157z" />
    <glyph glyph-name="rcommaaccent" unicode="&#x157;" horiz-adv-x="329" 
d="M85 -54c7.33301 6 15.6689 9 25.002 9s17.666 -3 24.999 -9c12.667 -12 19 -31 19 -57c0 -30 -7.83301 -62 -23.5 -96s-35.834 -61 -60.501 -81l-18 19c40 37.333 60 82 60 134c0 8 -0.333008 14 -1 18c-10 0 -18.667 3 -26 9c-7.33301 7.33301 -11 16.333 -11 27
s3.66699 19.667 11 27zM322.003 494l-6.99707 -54.999c-29.333 10 -54.333 15 -75 15c-14.667 0 -28.334 -4.33301 -41.001 -13s-22.5 -19.167 -29.5 -31.5s-12.167 -22.5 -15.5 -30.5s-5.66602 -14.333 -6.99902 -19v-360h-73v500h54l11 -103
c0.666992 3.33301 1.66699 7.5 3 12.5s5 14 11 27s12.667 24.5 20 34.5s17.666 19 30.999 27s28 12 44 12c9.33301 0 20.166 -1.33301 32.499 -4s22.166 -5.33398 29.499 -8.00098z" />
    <glyph glyph-name="Rcaron" unicode="&#x158;" horiz-adv-x="539" 
d="M233 708l-119 123l29 24l109 -101l111 101l28 -26l-119 -121h-39zM242 606l-72 -0.000976562v-320h81c43.333 0 76 12.333 98 37s33 66.334 33 125.001c0 105.333 -46.667 158 -140 158zM251 649.999c66 0 117.667 -17.167 155 -51.5s56 -83.5 56 -147.5
c0 -51.333 -11 -93.333 -33 -126s-51 -56 -87 -70l163 -255h-87l-149 241h-99v-241h-76v650h157z" />
    <glyph glyph-name="rcaron" unicode="&#x159;" horiz-adv-x="328" 
d="M166 573l-119 123l29 24l109 -101l111 101l28 -26l-119 -121h-39zM322 494l-6.99707 -54.999c-29.333 10 -54.333 15 -75 15c-14.667 0 -28.334 -4.33301 -41.001 -13s-22.5 -19.167 -29.5 -31.5s-12.167 -22.5 -15.5 -30.5s-5.66602 -14.333 -6.99902 -19v-360h-73v500
h54l11 -103c0.666992 3.33301 1.66699 7.5 3 12.5s5 14 11 27s12.667 24.5 20 34.5s17.666 19 30.999 27s28 12 44 12c9.33301 0 20.166 -1.33301 32.499 -4s22.166 -5.33398 29.499 -8.00098z" />
    <glyph glyph-name="Sacute" unicode="&#x15a;" horiz-adv-x="490" 
d="M311 856l63 -15l-102 -135l-38 5zM419 603l-10.002 -44.001c-4 4 -9.83301 9 -17.5 15s-23.667 14 -48 24s-49.166 15 -74.499 15c-37.333 0 -66.666 -10.333 -87.999 -31s-32 -48.667 -32 -84c0 -30.667 10.167 -56 30.5 -76s44.833 -35.667 73.5 -47
s57.334 -23.5 86.001 -36.5s53.167 -32.833 73.5 -59.5s30.5 -60.334 30.5 -101.001c0 -55.333 -18.833 -100.5 -56.5 -135.5s-87.834 -52.5 -150.501 -52.5c-27.333 0 -52.666 3 -75.999 9s-41.833 13 -55.5 21s-25.334 16.167 -35.001 24.5s-16.167 15.5 -19.5 21.5l-6 9
l25 39l5.5 -8c2.33301 -3.33301 8.16602 -9.33301 17.499 -18s19.666 -16.334 30.999 -23.001s26.833 -12.667 46.5 -18s40.834 -8 63.501 -8c42 0 75 12.167 99 36.5s36 54.5 36 90.5c0 30.667 -10.167 56 -30.5 76s-44.833 35.833 -73.5 47.5l-86 36.5
c-28.667 12.667 -53.167 31.834 -73.5 57.501s-30.5 57.834 -30.5 96.501c0 54.667 17.333 98.167 52 130.5s81 48.5 139 48.5c28.667 0 55.834 -4.66699 81.501 -14s44.167 -18.666 55.5 -27.999z" />
    <glyph glyph-name="sacute" unicode="&#x15b;" horiz-adv-x="408" 
d="M263 721l63 -15l-102 -135l-38 5zM36 64l25.0049 34.9961c3.33301 -4.66699 8 -10.667 14 -18s19.833 -17 41.5 -29s45.167 -18 70.5 -18c37.333 0 65.5 9.33301 84.5 28s28.5 41.334 28.5 68.001c0 24.667 -8.33301 44.334 -25 59.001s-37 26 -61 34
s-47.833 16.667 -71.5 26s-43.834 24 -60.501 44s-25 46 -25 78c0 42.667 15.5 76.5 46.5 101.5s70.833 37.5 119.5 37.5c21.333 0 43 -3.33301 65 -10s38.667 -13.334 50 -20.001l17 -9l-12 -43c-35.333 26.667 -73.333 40 -114 40c-30.667 0 -55.5 -7.66699 -74.5 -23
s-28.5 -34.666 -28.5 -57.999c0 -24.667 8.66699 -44.667 26 -60s38.166 -27.166 62.499 -35.499s48.666 -17.166 72.999 -26.499s45.166 -24.166 62.499 -44.499s26 -46.5 26 -78.5c0 -43.333 -15 -79.5 -45 -108.5s-74 -43.5 -132 -43.5c-22.667 0 -43.667 2.5 -63 7.5
s-34.833 11.167 -46.5 18.5s-21.834 14.666 -30.501 21.999s-14.667 13.333 -18 18z" />
    <glyph glyph-name="Scedilla" unicode="&#x15e;" horiz-adv-x="490" 
d="M419 603l-10.0039 -43.998c-4 4 -9.83301 9 -17.5 15s-23.667 14 -48 24s-49.166 15 -74.499 15c-37.333 0 -66.666 -10.333 -87.999 -31s-32 -48.667 -32 -84c0 -30.667 10.167 -56 30.5 -76s44.833 -35.667 73.5 -47s57.334 -23.5 86.001 -36.5
s53.167 -32.833 73.5 -59.5s30.5 -60.334 30.5 -101.001c0 -52.667 -17.333 -96.334 -52 -131.001s-81 -53.334 -139 -56.001l-6 -60l24 -6c16 -4 32 -12.667 48 -26s24 -31.333 24 -54c0 -30 -8.83301 -53.5 -26.5 -70.5s-43.5 -25.5 -77.5 -25.5
c-20 0 -37.667 3.5 -53 10.5s-25.666 13.833 -30.999 20.5l-8 11l18 20c14.667 -21.333 37 -32 67 -32c44 0 66 22.667 66 68c0 17.333 -7 30.666 -21 39.999s-28 15 -42 17s-21 3.33301 -21 4l11 82c-26 0.666992 -49.833 4.16699 -71.5 10.5s-38.834 13.5 -51.501 21.5
s-23.667 16 -33 24s-15.666 14.667 -18.999 20l-5 9l25 39l5.5 -8c2.33301 -3.33301 8.16602 -9.33301 17.499 -18s19.666 -16.334 30.999 -23.001s26.833 -12.667 46.5 -18s40.834 -8 63.501 -8c42 0 75 12.167 99 36.5s36 54.5 36 90.5c0 30.667 -10.167 56 -30.5 76
s-44.833 35.833 -73.5 47.5l-86 36.5c-28.667 12.667 -53.167 31.834 -73.5 57.501s-30.5 57.834 -30.5 96.501c0 54.667 17.333 98.167 52 130.5s81 48.5 139 48.5c28.667 0 55.834 -4.66699 81.501 -14s44.167 -18.666 55.5 -27.999z" />
    <glyph glyph-name="scedilla" unicode="&#x15f;" horiz-adv-x="408" 
d="M36 64l25.0029 34.9941c3.33301 -4.66699 8 -10.667 14 -18s19.833 -17 41.5 -29s45.167 -18 70.5 -18c37.333 0 65.5 9.33301 84.5 28s28.5 41.334 28.5 68.001c0 24.667 -8.33301 44.334 -25 59.001s-37 26 -61 34s-47.833 16.667 -71.5 26s-43.834 24 -60.501 44
s-25 46 -25 78c0 42.667 15.5 76.5 46.5 101.5s70.833 37.5 119.5 37.5c21.333 0 43 -3.33301 65 -10s38.667 -13.334 50 -20.001l17 -9l-12 -43c-35.333 26.667 -73.333 40 -114 40c-30.667 0 -55.5 -7.66699 -74.5 -23s-28.5 -34.666 -28.5 -57.999
c0 -24.667 8.66699 -44.667 26 -60s38.166 -27.166 62.499 -35.499s48.666 -17.166 72.999 -26.499s45.166 -24.166 62.499 -44.499s26 -46.5 26 -78.5c0 -41.333 -13.5 -76.166 -40.5 -104.499s-67.167 -43.833 -120.5 -46.5l-6 -60l24 -6c16 -4 32 -12.667 48 -26
s24 -31.333 24 -54c0 -30 -8.83301 -53.5 -26.5 -70.5s-43.5 -25.5 -77.5 -25.5c-20 0 -37.667 3.5 -53 10.5s-25.666 13.833 -30.999 20.5l-8 11l18 20c14.667 -21.333 37 -32 67 -32c44 0 66 22.667 66 68c0 17.333 -7 30.666 -21 39.999s-28 15 -42 17s-21 3.33301 -21 4
l11 82c-20.667 0.666992 -40 3.83398 -58 9.50098s-32.5 12 -43.5 19s-20.333 14 -28 21s-13.167 12.833 -16.5 17.5z" />
    <glyph glyph-name="Scaron" unicode="&#x160;" horiz-adv-x="490" 
d="M242 708l-119 123l29 24l109 -101l111 101l28 -26l-119 -121h-39zM419 603l-10.002 -44.001c-4 4 -9.83301 9 -17.5 15s-23.667 14 -48 24s-49.166 15 -74.499 15c-37.333 0 -66.666 -10.333 -87.999 -31s-32 -48.667 -32 -84c0 -30.667 10.167 -56 30.5 -76
s44.833 -35.667 73.5 -47s57.334 -23.5 86.001 -36.5s53.167 -32.833 73.5 -59.5s30.5 -60.334 30.5 -101.001c0 -55.333 -18.833 -100.5 -56.5 -135.5s-87.834 -52.5 -150.501 -52.5c-27.333 0 -52.666 3 -75.999 9s-41.833 13 -55.5 21s-25.334 16.167 -35.001 24.5
s-16.167 15.5 -19.5 21.5l-6 9l25 39l5.5 -8c2.33301 -3.33301 8.16602 -9.33301 17.499 -18s19.666 -16.334 30.999 -23.001s26.833 -12.667 46.5 -18s40.834 -8 63.501 -8c42 0 75 12.167 99 36.5s36 54.5 36 90.5c0 30.667 -10.167 56 -30.5 76
s-44.833 35.833 -73.5 47.5l-86 36.5c-28.667 12.667 -53.167 31.834 -73.5 57.501s-30.5 57.834 -30.5 96.501c0 54.667 17.333 98.167 52 130.5s81 48.5 139 48.5c28.667 0 55.834 -4.66699 81.501 -14s44.167 -18.666 55.5 -27.999z" />
    <glyph glyph-name="scaron" unicode="&#x161;" horiz-adv-x="408" 
d="M189 573l-119 123l29 24l109 -101l111 101l28 -26l-119 -121h-39zM36 64l25.0049 34.9961c3.33301 -4.66699 8 -10.667 14 -18s19.833 -17 41.5 -29s45.167 -18 70.5 -18c37.333 0 65.5 9.33301 84.5 28s28.5 41.334 28.5 68.001c0 24.667 -8.33301 44.334 -25 59.001
s-37 26 -61 34s-47.833 16.667 -71.5 26s-43.834 24 -60.501 44s-25 46 -25 78c0 42.667 15.5 76.5 46.5 101.5s70.833 37.5 119.5 37.5c21.333 0 43 -3.33301 65 -10s38.667 -13.334 50 -20.001l17 -9l-12 -43c-35.333 26.667 -73.333 40 -114 40
c-30.667 0 -55.5 -7.66699 -74.5 -23s-28.5 -34.666 -28.5 -57.999c0 -24.667 8.66699 -44.667 26 -60s38.166 -27.166 62.499 -35.499s48.666 -17.166 72.999 -26.499s45.166 -24.166 62.499 -44.499s26 -46.5 26 -78.5c0 -43.333 -15 -79.5 -45 -108.5
s-74 -43.5 -132 -43.5c-22.667 0 -43.667 2.5 -63 7.5s-34.833 11.167 -46.5 18.5s-21.834 14.666 -30.501 21.999s-14.667 13.333 -18 18z" />
    <glyph glyph-name="Tcommaaccent" unicode="&#x162;" horiz-adv-x="461" 
d="M205 -54c7.33301 6 15.6689 9 25.002 9s17.666 -3 24.999 -9c12.667 -12 19 -31 19 -57c0 -30 -7.83301 -62 -23.5 -96s-35.834 -61 -60.501 -81l-18 19c40 37.333 60 82 60 134c0 8 -0.333008 14 -1 18c-10 0 -18.667 3 -26 9c-7.33301 7.33301 -11 16.333 -11 27
s3.66699 19.667 11 27zM454.003 650v-48h-186v-602h-76v602h-185v48h447z" />
    <glyph glyph-name="tcommaaccent" unicode="&#x163;" horiz-adv-x="326" 
d="M194 -54l2.00195 -2c11.333 -12 17 -30.333 17 -55c0 -30 -7.83301 -62 -23.5 -96s-35.834 -61 -60.501 -81l-18 19c40 37.333 60 82 60 134c0 8 -0.333008 14 -1 18c-10.667 0 -19.334 3 -26.001 9c-7.33301 7.33301 -11 16.333 -11 27s3.66699 19.667 11 27
c6.66699 6 15 9 25 9s18.333 -3 25 -9zM293.002 500l-0.000976562 -49h-128v-299c0 -43.333 4.16699 -73.166 12.5 -89.499s22.833 -24.5 43.5 -24.5c12 0 23.333 1 34 3s18.334 3.66699 23.001 5l8 3l5 -40c-18.667 -12.667 -49.667 -19 -93 -19
c-36 0 -62.667 11.167 -80 33.5s-26 59.166 -26 110.499v317h-52v42l52 6l27 159h46v-158h128z" />
    <glyph glyph-name="Tcaron" unicode="&#x164;" horiz-adv-x="461" 
d="M210 708l-119 123l29 24l109 -101l111 101l28 -26l-119 -121h-39zM454 650v-48h-186v-602h-76v602h-185v48h447z" />
    <glyph glyph-name="tcaron" unicode="&#x165;" horiz-adv-x="326" 
d="M283 769l50 -7l-52 -212l-31 3zM293 500l-0.000976562 -49h-128v-299c0 -43.333 4.16699 -73.166 12.5 -89.499s22.833 -24.5 43.5 -24.5c12 0 23.333 1 34 3s18.334 3.66699 23.001 5l8 3l5 -40c-18.667 -12.667 -49.667 -19 -93 -19c-36 0 -62.667 11.167 -80 33.5
s-26 59.166 -26 110.499v317h-52v42l52 6l27 159h46v-158h128z" />
    <glyph glyph-name="Umacron" unicode="&#x16a;" horiz-adv-x="620" 
d="M410 807v-36h-186v36h186zM310 -10c-72.667 0 -128.167 20 -166.5 60s-57.5 94 -57.5 162v438h75v-421c0 -60.667 13.333 -107.167 40 -139.5s65.667 -48.5 117 -48.5c53.333 0 93.5 16.5 120.5 49.5s40.5 79.167 40.5 138.5v421h55v-438c0 -68 -18.667 -122 -56 -162
s-93.333 -60 -168 -60z" />
    <glyph glyph-name="umacron" unicode="&#x16b;" horiz-adv-x="512" 
d="M350 672v-36h-186v36h186zM437 500l0.00292969 -500h-61l-10 48c-4.66699 -6 -10.834 -12.5 -18.501 -19.5s-23.334 -15.167 -47.001 -24.5s-50.167 -14 -79.5 -14c-48.667 0 -86.334 13.5 -113.001 40.5s-40 67.167 -40 120.5v349h73v-334c0 -82 34.667 -123 104 -123
c24 0 45.833 4.16699 65.5 12.5s33.5 16.833 41.5 25.5l12 13v406h73z" />
    <glyph glyph-name="Uring" unicode="&#x16e;" horiz-adv-x="620" 
d="M376 779c0 22 -5.66797 38.667 -17.001 50s-25.666 17 -42.999 17c-18 0 -32.667 -5.66699 -44 -17s-17 -28 -17 -50c0 -22.667 5.66699 -39.5 17 -50.5s26 -16.5 44 -16.5s32.5 5.5 43.5 16.5s16.5 27.833 16.5 50.5zM404.999 779c0 -30 -8.16699 -53 -24.5 -69
s-37.833 -24 -64.5 -24s-48.167 8 -64.5 24s-24.5 39 -24.5 69c0 29.333 8.33301 52.333 25 69s38 25 64 25c25.333 0 46.5 -8.33301 63.5 -25s25.5 -39.667 25.5 -69zM309.999 -10c-72.667 0 -128.167 20 -166.5 60s-57.5 94 -57.5 162v438h75v-421
c0 -60.667 13.333 -107.167 40 -139.5s65.667 -48.5 117 -48.5c53.333 0 93.5 16.5 120.5 49.5s40.5 79.167 40.5 138.5v421h55v-438c0 -68 -18.667 -122 -56 -162s-93.333 -60 -168 -60z" />
    <glyph glyph-name="uring" unicode="&#x16f;" horiz-adv-x="512" 
d="M315 644c0 22.667 -5.5 39.5 -16.5 50.5s-25.5 16.5 -43.5 16.5s-32.667 -5.66699 -44 -17s-17 -28 -17 -50c0 -22.667 5.66699 -39.5 17 -50.5s26 -16.5 44 -16.5s32.5 5.5 43.5 16.5s16.5 27.833 16.5 50.5zM344 644c0 -30 -8.16699 -53 -24.5 -69
s-37.833 -24 -64.5 -24s-48.167 8 -64.5 24s-24.5 39 -24.5 69c0 29.333 8.33301 52.333 25 69s38 25 64 25c25.333 0 46.5 -8.33301 63.5 -25s25.5 -39.667 25.5 -69zM437 500l0.00292969 -500h-61l-10 48c-4.66699 -6 -10.834 -12.5 -18.501 -19.5
s-23.334 -15.167 -47.001 -24.5s-50.167 -14 -79.5 -14c-48.667 0 -86.334 13.5 -113.001 40.5s-40 67.167 -40 120.5v349h73v-334c0 -82 34.667 -123 104 -123c24 0 45.833 4.16699 65.5 12.5s33.5 16.833 41.5 25.5l12 13v406h73z" />
    <glyph glyph-name="Uhungarumlaut" unicode="&#x170;" horiz-adv-x="620" 
d="M217 725l45 128l52 -13l-63 -129zM346 725l46 128l51 -13l-63 -129zM310 -10c-72.667 0 -128.167 20 -166.5 60s-57.5 94 -57.5 162v438h75v-421c0 -60.667 13.333 -107.167 40 -139.5s65.667 -48.5 117 -48.5c53.333 0 93.5 16.5 120.5 49.5s40.5 79.167 40.5 138.5v421
h55v-438c0 -68 -18.667 -122 -56 -162s-93.333 -60 -168 -60z" />
    <glyph glyph-name="uhungarumlaut" unicode="&#x171;" horiz-adv-x="512" 
d="M165 590l45 128l52 -13l-63 -129zM294 590l46 128l51 -13l-63 -129zM437 500l0.00292969 -500h-61l-10 48c-4.66699 -6 -10.834 -12.5 -18.501 -19.5s-23.334 -15.167 -47.001 -24.5s-50.167 -14 -79.5 -14c-48.667 0 -86.334 13.5 -113.001 40.5s-40 67.167 -40 120.5
v349h73v-334c0 -82 34.667 -123 104 -123c24 0 45.833 4.16699 65.5 12.5s33.5 16.833 41.5 25.5l12 13v406h73z" />
    <glyph glyph-name="Uogonek" unicode="&#x172;" horiz-adv-x="620" 
d="M310 -10c-72.667 0 -128.168 20.001 -166.501 60.001s-57.5 94 -57.5 162v438h75v-421c0 -60.667 13.333 -107.167 40 -139.5s65.667 -48.5 117 -48.5c53.333 0 93.5 16.5 120.5 49.5s40.5 79.167 40.5 138.5v421h55v-438c0 -57.333 -13.167 -104.833 -39.5 -142.5
s-66.166 -62.167 -119.499 -73.5c-50 -34.667 -75 -78.334 -75 -131.001c0 -55.333 35 -83 105 -83v-32c-103.333 0 -155 37 -155 111c0 47.333 25 90.333 75 129h-15z" />
    <glyph glyph-name="uogonek" unicode="&#x173;" horiz-adv-x="512" 
d="M437 500l0.00292969 -499.999h-18c-10 -6.66699 -20 -14.334 -30 -23.001s-21 -23.667 -33 -45s-18 -43.666 -18 -66.999c0 -55.333 35 -83 105 -83v-32c-103.333 0 -155 37 -155 111c0 51.333 29.333 97.666 88 138.999l-10 48c-4.66699 -6 -10.834 -12.5 -18.501 -19.5
s-23.334 -15.167 -47.001 -24.5s-50.167 -14 -79.5 -14c-48.667 0 -86.334 13.5 -113.001 40.5s-40 67.167 -40 120.5v349h73v-334c0 -82 34.667 -123 104 -123c24 0 45.833 4.16699 65.5 12.5s33.5 16.833 41.5 25.5l12 13v406h73z" />
    <glyph glyph-name="Ydieresis" unicode="&#x178;" horiz-adv-x="507" 
d="M161 809c8.66699 6.66699 17.667 10.001 27 10.001c8.66699 0 17.334 -3.33301 26.001 -10c7.33301 -8.66699 11 -18.667 11 -30c0 -10.667 -3.66699 -20.334 -11 -29.001c-8.66699 -6.66699 -17.334 -10 -26.001 -10c-9.33301 0 -18.333 3.33301 -27 10
c-7.33301 7.33301 -11 17 -11 29c0 12.667 3.66699 22.667 11 30zM315 809.001c8.66699 6.66699 17.334 10 26.001 10s17.334 -3.33301 26.001 -10c8 -8 12 -18 12 -30c0 -11.333 -4 -21 -12 -29c-8.66699 -6.66699 -17.334 -10 -26.001 -10s-17.334 3.33301 -26.001 10
c-7.33301 7.33301 -11 17 -11 29c0 12.667 3.66699 22.667 11 30zM2 650.001h85l179 -320l178 320h61l-212 -376v-274h-76v269z" />
    <glyph glyph-name="Zacute" unicode="&#x179;" horiz-adv-x="527" 
d="M321 856l63 -15l-102 -135l-38 5zM485 650v-41l-353 -561h353v-48h-445v40l352 562h-343v48h436z" />
    <glyph glyph-name="zacute" unicode="&#x17a;" horiz-adv-x="415" 
d="M266 721l63 -15l-102 -135l-38 5zM375 500v-40l-254 -415h252l2 -45h-340v40l256 415h-234l-3 45h321z" />
    <glyph glyph-name="Zdotaccent" unicode="&#x17b;" horiz-adv-x="527" 
d="M241 811c7.33301 7.33301 17 10.999 29 10.999c12.667 0 22.667 -3.33301 30 -10c8 -9.33301 12 -20.333 12 -33s-4 -23.334 -12 -32.001c-9.33301 -7.33301 -19.333 -11 -30 -11c-12 0 -21.667 3.66699 -29 11c-8.66699 8.66699 -13 19.334 -13 32.001
s4.33301 23.334 13 32.001zM485 649.999v-41l-353 -561h353v-48h-445v40l352 562h-343v48h436z" />
    <glyph glyph-name="zdotaccent" unicode="&#x17c;" horiz-adv-x="415" 
d="M191 676c7.33301 7.33301 17 10.998 29 10.998c12.667 0 22.667 -3.33301 30 -10c8 -8.66699 12 -19.667 12 -33c0 -12 -4 -22.667 -12 -32c-9.33301 -7.33301 -19.333 -11 -30 -11c-12 0 -21.667 3.66699 -29 11c-8.66699 8.66699 -13 19.334 -13 32.001
s4.33301 23.334 13 32.001zM375 499.998v-40l-254 -415h252l2 -45h-340v40l256 415h-234l-3 45h321z" />
    <glyph glyph-name="Zcaron" unicode="&#x17d;" horiz-adv-x="527" 
d="M252 708l-119 123l29 24l109 -101l111 101l28 -26l-119 -121h-39zM485 650v-41l-353 -561h353v-48h-445v40l352 562h-343v48h436z" />
    <glyph glyph-name="zcaron" unicode="&#x17e;" horiz-adv-x="415" 
d="M201 573l-119 123l29 24l109 -101l111 101l28 -26l-119 -121h-39zM375 500v-40l-254 -415h252l2 -45h-340v40l256 415h-234l-3 45h321z" />
    <glyph glyph-name="longs" unicode="&#x17f;" horiz-adv-x="222" 
d="M147 563l0.00195312 -563h-73v571c0 64 10.167 111.333 30.5 142s54.166 46 101.499 46c16 0 31.833 -2.5 47.5 -7.5s27.5 -9.83301 35.5 -14.5l12 -7l-10 -39c-22.667 15.333 -47.334 23 -74.001 23c-25.333 0 -43.333 -10.833 -54 -32.5s-16 -61.167 -16 -118.5z" />
    <glyph glyph-name="florin" unicode="&#x192;" horiz-adv-x="282" 
d="M97 -45v495.999h-52v42l52 6v72c0 64 10.167 111.333 30.5 142s53.833 46 100.5 46c16 0 32 -2.5 48 -7.5s28 -9.83301 36 -14.5l12 -7l-11 -39c-22 15.333 -46.333 23 -73 23c-25.333 0 -43.5 -11 -54.5 -33s-16.5 -61.333 -16.5 -118v-63h146v-49h-146v-496
c0 -74.667 -13.333 -129.167 -40 -163.5s-59 -51.5 -97 -51.5c-16 0 -29.833 1.33301 -41.5 4s-19.167 5.33398 -22.5 8.00098l-6 3l14 47c11.333 -6 27.333 -9 48 -9c48.667 0 73 54 73 162z" />
    <glyph glyph-name="uni0237" unicode="&#x237;" horiz-adv-x="239" 
d="M91 -41l-0.000976562 541h73v-541c0 -146 -47 -219 -141 -219c-16 0 -30 1.83301 -42 5.5s-20.333 7.16699 -25 10.5l-6 6l14 41c12.667 -10.667 29.334 -16 50.001 -16c26 0 45.333 13.333 58 40s19 70.667 19 132z" />
    <glyph glyph-name="circumflex" unicode="&#x2c6;" horiz-adv-x="336" 
d="M187 743l108 -114l-18 -32l-110 97l-110 -97l-19 32l110 114h39z" />
    <glyph glyph-name="caron" unicode="&#x2c7;" horiz-adv-x="336" 
d="M148 573l-119 123l29 24l109 -101l111 101l28 -26l-119 -121h-39z" />
    <glyph glyph-name="breve" unicode="&#x2d8;" horiz-adv-x="353" 
d="M176 620c24 0 43.832 5 59.499 15s25.167 19.667 28.5 29l6 15v2l45 -6c0 -2.66699 -0.666992 -6.16699 -2 -10.5s-4.83301 -12.333 -10.5 -24s-13.167 -21.834 -22.5 -30.501s-23 -16.5 -41 -23.5s-39 -10.5 -63 -10.5s-45 3.33301 -63 10s-31.5 15 -40.5 25
s-16.167 19.833 -21.5 29.5s-8.66602 17.834 -9.99902 24.501l-2 10l45 6v-2c0 -1.33301 0.5 -3.33301 1.5 -6s3.66699 -7.5 8 -14.5s9.5 -13 15.5 -18s15 -9.66699 27 -14s25.333 -6.5 40 -6.5z" />
    <glyph glyph-name="dotaccent" unicode="&#x2d9;" horiz-adv-x="365" 
d="M182 676c7.33301 7.33301 17 10.998 29 10.998c12.667 0 22.667 -3.33301 30 -10c8 -8.66699 12 -19.667 12 -33c0 -12 -4 -22.667 -12 -32c-9.33301 -7.33301 -19.333 -11 -30 -11c-12 0 -21.667 3.66699 -29 11c-8.66699 8.66699 -13 19.334 -13 32.001
s4.33301 23.334 13 32.001z" />
    <glyph glyph-name="ring" unicode="&#x2da;" horiz-adv-x="409" 
d="M212 644c0 22.667 -5.66797 39.5 -17.001 50.5s-25.666 16.5 -42.999 16.5c-18 0 -32.667 -5.66699 -44 -17s-17 -28 -17 -50c0 -22.667 5.66699 -39.5 17 -50.5s26 -16.5 44 -16.5s32.5 5.5 43.5 16.5s16.5 27.833 16.5 50.5zM240.999 644c0 -30 -8.16699 -53 -24.5 -69
s-37.833 -24 -64.5 -24s-48.167 8 -64.5 24s-24.5 39 -24.5 69c0 29.333 8.33301 52.333 25 69s38 25 64 25c25.333 0 46.5 -8.33301 63.5 -25s25.5 -39.667 25.5 -69z" />
    <glyph glyph-name="ogonek" unicode="&#x2db;" horiz-adv-x="233" 
d="M161 22l13.001 -17.998c-2.66699 -1.33301 -5.83398 -3.33301 -9.50098 -6s-10.667 -8.33398 -21 -17.001s-19.333 -18 -27 -28s-14.667 -23 -21 -39s-9.5 -32.333 -9.5 -49c0 -55.333 35 -83 105 -83v-32c-103.333 0 -155 37 -155 111c0 18.667 4.33301 37 13 55
s19 33.167 31 45.5s24.167 23.166 36.5 32.499s22.833 16.333 31.5 21z" />
    <glyph glyph-name="tilde" unicode="&#x2dc;" horiz-adv-x="396" 
d="M337 671l22.9971 -24.999c-2 -4 -4.83301 -8.83301 -8.5 -14.5s-12.667 -13.167 -27 -22.5s-30.833 -14 -49.5 -14c-20 0 -46.333 7.66699 -79 23s-57.667 23 -75 23c-11.333 0 -22 -3.16699 -32 -9.5s-17 -12.833 -21 -19.5l-7 -10l-23 25
c0.666992 2 1.83398 4.33301 3.50098 7s5.5 7.66699 11.5 15s12.333 13.666 19 18.999s15.667 10.333 27 15s23 7 35 7c22 0 48.833 -7.66699 80.5 -23s55.5 -23 71.5 -23c10.667 0 20.334 2.33301 29.001 7s14.334 9 17.001 13z" />
    <glyph glyph-name="hungarumlaut" unicode="&#x2dd;" horiz-adv-x="375" 
d="M75 590l45 128l52 -13l-63 -129zM204 590l46 128l51 -13l-63 -129z" />
    <glyph glyph-name="uni0400" unicode="&#x400;" horiz-adv-x="507" 
d="M168 843l62 16l83 -143l-40 -8zM466 48v-48h-372v650h350v-48h-274v-250h251v-46h-251v-258h296z" />
    <glyph glyph-name="afii10023" unicode="&#x401;" horiz-adv-x="507" 
d="M164 809c8.66699 6.66699 17.334 10.001 26.001 10.001c9.33301 0 18.333 -3.33301 27 -10c7.33301 -8.66699 11 -18.667 11 -30c0 -10.667 -3.66699 -20.334 -11 -29.001c-8.66699 -6.66699 -17.667 -10 -27 -10c-8.66699 0 -17.334 3.33301 -26.001 10
c-7.33301 7.33301 -11 17 -11 29c0 12.667 3.66699 22.667 11 30zM318 809.001c8.66699 6.66699 17.334 10 26.001 10s17.334 -3.33301 26.001 -10c8 -8 12 -18 12 -30c0 -11.333 -4 -21 -12 -29c-8.66699 -6.66699 -17.334 -10 -26.001 -10s-17.334 3.33301 -26.001 10
c-7.33301 7.33301 -11 17 -11 29c0 12.667 3.66699 22.667 11 30zM466 48.001v-48h-372v650h350v-48h-274v-250h251v-46h-251v-258h296z" />
    <glyph glyph-name="afii10051" unicode="&#x402;" horiz-adv-x="637" 
d="M432 650l0.00292969 -46.001h-174v-278c4 5.33301 11.167 12.666 21.5 21.999s29.666 20.333 57.999 33s58.166 19 89.499 19c56 0 96 -13.333 120 -40s36 -68 36 -124v-49c0 -74 -12.833 -125.333 -38.5 -154s-60.834 -43 -105.501 -43c-20.667 0 -39 3.33301 -55 10
s-26.667 13.334 -32 20.001l-9 9l14 33c15.333 -20 37.333 -30 66 -30c54.667 0 83 43.333 85 130v59c0 48.667 -8 81.834 -24 99.501s-44.333 26.5 -85 26.5c-22 0 -44.167 -5 -66.5 -15s-38.5 -19 -48.5 -27s-18.667 -16 -26 -24v-281h-76v604h-175v46h425z" />
    <glyph glyph-name="afii10052" unicode="&#x403;" horiz-adv-x="409" 
d="M273 856l63 -15l-102 -135l-38 5zM407 602h-237v-602h-76v650h313v-48z" />
    <glyph glyph-name="afii10053" unicode="&#x404;" horiz-adv-x="575" 
d="M457 342l0.00195312 -47.0049h-327c2.66699 -86 22.667 -150 60 -192s88.666 -63 153.999 -63c22.667 0 44.334 3.33301 65.001 10s37.667 14.834 51 24.501s25.166 19.334 35.499 29.001s17.833 17.834 22.5 24.501l7 10l27 -32c-2 -3.33301 -4.66699 -7.5 -8 -12.5
s-11.333 -14.167 -24 -27.5s-26.667 -25.166 -42 -35.499s-35.833 -19.666 -61.5 -27.999s-52.834 -12.5 -81.501 -12.5c-89.333 0 -159.5 28.667 -210.5 86s-76.5 137.333 -76.5 240c0 103.333 25.167 186.333 75.5 249s118.166 94 203.499 94
c30.667 0 61.667 -4.5 93 -13.5s55.333 -18.167 72 -27.5l24 -14l-10 -48c-6 4 -14.5 9 -25.5 15s-31.5 13.833 -61.5 23.5s-58 14.5 -84 14.5c-62.667 0 -111.667 -22.5 -147 -67.5s-54.666 -111.5 -57.999 -199.5h327z" />
    <glyph glyph-name="afii10054" unicode="&#x405;" horiz-adv-x="490" 
d="M419 603l-10.002 -44.001c-4 4 -9.83301 9 -17.5 15s-23.667 14 -48 24s-49.166 15 -74.499 15c-37.333 0 -66.666 -10.333 -87.999 -31s-32 -48.667 -32 -84c0 -30.667 10.167 -56 30.5 -76s44.833 -35.667 73.5 -47s57.334 -23.5 86.001 -36.5
s53.167 -32.833 73.5 -59.5s30.5 -60.334 30.5 -101.001c0 -55.333 -18.833 -100.5 -56.5 -135.5s-87.834 -52.5 -150.501 -52.5c-27.333 0 -52.666 3 -75.999 9s-41.833 13 -55.5 21s-25.334 16.167 -35.001 24.5s-16.167 15.5 -19.5 21.5l-6 9l25 39l5.5 -8
c2.33301 -3.33301 8.16602 -9.33301 17.499 -18s19.666 -16.334 30.999 -23.001s26.833 -12.667 46.5 -18s40.834 -8 63.501 -8c42 0 75 12.167 99 36.5s36 54.5 36 90.5c0 30.667 -10.167 56 -30.5 76s-44.833 35.833 -73.5 47.5l-86 36.5
c-28.667 12.667 -53.167 31.834 -73.5 57.501s-30.5 57.834 -30.5 96.501c0 54.667 17.333 98.167 52 130.5s81 48.5 139 48.5c28.667 0 55.834 -4.66699 81.501 -14s44.167 -18.666 55.5 -27.999z" />
    <glyph glyph-name="afii10055" unicode="&#x406;" horiz-adv-x="265" 
d="M170 650v-650h-76v650h76z" />
    <glyph glyph-name="afii10056" unicode="&#x407;" horiz-adv-x="265" 
d="M29 809c8.66699 6.66699 17.667 10.001 27 10.001c8.66699 0 17.334 -3.33301 26.001 -10c7.33301 -8.66699 11 -18.667 11 -30c0 -10.667 -3.66699 -20.334 -11 -29.001c-8.66699 -6.66699 -17.334 -10 -26.001 -10c-9.33301 0 -18.333 3.33301 -27 10
c-7.33301 7.33301 -11 17 -11 29c0 12.667 3.66699 22.667 11 30zM183 809.001c8.66699 6.66699 17.334 10 26.001 10s17.334 -3.33301 26.001 -10c8 -8 12 -18 12 -30c0 -11.333 -4 -21 -12 -29c-8.66699 -6.66699 -17.334 -10 -26.001 -10s-17.334 3.33301 -26.001 10
c-7.33301 7.33301 -11 17 -11 29c0 12.667 3.66699 22.667 11 30zM170 650.001v-650h-76v650h76z" />
    <glyph glyph-name="afii10057" unicode="&#x408;" horiz-adv-x="374" 
d="M26 71c2 -2.66699 4.66699 -5.83203 8 -9.49902s12 -8.5 26 -14.5s29.667 -9 47 -9c62 0 93 51 93 153v459h75v-459c0 -74.667 -13.333 -126.834 -40 -156.501s-63.667 -44.5 -111 -44.5c-27.333 0 -50.833 3.5 -70.5 10.5s-32.5 14.167 -38.5 21.5l-9 10z" />
    <glyph glyph-name="afii10058" unicode="&#x409;" horiz-adv-x="871" 
d="M584 346h-77v-302h79c106.667 0 160 51.667 160 155c0 98 -54 147 -162 147zM431 0l0.00292969 602.001h-189c-0.666992 -198.667 -16.667 -349.834 -48 -453.501s-75.333 -155.5 -132 -155.5c-8.66699 0 -16.334 0.5 -23.001 1.5s-11.334 2.16699 -14.001 3.5l-4 1l3 54
c7.33301 -2.66699 15.666 -4 24.999 -4c94 0 141 200.333 141 601h317v-262h77c76 0 134.833 -15.667 176.5 -47s62.5 -78 62.5 -140c0 -64 -19.833 -113.5 -59.5 -148.5s-98.167 -52.5 -175.5 -52.5h-157z" />
    <glyph glyph-name="afii10059" unicode="&#x40a;" horiz-adv-x="906" 
d="M620 346h-77v-302h79c106.667 0 160 51.667 160 155c0 98 -54 147 -162 147zM467 0v312h-297v-312h-76v650h76v-292h297v292h76v-262h77c76 0 134.833 -15.667 176.5 -47s62.5 -78 62.5 -140c0 -64 -19.833 -113.5 -59.5 -148.5s-98.167 -52.5 -175.5 -52.5h-157z" />
    <glyph glyph-name="afii10060" unicode="&#x40b;" horiz-adv-x="670" 
d="M432 650l0.00195312 -46h-174v-278c4 5.33301 11.167 12.666 21.5 21.999s29.666 20.333 57.999 33s58.166 19 89.499 19c56 0 96.167 -13.333 120.5 -40s36.5 -68 36.5 -124v-236h-76v221c0 48.667 -8 81.834 -24 99.501s-44.333 26.5 -85 26.5
c-22 0 -44.167 -5 -66.5 -15s-38.5 -19 -48.5 -27s-18.667 -16 -26 -24v-281h-76v604h-175v46h425z" />
    <glyph glyph-name="afii10061" unicode="&#x40c;" horiz-adv-x="600" 
d="M327 856l63 -15l-102 -135l-38 5zM94 0v650h76v-354l79 70l219 284h61l-228 -290l259 -360h-95l-220 302l-75 -63v-239h-76z" />
    <glyph glyph-name="uni040D" unicode="&#x40d;" horiz-adv-x="652" 
d="M215 843l62 16l83 -143l-40 -8zM558 650v-650h-75v518l4 37h-1l-315 -544l-5 -11h-72v650h76v-523l-5 -33h1l316 545l5 11h71z" />
    <glyph glyph-name="afii10062" unicode="&#x40e;" horiz-adv-x="569" 
d="M311 750c15.333 0 28.501 2.16602 39.501 6.49902s19.167 9.33301 24.5 15s9.5 11.5 12.5 17.5s4.5 11 4.5 15l1 7v5l60 -6c0 -2.66699 -0.5 -6.16699 -1.5 -10.5s-4.5 -12.333 -10.5 -24s-13.5 -21.834 -22.5 -30.501s-23 -16.5 -42 -23.5s-40.833 -10.5 -65.5 -10.5
s-46.334 3.33301 -65.001 10s-32.5 14.834 -41.5 24.501s-16.333 19.5 -22 29.5s-9.16699 18.333 -10.5 25l-2 10l60 6v-5c0 -1.33301 0.166992 -3.5 0.5 -6.5s2 -8 5 -15s7 -13.167 12 -18.5s13.167 -10.166 24.5 -14.499s24.333 -6.5 39 -6.5zM30.001 649.999h88.001
l210 -421l153 421h60l-186 -476c-26.667 -67.333 -55.334 -114.666 -86.001 -141.999s-66 -41 -106 -41c-16 0 -31 1.66699 -45 5s-24 6.66602 -30 9.99902l-8 5l11 53c18 -12.667 42 -19 72 -19c25.333 0 48 7.16699 68 21.5s39.667 41.833 59 82.5z" />
    <glyph glyph-name="afii10145" unicode="&#x40f;" horiz-adv-x="623" 
d="M170 650v-602h282v602h76v-650h-183l-9 -211h-48l-11 211h-183v650h76z" />
    <glyph glyph-name="afii10017" unicode="&#x410;" horiz-adv-x="568" 
d="M273 592l-115 -351h228zM242 650h89l215 -650h-79l-68 200h-255l-68 -200h-53z" />
    <glyph glyph-name="afii10018" unicode="&#x411;" horiz-adv-x="533" 
d="M245 346h-75.001v-302h77c54.667 0 95.334 12.5 122.001 37.5s40 64.167 40 117.5c0 98 -54.667 147 -164 147zM421.999 650v-48h-252v-214h75c76.667 0 136 -15.667 178 -47s63 -78 63 -140c0 -64 -20 -113.5 -60 -148.5s-98.667 -52.5 -176 -52.5h-156v650h328z" />
    <glyph glyph-name="afii10019" unicode="&#x412;" horiz-adv-x="542" 
d="M170 356l118.002 -0.000976562c23.333 0 46.166 10 68.499 30s33.5 52.333 33.5 97c0 40.667 -12.333 71.334 -37 92.001s-57.334 31 -98.001 31h-85v-250zM292.002 314.999h-122v-271h86c108.667 0 163 47.667 163 143c0 42.667 -11.667 74.667 -35 96s-54 32 -92 32z
M94.002 -0.000976562v650.003h164c65.333 0 115.833 -14.833 151.5 -44.5s53.5 -68.834 53.5 -117.501c0 -65.333 -31.333 -114.333 -94 -147c38.667 -10.667 69.167 -29.334 91.5 -56.001s33.5 -60.334 33.5 -101.001c0 -58.667 -19.5 -104 -58.5 -136
s-97.833 -48 -176.5 -48h-165z" />
    <glyph glyph-name="afii10020" unicode="&#x413;" horiz-adv-x="409" 
d="M407 602h-237v-602h-76v650h313v-48z" />
    <glyph glyph-name="afii10021" unicode="&#x414;" horiz-adv-x="611" 
d="M427 602l-203 0.000976562c-1.33301 -144.667 -9 -259.334 -23 -344.001s-34 -154.667 -60 -210h286v554zM171 650.001h331v-602h76l-12 -217h-49l-11 169h-405l-18 -169h-45l-5 217h54c28 56 49 129.5 63 220.5s21 218.167 21 381.5z" />
    <glyph glyph-name="afii10022" unicode="&#x415;" horiz-adv-x="507" 
d="M466 48v-48h-372v650h350v-48h-274v-250h251v-46h-251v-258h296z" />
    <glyph glyph-name="afii10024" unicode="&#x416;" horiz-adv-x="862" 
d="M455 650v-275h93l179 275h63l-193 -283l223 -367h-89l-192 327h-84v-327h-75v327h-84l-166 -327h-88l195 354l-177 296h63l160 -276h97v276h75z" />
    <glyph glyph-name="afii10025" unicode="&#x417;" horiz-adv-x="483" 
d="M75 565l-9 43.002c5.33301 4 12.666 8.83301 21.999 14.5s28 13.167 56 22.5s55.333 14 82 14c61.333 0 108 -14.667 140 -44s48 -69.333 48 -120c0 -38 -10.167 -70.333 -30.5 -97s-45.166 -47.334 -74.499 -62.001c84.667 -18 127 -70 127 -156
c0 -56.667 -19.667 -102.5 -59 -137.5s-92.333 -52.5 -159 -52.5c-30 0 -57.333 3.5 -82 10.5s-43.834 15.5 -57.501 25.5s-25.167 20 -34.5 30s-15.666 18.667 -18.999 26l-5 10l28 35c1.33301 -2.66699 3 -5.83398 5 -9.50098s7.5 -10.667 16.5 -21s19 -19.333 30 -27
s26.5 -14.667 46.5 -21s41.333 -9.5 64 -9.5c45.333 0 80.5 12.333 105.5 37s37.5 60 37.5 106c0 86 -42 129 -126 129l-93 -4v48l98 -4c25.333 0.666992 49 13.167 71 37.5s33 57.833 33 100.5c0 82 -40.667 123 -122 123c-22.667 0 -45.5 -4 -68.5 -12
s-40.5 -16 -52.5 -24z" />
    <glyph glyph-name="afii10026" unicode="&#x418;" horiz-adv-x="652" 
d="M558 650v-650h-75v518l4 37h-1l-315 -544l-5 -11h-72v650h76v-523l-5 -33h1l316 545l5 11h71z" />
    <glyph glyph-name="afii10027" unicode="&#x419;" horiz-adv-x="652" 
d="M327 750c15.333 0 28.501 2.16602 39.501 6.49902s19.167 9.33301 24.5 15s9.5 11.5 12.5 17.5s4.5 11 4.5 15l1 7v5l60 -6c0 -2.66699 -0.5 -6.16699 -1.5 -10.5s-4.5 -12.333 -10.5 -24s-13.5 -21.834 -22.5 -30.501s-23 -16.5 -42 -23.5s-40.833 -10.5 -65.5 -10.5
s-46.334 3.33301 -65.001 10s-32.5 14.834 -41.5 24.501s-16.333 19.5 -22 29.5s-9.16699 18.333 -10.5 25l-2 10l60 6v-5c0 -1.33301 0.166992 -3.5 0.5 -6.5s2 -8 5 -15s7 -13.167 12 -18.5s13.167 -10.166 24.5 -14.499s24.333 -6.5 39 -6.5zM558.001 649.999v-650h-75
v518l4 37h-1l-315 -544l-5 -11h-72v650h76v-523l-5 -33h1l316 545l5 11h71z" />
    <glyph glyph-name="afii10028" unicode="&#x41a;" horiz-adv-x="600" 
d="M94 0v650h76v-354l79 70l219 284h61l-228 -290l259 -360h-95l-220 302l-75 -63v-239h-76z" />
    <glyph glyph-name="afii10029" unicode="&#x41b;" horiz-adv-x="602" 
d="M190 650l317.003 0.000976562v-650h-75v602h-190c-0.666992 -198.667 -16.667 -349.834 -48 -453.501s-75.333 -155.5 -132 -155.5c-8.66699 0 -16.334 0.5 -23.001 1.5s-11.334 2.16699 -14.001 3.5l-4 1l3 54c7.33301 -2.66699 15.666 -4 24.999 -4
c94 0 141 200.333 141 601z" />
    <glyph glyph-name="afii10030" unicode="&#x41c;" horiz-adv-x="835" 
d="M738 650l3 -650h-74l-3 557h-1l-225 -557h-61l-226 557l-2 -557h-55l3 650l2 -3l-1 3h93l229 -557h1l229 557h88z" />
    <glyph glyph-name="afii10031" unicode="&#x41d;" horiz-adv-x="638" 
d="M543 650v-650h-76v312h-297v-312h-76v650h76v-292h297v292h76z" />
    <glyph glyph-name="afii10032" unicode="&#x41e;" horiz-adv-x="654" 
d="M525 324c0 92.667 -17.167 163.667 -51.5 213s-83.5 74 -147.5 74c-63.333 0 -112 -24.667 -146 -74s-51 -120.333 -51 -213c0 -93.333 16.833 -164.333 50.5 -213s82.5 -73 146.5 -73s113.167 24.333 147.5 73s51.5 119.667 51.5 213zM606 324
c0 -104 -24.667 -185.667 -74 -245s-118 -89 -206 -89c-87.333 0 -155.5 29.667 -204.5 89s-73.5 141 -73.5 245c0 103.333 24.5 185 73.5 245s117.167 90 204.5 90s155.833 -30 205.5 -90s74.5 -141.667 74.5 -245z" />
    <glyph glyph-name="afii10033" unicode="&#x41f;" horiz-adv-x="623" 
d="M528 650v-650h-76v602h-282v-602h-76v650h434z" />
    <glyph glyph-name="afii10034" unicode="&#x420;" horiz-adv-x="496" 
d="M242 606h-72v-336h71c93.333 0 140 57 140 171c0 110 -46.333 165 -139 165zM94 0v650.001h156c66.667 0 118.5 -17.333 155.5 -52s55.5 -86 55.5 -154c0 -74.667 -20.5 -129.334 -61.5 -164.001s-90.167 -52 -147.5 -52h-82v-228h-76z" />
    <glyph glyph-name="afii10035" unicode="&#x421;" horiz-adv-x="570" 
d="M510 556c-6.66699 4 -15.499 8.99512 -26.499 14.9951s-31.833 13.833 -62.5 23.5s-59 14.5 -85 14.5c-64.667 0 -115.334 -24.5 -152.001 -73.5s-55 -120.5 -55 -214.5c0 -92.667 18.667 -162.667 56 -210s89.666 -71 156.999 -71c22.667 0 44.167 3.33301 64.5 10
s37.333 14.834 51 24.501s25.5 19.334 35.5 29.001s17.333 17.834 22 24.501l7 10l28 -32c-2 -3.33301 -4.66699 -7.5 -8 -12.5s-11.333 -14.167 -24 -27.5s-26.667 -25.166 -42 -35.499s-35.833 -19.666 -61.5 -27.999s-52.834 -12.5 -81.501 -12.5
c-90 0 -160 29.167 -210 87.5s-75 138.833 -75 241.5c0 104 25.333 186.667 76 248s118.667 92 204 92c30.667 0 61.834 -4.5 93.501 -13.5s55.834 -18.167 72.501 -27.5l25 -14z" />
    <glyph glyph-name="afii10036" unicode="&#x422;" horiz-adv-x="461" 
d="M454 650v-48h-186v-602h-76v602h-185v48h447z" />
    <glyph glyph-name="afii10037" unicode="&#x423;" horiz-adv-x="569" 
d="M30 650h88.001l210 -421l153 421h60l-186 -476c-26.667 -67.333 -55.334 -114.666 -86.001 -141.999s-66 -41 -106 -41c-16 0 -31 1.66699 -45 5s-24 6.66602 -30 9.99902l-8 5l11 53c18 -12.667 42 -19 72 -19c25.333 0 48 7.16699 68 21.5s39.667 41.833 59 82.5z" />
    <glyph glyph-name="afii10038" unicode="&#x424;" horiz-adv-x="710" 
d="M114 324c0 -69.333 16.667 -120 50 -152s84.333 -48.667 153 -50v409c-68.667 -1.33301 -119.667 -18.5 -153 -51.5s-50 -84.833 -50 -155.5zM596 327c0 69.333 -16.833 120.333 -50.5 153s-84.834 49.667 -153.501 51v-409c68.667 1.33301 119.834 18.333 153.501 51
s50.5 84 50.5 154zM392 650l-0.00195312 -78.001c89.333 -1.33301 158.833 -22 208.5 -62s74.5 -101 74.5 -183c0 -82.667 -24.833 -144.167 -74.5 -184.5s-119.167 -61.166 -208.5 -62.499v-80h-75v80c-89.333 1.33301 -158.666 22 -207.999 62s-74 100.667 -74 182
c0 82 24.833 143.5 74.5 184.5s118.834 62.167 207.501 63.5v78h75z" />
    <glyph glyph-name="afii10039" unicode="&#x425;" horiz-adv-x="541" 
d="M18 0l208 323l-200 327h92l161 -272l168 272h63l-199 -315l212 -335h-93l-171 279h-1l-173 -279h-67z" />
    <glyph glyph-name="afii10040" unicode="&#x426;" horiz-adv-x="637" 
d="M170 650v-602h282v602h76v-602h75l-13 -217h-49l-11 169h-436v650h76z" />
    <glyph glyph-name="afii10041" unicode="&#x427;" horiz-adv-x="565" 
d="M470 650v-650h-75v275c-4 -3.33301 -10.167 -7.5 -18.5 -12.5s-26.833 -11.667 -55.5 -20s-59 -12.5 -91 -12.5c-107.333 0 -161 59.667 -161 179v241h75v-230c0 -50 9 -85.5 27 -106.5s46.667 -31.5 86 -31.5c23.333 0 46.166 3 68.499 9s38.333 11.5 48 16.5
s16.834 9.16699 21.501 12.5v330h75z" />
    <glyph glyph-name="afii10042" unicode="&#x428;" horiz-adv-x="852" 
d="M464 650v-602h218v602h75v-650h-663v650h76v-602h218v602h76z" />
    <glyph glyph-name="afii10043" unicode="&#x429;" horiz-adv-x="866" 
d="M757 650v-602h70l-12 -217h-49l-11 169h-661v650h76v-602h218v602h76v-602h218v602h75z" />
    <glyph glyph-name="afii10044" unicode="&#x42a;" horiz-adv-x="620" 
d="M334 346h-77v-302h79c106.667 0 160 51.667 160 155c0 98 -54 147 -162 147zM181 0v602h-174v48h250v-262h77c76 0 134.833 -15.667 176.5 -47s62.5 -78 62.5 -140c0 -64 -19.833 -113.5 -59.5 -148.5s-98.167 -52.5 -175.5 -52.5h-157z" />
    <glyph glyph-name="afii10045" unicode="&#x42b;" horiz-adv-x="757" 
d="M663 650v-650h-76v650h76zM247 346h-77v-302h79c106.667 0 160 51.667 160 155c0 98 -54 147 -162 147zM94 0v650h76v-262h77c76 0 134.833 -15.667 176.5 -47s62.5 -78 62.5 -140c0 -64 -19.833 -113.5 -59.5 -148.5s-98.167 -52.5 -175.5 -52.5h-157z" />
    <glyph glyph-name="afii10046" unicode="&#x42c;" horiz-adv-x="533" 
d="M247 346h-77v-302h79c106.667 0 160 51.667 160 155c0 98 -54 147 -162 147zM94 0v650h76v-262h77c76 0 134.833 -15.667 176.5 -47s62.5 -78 62.5 -140c0 -64 -19.833 -113.5 -59.5 -148.5s-98.167 -52.5 -175.5 -52.5h-157z" />
    <glyph glyph-name="afii10047" unicode="&#x42d;" horiz-adv-x="561" 
d="M13 86l26.001 41.0029c1.33301 -2.66699 3.66602 -5.83398 6.99902 -9.50098s10.333 -10.5 21 -20.5s22.334 -18.833 35.001 -26.5s29.334 -14.667 50.001 -21s42 -9.5 64 -9.5c62.667 0 113.167 22.167 151.5 66.5s59.166 110.166 62.499 197.499h-319v46h319
c-2 90.667 -19.333 156.667 -52 198s-82.667 62 -150 62c-28 0 -54.833 -4.16699 -80.5 -12.5s-44.5 -16.833 -56.5 -25.5l-18 -12l-9 45c5.33301 4 12.833 9 22.5 15s29.5 14 59.5 24s60.333 15 91 15c90.667 0 159.5 -28.833 206.5 -86.5s70.5 -139.167 70.5 -244.5
c0 -102.667 -26 -184.667 -78 -246s-120.333 -92 -205 -92c-28.667 0 -55.834 3.33301 -81.501 10s-46.5 14.667 -62.5 24s-29.833 18.666 -41.5 27.999s-20.167 17.333 -25.5 24z" />
    <glyph glyph-name="afii10048" unicode="&#x42e;" horiz-adv-x="899" 
d="M770 324c0 92 -17.333 163.167 -52 213.5s-83.667 75.5 -147 75.5s-112.333 -25.167 -147 -75.5s-52 -121.5 -52 -213.5c0 -92.667 17.333 -163.834 52 -213.501s83.667 -74.5 147 -74.5c64 0 113.167 24.833 147.5 74.5s51.5 120.834 51.5 213.501zM852 324
c0 -104 -24.833 -185.668 -74.5 -245.001s-118.5 -89 -206.5 -89c-84 0 -150.5 27.333 -199.5 82s-75.5 130.334 -79.5 227.001h-122v-299h-76v650h76v-305h122c3.33301 97.333 29.5 174 78.5 230s115.833 84 200.5 84c87.333 0 156 -30 206 -90s75 -141.667 75 -245z" />
    <glyph glyph-name="afii10049" unicode="&#x42f;" horiz-adv-x="547" 
d="M130 456c0 -46 11.333 -82 34 -108s50 -39 82 -39h130v297h-130c-30 0 -56.833 -13.5 -80.5 -40.5s-35.5 -63.5 -35.5 -109.5zM451 650v-650h-75v262h-129l-121 -262h-77l134 271c-36.667 11.333 -67.167 32.5 -91.5 63.5s-36.5 70.5 -36.5 118.5
c0 62 18.5 110.333 55.5 145s81.167 52 132.5 52h208z" />
    <glyph glyph-name="afii10065" unicode="&#x430;" horiz-adv-x="477" 
d="M315 107l-0.000976562 146.001c-138.667 -15.333 -208 -59 -208 -131c0 -28.667 8.33301 -50.5 25 -65.5s39.334 -22.5 68.001 -22.5c15.333 0 29.833 2.5 43.5 7.5s24.667 11 33 18s15.5 14.167 21.5 21.5s10.333 13.666 13 18.999zM88.999 423.001l-8.00195 41.002
c45.333 30.667 92.333 46 141 46c57.333 0 99.333 -12 126 -36s40 -66.333 40 -127v-245c0 -45.333 8.66699 -68 26 -68c4.66699 0 10.167 0.666992 16.5 2s11.5 2.66602 15.5 3.99902l7 3l3 -34c-32.667 -12.667 -58.667 -19 -78 -19c-17.333 0 -30.666 5.5 -39.999 16.5
s-15 30.5 -17 58.5h-1c-0.666992 -2 -2.16699 -4.66699 -4.5 -8s-7.33301 -9.33301 -15 -18s-16.5 -16.334 -26.5 -23.001s-23.5 -12.667 -40.5 -18s-35.5 -8 -55.5 -8c-44 0 -79.333 10.833 -106 32.5s-40 51.834 -40 90.501c0 98 94.333 157 283 177v53
c0 47.333 -7.66699 79.666 -23 96.999s-42.333 26 -81 26c-17.333 0 -36.166 -3.66699 -56.499 -11s-36.5 -14.333 -48.5 -21z" />
    <glyph glyph-name="afii10066" unicode="&#x431;" horiz-adv-x="505" 
d="M255 467c-44.667 0 -78.5 -18.833 -101.5 -56.5s-34.5 -86.5 -34.5 -146.5c0 -78 11 -135.833 33 -173.5s56.333 -56.5 103 -56.5c90.667 0 136 72.667 136 218c0 72.667 -11 126.667 -33 162s-56.333 53 -103 53zM303 668
c-79.333 -9.33301 -134.832 -38.168 -166.499 -86.501s-48.167 -123.166 -49.5 -224.499h5c3.33301 15.333 8.66602 31 15.999 47s17.666 32.333 30.999 49s31.166 30.334 53.499 41.001s47.166 16 74.499 16c64.667 0 114.334 -22.5 149.001 -67.5s52 -108.5 52 -190.5
s-18.667 -146.167 -56 -192.5s-89.666 -69.5 -156.999 -69.5c-71.333 0 -124.666 24.333 -159.999 73s-53 116 -53 202c0 46.667 1 86.834 3 120.501s5.83301 68.667 11.5 105s14 67.166 25 92.499s25.167 49.166 42.5 71.499s39.333 40 66 53s57.667 22.167 93 27.5l135 19
l3 -72z" />
    <glyph glyph-name="afii10067" unicode="&#x432;" horiz-adv-x="466" 
d="M147 273l107 -0.00195312c2 0 5 0.333008 9 1s10.833 2.83398 20.5 6.50098s18.167 8.33398 25.5 14.001s14 14.667 20 27s9 26.833 9 43.5c0 63.333 -32 95 -96 95h-95v-187zM248 240.998h-101v-201h92c77.333 0 116 36.333 116 109c0 27.333 -9 49.5 -27 66.5
s-44.667 25.5 -80 25.5zM240 -0.00195312h-165v500h168c111.333 0 167 -43.333 167 -130c0 -52 -28.333 -88.667 -85 -110c30 -7.33301 54.833 -21 74.5 -41s29.5 -44.667 29.5 -74c0 -96.667 -63 -145 -189 -145z" />
    <glyph glyph-name="afii10068" unicode="&#x433;" horiz-adv-x="352" 
d="M334 453h-187v-453h-72v500h259v-47z" />
    <glyph glyph-name="afii10069" unicode="&#x434;" horiz-adv-x="503" 
d="M176 454c-0.666992 -92 -4.66699 -169.832 -12 -233.499s-21 -121.834 -41 -174.501h220v408h-167zM486 46.001l-6.99902 -196h-41l-12 150h-361l-13 -150h-42l-5 196h63c23.333 56 39.166 118.833 47.499 188.5s12.5 158.167 12.5 265.5h288v-454h70z" />
    <glyph glyph-name="afii10070" unicode="&#x435;" horiz-adv-x="453" 
d="M242 467c-78.667 0 -121.333 -63 -128 -189h239c0.666992 6.66699 1 13 1 19c0 113.333 -37.333 170 -112 170zM388.001 99l29.0039 -23.998c-1.33301 -2 -3.16602 -5 -5.49902 -9s-8.33301 -10.833 -18 -20.5s-20.334 -18.334 -32.001 -26.001
s-27.334 -14.5 -47.001 -20.5s-40.834 -9 -63.501 -9c-66.667 0 -119 20.833 -157 62.5s-57 104.167 -57 187.5c0 84 18.333 150 55 198s86.667 72 150 72c57.333 0 101.5 -19.833 132.5 -59.5s46.5 -95.834 46.5 -168.501l-5 -46h-303c0 -134.667 48.667 -202 146 -202
c16.667 0 32.5 2.16699 47.5 6.5s27.167 9.83301 36.5 16.5s17.666 13.167 24.999 19.5s12.666 11.5 15.999 15.5z" />
    <glyph glyph-name="afii10072" unicode="&#x436;" horiz-adv-x="668" 
d="M370 500v-214l71 1l137 213h57l-148 -233l156 -267h-81l-134 242l-58 -1v-241h-73v242l-56 1l-136 -243h-80l155 269l-139 231h58l125 -213l73 -1v214h73z" />
    <glyph glyph-name="afii10073" unicode="&#x437;" horiz-adv-x="416" 
d="M52 421l-8.99707 42.002c4.66699 3.33301 11.334 7.66602 20.001 12.999s25.5 12.333 50.5 21s48.833 13 71.5 13c58 0 101.5 -11.667 130.5 -35s43.5 -55 43.5 -95c0 -54.667 -26.333 -93.334 -79 -116.001c66 -18.667 99 -59 99 -121
c0 -45.333 -17.5 -82.166 -52.5 -110.499s-82.833 -42.5 -143.5 -42.5c-26.667 0 -50.834 2.66699 -72.501 8s-38.5 12 -50.5 20s-22 15.833 -30 23.5s-13.333 14.167 -16 19.5l-3 8l25 32c0.666992 -2 2 -4.5 4 -7.5s6.5 -8.33301 13.5 -16s15.167 -14.5 24.5 -20.5
s22.5 -11.333 39.5 -16s35.5 -7 55.5 -7c40.667 0 72.667 10.667 96 32s35 48 35 80c0 29.333 -9.33301 52.166 -28 68.499s-42.334 24.5 -71.001 24.5l-87 -2v43l91 -2h3c6 0.666992 12.333 2.33398 19 5.00098s14.667 7.16699 24 13.5s17 16.166 23 29.499s9 29 9 47
c0 28.667 -9.33301 51.5 -28 68.5s-46.334 25.5 -83.001 25.5c-20.667 0 -41.334 -3.83301 -62.001 -11.5s-36 -15.5 -46 -23.5z" />
    <glyph glyph-name="afii10074" unicode="&#x438;" horiz-adv-x="531" 
d="M391 500h65v-500h-73v410l-252 -410h-56v500h72v-399z" />
    <glyph glyph-name="afii10075" unicode="&#x439;" horiz-adv-x="531" 
d="M270 615c24 0 42.834 5.16602 56.501 15.499s21.5 20.5 23.5 30.5l2 15v5l60 -6c0 -2.66699 -0.5 -6.16699 -1.5 -10.5s-4.5 -12.333 -10.5 -24s-13.5 -21.834 -22.5 -30.501s-23 -16.5 -42 -23.5s-40.833 -10.5 -65.5 -10.5s-46.334 3.33301 -65.001 10
s-32.5 15 -41.5 25s-16.333 19.833 -22 29.5s-9.16699 17.834 -10.5 24.501l-2 10l60 6v-5c0 -1.33301 0.166992 -3.5 0.5 -6.5s2 -8 5 -15s7 -13.167 12 -18.5s13.167 -10.166 24.5 -14.499s24.333 -6.5 39 -6.5zM391.001 499.999h65v-500h-73v410l-252 -410h-56v500h72
v-399z" />
    <glyph glyph-name="afii10076" unicode="&#x43a;" horiz-adv-x="456" 
d="M75 0v500h72v-229l62 34l144 195h51l-148 -205l178 -295h-84l-148 251l-55 -26v-225h-72z" />
    <glyph glyph-name="afii10077" unicode="&#x43b;" horiz-adv-x="479" 
d="M404 500v-499.999h-73v453h-141c-2 -148.667 -17.167 -262.834 -45.5 -342.501s-69.5 -119.5 -123.5 -119.5c-6 0 -10.667 0.333008 -14 1l3 49h5c82.667 0 124 153 124 459h265z" />
    <glyph glyph-name="afii10078" unicode="&#x43c;" horiz-adv-x="648" 
d="M569 500l7 -500h-67l-4 397l-1 29l-162 -426h-56l-158 426l-1 -11l-8 -415h-47l14 500h89l149 -426l157 426h88z" />
    <glyph glyph-name="afii10079" unicode="&#x43d;" horiz-adv-x="517" 
d="M75 0v500h72v-220h223v220h73v-500h-73v235h-223v-235h-72z" />
    <glyph glyph-name="afii10080" unicode="&#x43e;" horiz-adv-x="501" 
d="M250 466c-46.667 0 -81 -17.8311 -103 -53.498s-33 -89.834 -33 -162.501s11 -126.834 33 -162.501s56.333 -53.5 103 -53.5c90.667 0 136 72 136 216s-45.333 216 -136 216zM463 250.002c0 -82 -18.499 -145.833 -55.499 -191.5s-89.5 -68.5 -157.5 -68.5
c-69.333 0 -122.166 22.667 -158.499 68s-54.5 109.333 -54.5 192s18.167 146.667 54.5 192s89.166 68 158.499 68s122.166 -22.667 158.499 -68s54.5 -109.333 54.5 -192z" />
    <glyph glyph-name="afii10081" unicode="&#x43f;" horiz-adv-x="510" 
d="M435 500v-500h-72v453h-216v-453h-72v500h360z" />
    <glyph glyph-name="afii10082" unicode="&#x440;" 
d="M262 461c-15.333 0 -29.833 -2.33008 -43.5 -6.99707s-24.667 -10.334 -33 -17.001s-15.5 -13.334 -21.5 -20.001s-10.333 -12.334 -13 -17.001l-4 -7v-311c24.667 -29.333 59.667 -44 105 -44c52 0 90 18.5 114 55.5s36 93.167 36 168.5c0 132.667 -46.667 199 -140 199
zM75 -251.997v751.999h60l9 -60c3.33301 5.33301 7.66602 10.833 12.999 16.5s13.666 13 24.999 22s26 16.5 44 22.5s38 9 60 9c58.667 0 105.5 -21.667 140.5 -65s52.5 -103.666 52.5 -180.999c0 -84 -17.667 -150.667 -53 -200s-85.333 -74 -150 -74
c-27.333 0 -51.666 4 -72.999 12s-35.666 16 -42.999 24l-12 12h-1v-288z" />
    <glyph glyph-name="afii10083" unicode="&#x441;" horiz-adv-x="423" 
d="M386 426c-38 26.667 -79 40 -123 40c-51.333 0 -89 -17 -113 -51s-36 -90.333 -36 -169c0 -141.333 48.333 -212 145 -212c16 0 31.333 2.16699 46 6.5s26.5 9.5 35.5 15.5s16.833 12 23.5 18s11.334 11.333 14.001 16l5 6l32 -21c-1.33301 -2 -3 -5 -5 -9
s-7.5 -10.833 -16.5 -20.5s-19.167 -18.334 -30.5 -26.001s-26.833 -14.5 -46.5 -20.5s-40.834 -9 -63.501 -9c-69.333 0 -122.666 21.333 -159.999 64s-56 106.334 -56 191.001c0 85.333 18.5 150.833 55.5 196.5s91.167 68.5 162.5 68.5
c23.333 0 46.666 -3.66699 69.999 -11s41 -14.333 53 -21l17 -11z" />
    <glyph glyph-name="afii10084" unicode="&#x442;" horiz-adv-x="410" 
d="M392 453h-151v-453h-72v453h-152v47h376z" />
    <glyph glyph-name="afii10085" unicode="&#x443;" horiz-adv-x="449" 
d="M24 -201c12.667 -6 26.3301 -8.99902 40.9971 -8.99902c30.667 0 56.334 16.5 77.001 49.5s43.667 84.5 69 154.5l-196 506h86l148 -418l134 418h53l-173 -508c-14 -39.333 -26.5 -72 -37.5 -98s-24.167 -51.833 -39.5 -77.5s-32.166 -44.834 -50.499 -57.501
s-38.166 -19 -59.499 -19c-12 0 -23 1 -33 3s-17 4.33301 -21 7l-6 3z" />
    <glyph glyph-name="afii10086" unicode="&#x444;" horiz-adv-x="630" 
d="M111 250c0 -74.667 13.667 -129.333 41 -164s69.333 -52 126 -52v432c-56.667 -0.666992 -98.667 -18.167 -126 -52.5s-41 -88.833 -41 -163.5zM519 250.001c0 74 -14 128.499 -42 163.499s-70 52.833 -126 53.5v-433c56 0 98 17.333 126 52s42 89.334 42 164.001z
M351 752v-242h4c75.333 0 133.833 -22.667 175.5 -68s62.5 -109.333 62.5 -192s-20.833 -146.667 -62.5 -192s-100.167 -68 -175.5 -68l-4 1v-241l-73 -2v242h-4c-75.333 0 -133.666 22.667 -174.999 68s-62 109.333 -62 192s20.667 146.667 62 192s99.666 68 174.999 68
l4 -1v239z" />
    <glyph glyph-name="afii10087" unicode="&#x445;" horiz-adv-x="443" 
d="M417 500l-155 -239l168 -261h-85l-134 216l-139 -216h-60l166 249l-158 251h86l123 -209l129 209h59z" />
    <glyph glyph-name="afii10088" unicode="&#x446;" horiz-adv-x="522" 
d="M147 500v-453h216v453h72v-453h63l-7 -197h-46l-7 150h-363v500h72z" />
    <glyph glyph-name="afii10089" unicode="&#x447;" horiz-adv-x="463" 
d="M315 257v243h73v-500h-73v220l-5 -2c-2.66699 -1.33301 -6 -2.83301 -10 -4.5s-9 -3.5 -15 -5.5s-12.667 -4 -20 -6s-15.5 -3.83301 -24.5 -5.5s-19 -3 -30 -4s-22.5 -1.5 -34.5 -1.5c-86 0 -129 45.333 -129 136v173h73v-171c0 -65.333 27 -98 81 -98
c20.667 0 40.5 2.16699 59.5 6.5s32.833 8.5 41.5 12.5z" />
    <glyph glyph-name="afii10090" unicode="&#x448;" horiz-adv-x="719" 
d="M644 500v-500h-569v500h72v-453h176v453h73v-453h175v453h73z" />
    <glyph glyph-name="afii10091" unicode="&#x449;" horiz-adv-x="730" 
d="M707 47l-6 -197h-46l-8 150h-572v500h72v-453h176v453h73v-453h175v453h73v-453h63z" />
    <glyph glyph-name="afii10092" unicode="&#x44a;" horiz-adv-x="536" 
d="M305 272h-76v-232h78c39.333 0 69.333 9.33301 90 28s31 49.667 31 93c0 74 -41 111 -123 111zM229 500v-189h78c131.333 0 197 -50 197 -150c0 -107.333 -65 -161 -195 -161h-152v453h-138l-1 47h211z" />
    <glyph glyph-name="afii10093" unicode="&#x44b;" horiz-adv-x="655" 
d="M223 272h-76v-232h78c39.333 0 69.333 9.33301 90 28s31 49.667 31 93c0 74 -41 111 -123 111zM147 500v-189h78c131.333 0 197 -50 197 -150c0 -107.333 -65 -161 -195 -161h-152v500h72zM581 500v-500h-73v500h73z" />
    <glyph glyph-name="afii10094" unicode="&#x44c;" horiz-adv-x="454" 
d="M223 272h-76v-232h78c39.333 0 69.333 9.33301 90 28s31 49.667 31 93c0 74 -41 111 -123 111zM147 500v-189h78c131.333 0 197 -50 197 -150c0 -107.333 -65 -161 -195 -161h-152v500h72z" />
    <glyph glyph-name="afii10095" unicode="&#x44d;" horiz-adv-x="433" 
d="M17 62l23.001 31c1.33301 -1.33301 3 -3.33301 5 -6s6.66699 -7.5 14 -14.5s15.5 -13 24.5 -18s21.167 -9.66699 36.5 -14s31.666 -6.5 48.999 -6.5c96.667 0 148.334 65.667 155.001 197l-216 -1v48h216c-4 126 -53 189 -147 189
c-21.333 0 -42.833 -3.83301 -64.5 -11.5s-37.834 -15.167 -48.501 -22.5l-17 -11l-9 42c46 30.667 94.667 46 146 46c65.333 0 117 -21.5 155 -64.5s57 -103.167 57 -180.5c0 -86.667 -20.333 -154.167 -61 -202.5s-93.667 -72.5 -159 -72.5c-22.667 0 -43.667 2.5 -63 7.5
s-34.5 11 -45.5 18s-20.667 14 -29 21s-13.833 12.833 -16.5 17.5z" />
    <glyph glyph-name="afii10096" unicode="&#x44e;" horiz-adv-x="676" 
d="M432 467c-46.667 0 -80 -17.833 -100 -53.5s-30 -90.167 -30 -163.5c0 -72 10 -126.167 30 -162.5s53.333 -54.5 100 -54.5c47.333 0 81.333 18.167 102 54.5s31 90.5 31 162.5c0 73.333 -10.333 127.833 -31 163.5s-54.667 53.5 -102 53.5zM431 510
c69.333 0 121.333 -22.5 156 -67.5s52 -109.167 52 -192.5c0 -84 -17.167 -148.333 -51.5 -193s-86.5 -67 -156.5 -67c-63.333 0 -111.833 21 -145.5 63s-51.5 102.667 -53.5 182h-85v-235h-72v500h72v-220h85c8.66699 153.333 75 230 199 230z" />
    <glyph glyph-name="afii10097" unicode="&#x44f;" horiz-adv-x="460" 
d="M112 351c0 -34 11.167 -60 33.5 -78s51.5 -27 87.5 -27h3h77v214h-78c-82 0 -123 -36.333 -123 -109zM385 500v-500.001h-72v206h-100l-96 -206h-74l108 219c-32 10.667 -58.333 27.334 -79 50.001s-31 50 -31 82c0 99.333 62.667 149 188 149h156z" />
    <glyph glyph-name="uni0450" unicode="&#x450;" horiz-adv-x="453" 
d="M133 708l62 16l83 -143l-40 -8zM242 467c-78.667 0 -121.333 -63 -128 -189h239c0.666992 6.66699 1 13 1 19c0 113.333 -37.333 170 -112 170zM388.001 99l29.0039 -23.998c-1.33301 -2 -3.16602 -5 -5.49902 -9s-8.33301 -10.833 -18 -20.5
s-20.334 -18.334 -32.001 -26.001s-27.334 -14.5 -47.001 -20.5s-40.834 -9 -63.501 -9c-66.667 0 -119 20.833 -157 62.5s-57 104.167 -57 187.5c0 84 18.333 150 55 198s86.667 72 150 72c57.333 0 101.5 -19.833 132.5 -59.5s46.5 -95.834 46.5 -168.501l-5 -46h-303
c0 -134.667 48.667 -202 146 -202c16.667 0 32.5 2.16699 47.5 6.5s27.167 9.83301 36.5 16.5s17.666 13.167 24.999 19.5s12.666 11.5 15.999 15.5z" />
    <glyph glyph-name="afii10071" unicode="&#x451;" horiz-adv-x="453" 
d="M122 674c8.66699 6.66699 17.334 10.001 26.001 10.001c9.33301 0 18.333 -3.33301 27 -10c7.33301 -8.66699 11 -18.667 11 -30c0 -10.667 -3.66699 -20.334 -11 -29.001c-8.66699 -6.66699 -17.667 -10 -27 -10c-8.66699 0 -17.334 3.33301 -26.001 10
c-7.33301 7.33301 -11 17 -11 29c0 12.667 3.66699 22.667 11 30zM276 674.001c8.66699 6.66699 17.334 10 26.001 10s17.334 -3.33301 26.001 -10c8 -8 12 -18 12 -30c0 -11.333 -4 -21 -12 -29c-8.66699 -6.66699 -17.334 -10 -26.001 -10s-17.334 3.33301 -26.001 10
c-7.33301 7.33301 -11 17 -11 29c0 12.667 3.66699 22.667 11 30zM242 467.001c-78.667 0 -121.333 -63 -128 -189h239c0.666992 6.66699 1 13 1 19c0 113.333 -37.333 170 -112 170zM388.001 99.001l29.0039 -23.998c-1.33301 -2 -3.16602 -5 -5.49902 -9
s-8.33301 -10.833 -18 -20.5s-20.334 -18.334 -32.001 -26.001s-27.334 -14.5 -47.001 -20.5s-40.834 -9 -63.501 -9c-66.667 0 -119 20.833 -157 62.5s-57 104.167 -57 187.5c0 84 18.333 150 55 198s86.667 72 150 72c57.333 0 101.5 -19.833 132.5 -59.5
s46.5 -95.834 46.5 -168.501l-5 -46h-303c0 -134.667 48.667 -202 146 -202c16.667 0 32.5 2.16699 47.5 6.5s27.167 9.83301 36.5 16.5s17.666 13.167 24.999 19.5s12.666 11.5 15.999 15.5z" />
    <glyph glyph-name="afii10099" unicode="&#x452;" horiz-adv-x="512" 
d="M323 607l0.000976562 -43.9971h-176v-192h2l3 3c1.33301 2.66699 3.66602 5.66699 6.99902 9l12.5 12c5 4.66699 11.333 9.16699 19 13.5s16 8.16602 25 11.499s19.667 6.16602 32 8.49902s25.166 3.5 38.499 3.5c48.667 0 87.167 -14.167 115.5 -42.5
s42.5 -69.166 42.5 -122.499v-305c0 -71.333 -14.167 -126 -42.5 -164s-61.5 -57 -99.5 -57c-20.667 0 -39.334 5.33301 -56.001 16l14 46c10.667 -5.33301 20.667 -8 30 -8c22 0 40.833 12.667 56.5 38s23.834 64.666 24.501 117.999v301c0 42.667 -9.66699 74.5 -29 95.5
s-46 31.5 -80 31.5c-23.333 0 -44.666 -4.83301 -63.999 -14.5s-31.833 -17.834 -37.5 -24.501s-10.167 -12.667 -13.5 -18v-322h-72v563h-52v39l52 4v142l72 4v-145h176z" />
    <glyph glyph-name="afii10100" unicode="&#x453;" horiz-adv-x="358" 
d="M234 721l63 -15l-102 -135l-38 5zM333 453h-187v-453h-72v500h259v-47z" />
    <glyph glyph-name="afii10101" unicode="&#x454;" horiz-adv-x="430" 
d="M387 94l24.998 -28.001l-5.5 -8c-2.33301 -3.33301 -8.16602 -9.5 -17.499 -18.5s-19.666 -16.833 -30.999 -23.5s-26.833 -12.667 -46.5 -18s-40.5 -8 -62.5 -8c-66.667 0 -118.667 21.833 -156 65.5s-56 107.834 -56 192.501c0 83.333 18.167 147.833 54.5 193.5
s88.833 68.5 157.5 68.5c24 0 47.833 -3.66699 71.5 -11s41.5 -14.333 53.5 -21l17 -11l-9 -41c-37.333 26.667 -78 40 -122 40c-50 0 -86.5 -15 -109.5 -45s-35.5 -80.667 -37.5 -152l215 2v-49h-215c6 -125.333 55.333 -188 148 -188c25.333 0 48.5 5 69.5 15
s35.5 20 43.5 30z" />
    <glyph glyph-name="afii10102" unicode="&#x455;" horiz-adv-x="408" 
d="M36 64l25.0049 34.9961c3.33301 -4.66699 8 -10.667 14 -18s19.833 -17 41.5 -29s45.167 -18 70.5 -18c37.333 0 65.5 9.33301 84.5 28s28.5 41.334 28.5 68.001c0 24.667 -8.33301 44.334 -25 59.001s-37 26 -61 34s-47.833 16.667 -71.5 26s-43.834 24 -60.501 44
s-25 46 -25 78c0 42.667 15.5 76.5 46.5 101.5s70.833 37.5 119.5 37.5c21.333 0 43 -3.33301 65 -10s38.667 -13.334 50 -20.001l17 -9l-12 -43c-35.333 26.667 -73.333 40 -114 40c-30.667 0 -55.5 -7.66699 -74.5 -23s-28.5 -34.666 -28.5 -57.999
c0 -24.667 8.66699 -44.667 26 -60s38.166 -27.166 62.499 -35.499s48.666 -17.166 72.999 -26.499s45.166 -24.166 62.499 -44.499s26 -46.5 26 -78.5c0 -43.333 -15 -79.5 -45 -108.5s-74 -43.5 -132 -43.5c-22.667 0 -43.667 2.5 -63 7.5s-34.833 11.167 -46.5 18.5
s-21.834 14.666 -30.501 21.999s-14.667 13.333 -18 18z" />
    <glyph glyph-name="afii10103" unicode="&#x456;" horiz-adv-x="222" 
d="M82 676c7.33301 7.33301 17 10.998 29 10.998c12.667 0 22.667 -3.33301 30 -10c8 -8.66699 12 -19.667 12 -33c0 -12 -4 -22.667 -12 -32c-9.33301 -7.33301 -19.333 -11 -30 -11c-12 0 -21.667 3.66699 -29 11c-8.66699 8.66699 -13 19.334 -13 32.001
s4.33301 23.334 13 32.001zM147 499.998v-500h-73v500h73z" />
    <glyph glyph-name="afii10104" unicode="&#x457;" horiz-adv-x="222" 
d="M7 674c8.66699 6.66699 17.667 10.001 27 10.001c8.66699 0 17.334 -3.33301 26.001 -10c7.33301 -8.66699 11 -18.667 11 -30c0 -10.667 -3.66699 -20.334 -11 -29.001c-8.66699 -6.66699 -17.334 -10 -26.001 -10c-9.33301 0 -18.333 3.33301 -27 10
c-7.33301 7.33301 -11 17 -11 29c0 12.667 3.66699 22.667 11 30zM161 674.001c8.66699 6.66699 17.334 10 26.001 10s17.334 -3.33301 26.001 -10c8 -8 12 -18 12 -30c0 -11.333 -4 -21 -12 -29c-8.66699 -6.66699 -17.334 -10 -26.001 -10s-17.334 3.33301 -26.001 10
c-7.33301 7.33301 -11 17 -11 29c0 12.667 3.66699 22.667 11 30zM147 500.001v-500h-73v500h73z" />
    <glyph glyph-name="afii10105" unicode="&#x458;" horiz-adv-x="240" 
d="M100 676c7.33301 7.33301 17 10.998 29 10.998c12.667 0 22.667 -3.33301 30 -10c8 -8.66699 12 -19.667 12 -33c0 -12 -4 -22.667 -12 -32c-9.33301 -7.33301 -19.333 -11 -30 -11c-12 0 -21.667 3.66699 -29 11c-8.66699 8.66699 -13 19.334 -13 32.001
s4.33301 23.334 13 32.001zM92 -41.002l-0.000976562 541h73v-541c0 -146 -47 -219 -141 -219c-16 0 -30 1.83301 -42 5.5s-20 7.16699 -24 10.5l-7 6l14 41c12.667 -10.667 29.334 -16 50.001 -16c26 0 45.333 13.333 58 40s19 70.667 19 132z" />
    <glyph glyph-name="afii10106" unicode="&#x459;" horiz-adv-x="711" 
d="M480 272h-76v-232h78c39.333 0 69.333 9.33301 90 28s31 49.667 31 93c0 74 -41 111 -123 111zM404 500v-188.999h78c131.333 0 197 -50 197 -150c0 -107.333 -65 -161 -195 -161h-153v453h-141c-2 -148.667 -17.167 -262.834 -45.5 -342.501s-69.5 -119.5 -123.5 -119.5
c-6 0 -10.667 0.333008 -14 1l3 49h5c82.667 0 124 153 124 459h265z" />
    <glyph glyph-name="afii10107" unicode="&#x45a;" horiz-adv-x="749" 
d="M518 272h-75v-232h77c39.333 0 69.333 9.33301 90 28s31 49.667 31 93c0 74 -41 111 -123 111zM443 500v-189h77c131.333 0 197 -50 197 -150c0 -107.333 -65 -161 -195 -161h-152v235h-223v-235h-72v500h72v-220h223v220h73z" />
    <glyph glyph-name="afii10108" unicode="&#x45b;" horiz-adv-x="511" 
d="M323 607l0.00195312 -43.999h-176v-192h2l3 3c1.33301 2.66699 3.66602 5.66699 6.99902 9l12.5 12c5 4.66699 11.333 9.16699 19 13.5s16 8.16602 25 11.499s19.667 6.16602 32 8.49902s25.166 3.5 38.499 3.5c48.667 0 87.167 -14.167 115.5 -42.5
s42.5 -69.166 42.5 -122.499v-267h-73v252c0 42.667 -9.66699 74.5 -29 95.5s-46.333 31.5 -81 31.5c-24 0 -45.5 -4.83301 -64.5 -14.5s-31.833 -19.167 -38.5 -28.5l-11 -14v-322h-72v563h-52v39l52 4v142l72 4v-145h176z" />
    <glyph glyph-name="afii10109" unicode="&#x45c;" horiz-adv-x="456" 
d="M287 721l63 -15l-102 -135l-38 5zM75 0v500h72v-229l62 34l144 195h51l-148 -205l178 -295h-84l-148 251l-55 -26v-225h-72z" />
    <glyph glyph-name="uni045D" unicode="&#x45d;" horiz-adv-x="531" 
d="M150 708l62 16l83 -143l-40 -8zM391 500h65v-500h-73v410l-252 -410h-56v500h72v-399z" />
    <glyph glyph-name="afii10110" unicode="&#x45e;" horiz-adv-x="449" 
d="M236 615c24 0 42.834 5.16602 56.501 15.499s21.5 20.5 23.5 30.5l2 15v5l60 -6c0 -2.66699 -0.5 -6.16699 -1.5 -10.5s-4.5 -12.333 -10.5 -24s-13.5 -21.834 -22.5 -30.501s-23 -16.5 -42 -23.5s-40.833 -10.5 -65.5 -10.5s-46.334 3.33301 -65.001 10
s-32.5 15 -41.5 25s-16.333 19.833 -22 29.5s-9.16699 17.834 -10.5 24.501l-2 10l60 6v-5c0 -1.33301 0.166992 -3.5 0.5 -6.5s2 -8 5 -15s7 -13.167 12 -18.5s13.167 -10.166 24.5 -14.499s24.333 -6.5 39 -6.5zM24.001 -201.001
c12.667 -6 26.3301 -8.99902 40.9971 -8.99902c30.667 0 56.334 16.5 77.001 49.5s43.667 84.5 69 154.5l-196 506h86l148 -418l134 418h53l-173 -508c-14 -39.333 -26.5 -72 -37.5 -98s-24.167 -51.833 -39.5 -77.5s-32.166 -44.834 -50.499 -57.501
s-38.166 -19 -59.499 -19c-12 0 -23 1 -33 3s-17 4.33301 -21 7l-6 3z" />
    <glyph glyph-name="afii10193" unicode="&#x45f;" horiz-adv-x="527" 
d="M453 500v-500h-158l-6 -150h-48l-7 150h-159v500h72v-453h233v453h73z" />
    <glyph glyph-name="afii10146" unicode="&#x462;" horiz-adv-x="587" 
d="M309 345h-85v-301h87c53.333 0 92 12.5 116 37.5s36 64.167 36 117.5c0 51.333 -12.5 88.5 -37.5 111.5s-63.833 34.5 -116.5 34.5zM421 574v-50h-197v-136h85c154 0 231 -62.333 231 -187c0 -134 -75.333 -201 -226 -201h-166v524h-141v50h141v76h76v-76h197z" />
    <glyph glyph-name="afii10194" unicode="&#x463;" horiz-adv-x="523" 
d="M291 272h-75v-232h77c39.333 0 69.333 9.33301 90 28s31 49.667 31 93c0 74 -41 111 -123 111zM216 602v-101.999h152v-41h-152v-148h78c60 0 107.833 -11.833 143.5 -35.5s53.5 -61.834 53.5 -114.501c0 -107.333 -65 -161 -195 -161h-153v453h-123l-3 47h126v98z" />
    <glyph glyph-name="afii10050" unicode="&#x490;" horiz-adv-x="388" 
d="M337 750h43l4 -149h-214v-601h-76v650h232z" />
    <glyph glyph-name="afii10098" unicode="&#x491;" horiz-adv-x="330" 
d="M284 632h43l3 -179h-183v-453h-72v500h199z" />
    <glyph glyph-name="uni1E9E" unicode="&#x1e9e;" horiz-adv-x="634" 
d="M347 307l-37 34l121 260h-107c-104.667 0 -157 -59 -157 -177v-424h-76v438c0 66.667 19 118.667 57 156s93.667 56 167 56h185v-32l-124 -251c16 4 29.667 6 41 6c52.667 0 94.167 -16.333 124.5 -49s45.5 -76.667 45.5 -132c0 -62 -19.5 -111.167 -58.5 -147.5
s-88.5 -54.5 -148.5 -54.5c-30.667 0 -57.334 3.33301 -80.001 10s-38 13.334 -46 20.001l-11 9l17 44c2 -2.66699 5.33301 -5.83398 10 -9.50098s16.334 -8.5 35.001 -14.5s39.667 -9 63 -9c44.667 0 79.5 13.167 104.5 39.5s37.5 63.833 37.5 112.5
c0 92.667 -35.667 139 -107 139c-10.667 0 -20.667 -2 -30 -6s-16 -8 -20 -12z" />
    <glyph glyph-name="uni2002" unicode="&#x2002;" horiz-adv-x="425" 
 />
    <glyph glyph-name="uni2003" unicode="&#x2003;" horiz-adv-x="850" 
 />
    <glyph glyph-name="uni2004" unicode="&#x2004;" horiz-adv-x="283" 
 />
    <glyph glyph-name="uni2005" unicode="&#x2005;" horiz-adv-x="212" 
 />
    <glyph glyph-name="uni2009" unicode="&#x2009;" horiz-adv-x="170" 
 />
    <glyph glyph-name="uni200A" unicode="&#x200a;" horiz-adv-x="34" 
 />
    <glyph glyph-name="uni2011" unicode="&#x2011;" horiz-adv-x="297" 
d="M263 301v-47h-229v47h229z" />
    <glyph glyph-name="endash" unicode="&#x2013;" horiz-adv-x="470" 
d="M436 301v-47h-402v47h402z" />
    <glyph glyph-name="emdash" unicode="&#x2014;" horiz-adv-x="623" 
d="M590 301v-47h-556v47h556z" />
    <glyph glyph-name="afii00208" unicode="&#x2015;" horiz-adv-x="623" 
d="M590 301v-47h-556v47h556z" />
    <glyph glyph-name="quoteleft" unicode="&#x2018;" horiz-adv-x="141" 
d="M94 507c-8.66699 -7.33301 -17.999 -11.001 -27.999 -11.001c-10.667 0 -19.667 3.66699 -27 11l-4 4c-8.66699 11.333 -13 28 -13 50c0 32 8.5 67.5 25.5 106.5s38.167 68.833 63.5 89.5l21 -22c-20.667 -18.667 -37.334 -42.667 -50.001 -72s-19 -56.666 -19 -81.999
v-5h4c10 0 19 -3 27 -9c7.33301 -8.66699 11 -18.667 11 -30s-3.66699 -21.333 -11 -30z" />
    <glyph glyph-name="quoteright" unicode="&#x2019;" horiz-adv-x="141" 
d="M40 743c6.66699 6.66699 15.668 10 27.001 10s20.666 -3.33301 27.999 -10c0.666992 -0.666992 3 -4 7 -10c6 -12 9 -27 9 -45c0 -32 -8.33301 -67.333 -25 -106s-37.667 -68.667 -63 -90l-22 23c20.667 18.667 37.334 42.667 50.001 72s19 56.333 19 81v5h-4
c-10.667 0 -19.334 3.33301 -26.001 10c-8 8 -12 18 -12 30s4 22 12 30z" />
    <glyph glyph-name="quotesinglbase" unicode="&#x201a;" horiz-adv-x="141" 
d="M40 88c6.66699 6.66699 15.668 10 27.001 10s20.666 -3.33301 27.999 -10c0.666992 -0.666992 3 -4 7 -10c6 -12 9 -27 9 -45c0 -32 -8.33301 -67.333 -25 -106s-37.667 -68.667 -63 -90l-22 23c20.667 19.333 37.334 43.5 50.001 72.5s19 55.833 19 80.5v5h-4
c-10.667 0 -19.334 3.33301 -26.001 10c-8 8 -12 18 -12 30s4 22 12 30z" />
    <glyph glyph-name="quotedblleft" unicode="&#x201c;" horiz-adv-x="290" 
d="M242 507c-8.66699 -7.33301 -17.999 -11.001 -27.999 -11.001c-10.667 0 -19.667 3.66699 -27 11l-4 4c-8.66699 11.333 -13 28 -13 50c0 32 8.5 67.5 25.5 106.5s38.167 68.833 63.5 89.5l21 -22c-20.667 -18.667 -37.334 -42.667 -50.001 -72s-19 -56.666 -19 -81.999
v-5h4c10 0 19 -3 27 -9c7.33301 -8.66699 11 -18.667 11 -30s-3.66699 -21.333 -11 -30zM94.001 506.999c-8.66699 -7.33301 -17.999 -11.001 -27.999 -11.001c-10.667 0 -19.667 3.66699 -27 11l-4 4c-8.66699 11.333 -13 28 -13 50c0 32 8.5 67.5 25.5 106.5
s38.167 68.833 63.5 89.5l21 -22c-20.667 -18.667 -37.334 -42.667 -50.001 -72s-19 -56.666 -19 -81.999v-5h4c10 0 19 -3 27 -9c7.33301 -8.66699 11 -18.667 11 -30s-3.66699 -21.333 -11 -30z" />
    <glyph glyph-name="quotedblright" unicode="&#x201d;" horiz-adv-x="290" 
d="M188 743c6.66699 6.66699 15.668 10 27.001 10s20.666 -3.33301 27.999 -10c0.666992 -0.666992 3 -4 7 -10c6 -12 9 -27 9 -45c0 -32 -8.33301 -67.333 -25 -106s-37.667 -68.667 -63 -90l-22 23c20.667 18.667 37.334 42.667 50.001 72s19 56.333 19 81v5h-4
c-10.667 0 -19.334 3.33301 -26.001 10c-8 8 -12 18 -12 30s4 22 12 30zM40.001 743c6.66699 6.66699 15.668 10 27.001 10s20.666 -3.33301 27.999 -10c0.666992 -0.666992 3 -4 7 -10c6 -12 9 -27 9 -45c0 -32 -8.33301 -67.333 -25 -106s-37.667 -68.667 -63 -90l-22 23
c20.667 18.667 37.334 42.667 50.001 72s19 56.333 19 81v5h-4c-10.667 0 -19.334 3.33301 -26.001 10c-8 8 -12 18 -12 30s4 22 12 30z" />
    <glyph glyph-name="quotedblbase" unicode="&#x201e;" horiz-adv-x="290" 
d="M188 88c6.66699 6.66699 15.668 10 27.001 10s20.666 -3.33301 27.999 -10c0.666992 -0.666992 3 -4 7 -10c6 -12 9 -27 9 -45c0 -32 -8.33301 -67.333 -25 -106s-37.667 -68.667 -63 -90l-22 23c20.667 19.333 37.334 43.5 50.001 72.5s19 55.833 19 80.5v5h-4
c-10.667 0 -19.334 3.33301 -26.001 10c-8 8 -12 18 -12 30s4 22 12 30zM40.001 88c6.66699 6.66699 15.668 10 27.001 10s20.666 -3.33301 27.999 -10c0.666992 -0.666992 3 -4 7 -10c6 -12 9 -27 9 -45c0 -32 -8.33301 -67.333 -25 -106s-37.667 -68.667 -63 -90l-22 23
c20.667 19.333 37.334 43.5 50.001 72.5s19 55.833 19 80.5v5h-4c-10.667 0 -19.334 3.33301 -26.001 10c-8 8 -12 18 -12 30s4 22 12 30z" />
    <glyph glyph-name="dagger" unicode="&#x2020;" horiz-adv-x="447" 
d="M392 425v-46h-142l6 -629h-65l6 629h-144v46h149l-8 225h59l-7 -225h146z" />
    <glyph glyph-name="daggerdbl" unicode="&#x2021;" horiz-adv-x="447" 
d="M392 -25v-47h-146l7 -178h-60l5 178h-145v47h147l-7 225l7 225h-147v47h145l-5 178h60l-7 -178h146v-47h-147l8 -225l-8 -225h147z" />
    <glyph glyph-name="bullet" unicode="&#x2022;" horiz-adv-x="300" 
d="M91 380c15.333 13.333 33.333 19.998 54 19.998s38.667 -6.66699 54 -20c15.333 -15.333 23 -35 23 -59c0 -23.333 -7.66699 -42.666 -23 -57.999c-14 -13.333 -32 -20 -54 -20s-40 6.66699 -54 20c-15.333 14.667 -23 34 -23 58c0 24.667 7.66699 44.334 23 59.001z" />
    <glyph glyph-name="ellipsis" unicode="&#x2026;" horiz-adv-x="663" 
d="M509 71c8.66699 8 19 12 31 12s22.667 -4 32 -12c8.66699 -8.66699 13 -20 13 -34s-4.33301 -25.333 -13 -34c-9.33301 -8 -20 -12 -32 -12s-22.333 4 -31 12c-9.33301 8.66699 -14 20 -14 34s4.66699 25.333 14 34zM299 71c8.66699 8 19 12 31 12s22.667 -4 32 -12
c8.66699 -8.66699 13 -20 13 -34s-4.33301 -25.333 -13 -34c-9.33301 -8 -20 -12 -32 -12s-22.333 4 -31 12c-9.33301 8.66699 -14 20 -14 34s4.66699 25.333 14 34zM89 71c8.66699 8 19 12 31 12s22.667 -4 32 -12c8.66699 -8.66699 13 -20 13 -34
s-4.33301 -25.333 -13 -34c-9.33301 -8 -20 -12 -32 -12s-22.333 4 -31 12c-9.33301 8.66699 -14 20 -14 34s4.66699 25.333 14 34z" />
    </font>
</defs>
</svg>
